<?xml version="1.0" standalone="no"?>
<!DOCTYPE svg PUBLIC "-//W3C//DTD SVG 1.1//EN" "http://www.w3.org/Graphics/SVG/1.1/DTD/svg11.dtd" >
<svg>
<metadata>
Created by FontForge 20090914 at Sat Jul  9 01:50:03 2016
 By www-data
URW Software, Copyright 1995 by URW
</metadata>
<defs>
<font id="BritannicT-Medi" horiz-adv-x="500" >
  <font-face 
    font-family="Britannic T"
    font-weight="550"
    font-stretch="normal"
    units-per-em="1000"
    panose-1="2 0 6 6 8 0 0 2 0 4"
    ascent="800"
    descent="-200"
    x-height="492"
    cap-height="667"
    bbox="-137 -204.999 1131 875"
    underline-thickness="80"
    underline-position="-20"
    unicode-range="U+0020-U+FB02"
  />
<missing-glyph horiz-adv-x="300" 
 />
    <glyph glyph-name="fi" unicode="fi" horiz-adv-x="513" 
d="M333 491c14 0 25.5 0.166992 34.5 0.5s17.667 1 26 2s17 2.33301 26 4l34.5 6.5v-504h-121v491zM393 666c19.333 0 34.5 -4.83301 45.5 -14.5s16.5 -22.167 16.5 -37.5c0 -16 -5.66699 -28.667 -17 -38s-26.666 -14 -45.999 -14s-34.5 4.66699 -45.5 14
s-16.5 22 -16.5 38s5.66699 28.667 17 38s26.666 14 45.999 14zM262 452l-72.999 0.000976562v-452h-121v452h-68v40h68v63c0 35.333 11 64.5 33 87.5s50 34.5 84 34.5c67.333 0 101 -31.333 101 -94v-15l-63 -23c2 10 3.5 18.167 4.5 24.5s1.5 12.166 1.5 17.499
c0 14.667 -3.83301 27.667 -11.5 39s-16.5 17 -26.5 17s-18.833 -5.5 -26.5 -16.5s-11.5 -23.5 -11.5 -37.5c0 -12 2.66699 -25.333 8 -40s14.666 -33.667 27.999 -57h73v-40z" />
    <glyph glyph-name="fl" unicode="fl" horiz-adv-x="505" 
d="M449 0h-119v667c14 0.666992 25.333 1.16699 34 1.5s17 0.833008 25 1.5s16.5 1.5 25.5 2.5s20.5 2.5 34.5 4.5v-677zM262 452l-72.999 0.000976562v-452h-121v452h-68v40h68v63c0 35.333 11 64.5 33 87.5s50 34.5 84 34.5c67.333 0 101 -31.333 101 -94v-15l-63 -23
c2 10 3.5 18.167 4.5 24.5s1.5 12.166 1.5 17.499c0 14.667 -3.83301 27.667 -11.5 39s-16.5 17 -26.5 17s-18.833 -5.5 -26.5 -16.5s-11.5 -23.5 -11.5 -37.5c0 -12 2.66699 -25.333 8 -40s14.666 -33.667 27.999 -57h73v-40z" />
    <glyph glyph-name=".notdef" horiz-adv-x="300" 
 />
    <glyph glyph-name="space" unicode=" " horiz-adv-x="300" 
 />
    <glyph glyph-name="exclam" unicode="!" horiz-adv-x="322" 
d="M162 124c18 0 33.335 -6.49902 46.002 -19.499s19 -28.5 19 -46.5c0 -18.667 -6.33301 -34.334 -19 -47.001s-28.334 -19 -47.001 -19s-34.334 6.5 -47.001 19.5s-19 28.833 -19 47.5c0 18 6.5 33.333 19.5 46s28.833 19 47.5 19zM90.002 604.001
c-0.666992 3.33301 -0.999023 6.33301 -0.999023 9v7c0 37.333 23.667 56 71 56c25.333 0 43.666 -5 54.999 -15s17 -26.333 17 -49v-8l-46 -398h-51z" />
    <glyph glyph-name="quotedbl" unicode="&#x22;" horiz-adv-x="405" 
d="M252 400l-24 267h143l-24 -267h-95zM58 400l-24 267h143l-24 -267h-95z" />
    <glyph glyph-name="numbersign" unicode="#" horiz-adv-x="632" 
d="M267 379l-14 -100h106l14 100h-106zM388 38h-63l25 180h-105l-26 -180h-63l26 180h-112l9 61h111l14 100h-111l8 61h112l23 166h63l-23 -166h105l23 166h63l-23 -166h118l-8 -61h-118l-14 -100h118l-9 -61h-118z" />
    <glyph glyph-name="dollar" unicode="$" horiz-adv-x="554" 
d="M279 28c34 3.33301 61.167 15.5 81.5 36.5s30.5 46.5 30.5 76.5c0 27.333 -8.33301 50 -25 68s-45.667 35.667 -87 53v-234zM241 637c-14 0 -26.832 -2.66699 -38.499 -8s-22 -12.5 -31 -21.5s-16 -19.833 -21 -32.5s-7.5 -26 -7.5 -40c0 -27.333 7.66699 -49.5 23 -66.5
s42.666 -33.5 81.999 -49.5v218h-7zM279.001 406l60.9961 -25.5c15.333 -6.33301 27.833 -11.833 37.5 -16.5s17.5 -8.83398 23.5 -12.501s12.333 -7.83398 19 -12.501c52.667 -37.333 79 -88.333 79 -153c0 -36 -8.66699 -68.667 -26 -98s-41.333 -52.666 -72 -69.999
c-16 -9.33301 -33.667 -16.166 -53 -20.499s-42.333 -7.16602 -69 -8.49902v-81h-31v81c-62.667 4.66699 -111.334 22.167 -146.001 52.5s-52 71.5 -52 123.5c0 7.33301 0.333008 13.833 1 19.5s1.66699 12.834 3 21.501l70 21c-3.33301 -16 -5.83301 -29.667 -7.5 -41
s-2.5 -22.666 -2.5 -33.999c0 -34.667 11.833 -63.167 35.5 -85.5s56.5 -35.166 98.5 -38.499v247c-52.667 17.333 -97 40.333 -133 69c-41.333 33.333 -62 79.666 -62 138.999c0 56 16.833 100.667 50.5 134s81.834 53.666 144.501 60.999v64h31v-63
c64.667 -3.33301 113.334 -20.833 146.001 -52.5s48.334 -76.834 47.001 -135.501l-67 -19c2.66699 9.33301 4.33398 17.5 5.00098 24.5s1 14.167 1 21.5c0 36 -11.167 64.167 -33.5 84.5s-55.166 32.166 -98.499 35.499v-232z" />
    <glyph glyph-name="percent" unicode="%" horiz-adv-x="690" 
d="M537 317c-8 0 -15.499 -2.66699 -22.499 -8s-12.167 -12.333 -15.5 -21c-8.66699 -20 -13 -60.667 -13 -122c0 -56 3.83301 -95 11.5 -117s21.167 -33 40.5 -33s32.666 11 39.999 33s11 60 11 114c0 29.333 -0.833008 53.833 -2.5 73.5s-4.5 35.5 -8.5 47.5
s-9.33301 20.5 -16 25.5s-15 7.5 -25 7.5zM540.001 339c20 0 38.333 -3.50098 55 -10.501s30.667 -17.167 42 -30.5c12 -15.333 20.833 -33.166 26.5 -53.499s8.5 -46.5 8.5 -78.5c0 -114.667 -44.667 -172 -134 -172s-134 57.667 -134 173c0 114.667 45.333 172 136 172z
M476.001 666.999h52l-313 -667h-53zM152.001 650.999c-8 0 -15.499 -2.66797 -22.499 -8.00098s-12.167 -12.333 -15.5 -21c-8.66699 -20 -13 -60.667 -13 -122c0 -56 3.83301 -95 11.5 -117s21.167 -33 40.5 -33s32.666 10.833 39.999 32.5s11 59.834 11 114.501
c0 29.333 -0.833008 53.833 -2.5 73.5s-4.5 35.5 -8.5 47.5s-9.33301 20.5 -16 25.5s-15 7.5 -25 7.5zM155.002 672.998c88 0 132 -57.667 132 -173c0 -114.667 -44.667 -172 -134 -172s-134 57.667 -134 173c0 114.667 45.333 172 136 172z" />
    <glyph glyph-name="ampersand" unicode="&#x26;" horiz-adv-x="573" 
d="M289 427c57.333 27.333 85.999 65.332 85.999 113.999c0 13.333 -2.16699 25.833 -6.5 37.5s-10.333 21.834 -18 30.501s-16.667 15.5 -27 20.5s-21.5 7.5 -33.5 7.5c-19.333 0 -35.166 -6.66699 -47.499 -20s-18.5 -30.333 -18.5 -51c0 -22 9.33301 -48.667 28 -80z
M202.999 345.999c-27.333 -14.667 -47.167 -30.501 -59.5 -47.501s-18.5 -36.833 -18.5 -59.5c0 -28 6.16699 -56.667 18.5 -86s28.5 -54.666 48.5 -75.999c26 -27.333 54 -41 84 -41c16.667 0 31.5 3.5 44.5 10.5s27.167 19.167 42.5 36.5zM440.998 175.998
c10.667 18 20 35.6748 28 53.0078s15 36 21 56s11 42.167 15 66.5s7.66699 52.166 11 83.499h37c-1.33301 -30 -3.83301 -57.833 -7.5 -83.5s-9 -50.334 -16 -74.001s-16 -46.667 -27 -69s-24.167 -45.5 -39.5 -69.5l87 -141h-135l-32 51
c-24.667 -23.333 -48 -39.833 -70 -49.5s-47.667 -14.5 -77 -14.5s-56.833 5.33301 -82.5 16s-48.167 25 -67.5 43s-34.666 39.167 -45.999 63.5s-17 50.166 -17 77.499c0 28 6.16699 54.167 18.5 78.5s30.166 45.166 53.499 62.499l18 13.5c6 4.33301 12.333 8.5 19 12.5
s14.167 8.16699 22.5 12.5s18.166 9.16602 29.499 14.499c-21.333 32 -36.666 59.333 -45.999 82s-14 44.667 -14 66c0 20.667 4 40.167 12 58.5s18.833 34.166 32.5 47.499s30 23.833 49 31.5s39.5 11.5 61.5 11.5c20 0 38.333 -3.16699 55 -9.5s31.167 -15.333 43.5 -27
s21.833 -25.334 28.5 -41.001s10 -32.834 10 -51.501c0 -64 -36.333 -114.667 -109 -152z" />
    <glyph glyph-name="quotesingle" unicode="'" horiz-adv-x="215" 
d="M58 400l-24 267h147l-24 -267h-99z" />
    <glyph glyph-name="parenleft" unicode="(" horiz-adv-x="332" 
d="M305 638c-20 -18.667 -36.6689 -35.1689 -50.002 -49.502s-24.666 -28.666 -33.999 -42.999s-17.166 -29.5 -23.499 -45.5s-12.5 -35.333 -18.5 -58c-9.33301 -31.333 -16.166 -63.166 -20.499 -95.499s-6.5 -64.5 -6.5 -96.5c0 -42 4 -85.167 12 -129.5
s19.333 -84.5 34 -120.5c4.66699 -12 9.83398 -23.167 15.501 -33.5s12.667 -20.666 21 -30.999s18.166 -21.5 29.499 -33.5s25 -25.333 41 -40v-31c-29.333 15.333 -54.5 29.666 -75.5 42.999s-39.333 27 -55 41s-29.5 29 -41.5 45s-23.333 34.333 -34 55
c-19.333 36 -34 73.833 -44 113.5s-15 80.167 -15 121.5c0 53.333 8.5 106 25.5 158s40.5 97.667 70.5 137c8.66699 11.333 18.167 22 28.5 32s22.166 19.833 35.499 29.5s28.5 19.5 45.5 29.5s36.833 21 59.5 33v-31z" />
    <glyph glyph-name="parenright" unicode=")" horiz-adv-x="332" 
d="M27 -138c20 18.667 36.833 35.1699 50.5 49.5029s25 28.666 34 42.999s16.667 29.666 23 45.999s12.5 35.5 18.5 57.5c9.33301 31.333 16.166 63.166 20.499 95.499s6.5 64.5 6.5 96.5c0 42 -4 85.167 -12 129.5s-19.333 84.5 -34 120.5
c-4.66699 12 -9.83398 23.167 -15.501 33.5s-12.667 20.666 -21 30.999s-18.166 21.5 -29.499 33.5s-25 25.333 -41 40v31c29.333 -15.333 54.5 -29.666 75.5 -42.999s39.333 -27 55 -41s29.334 -29 41.001 -45s23.167 -34.333 34.5 -55c19.333 -36 34 -73.833 44 -113.5
s15 -80.167 15 -121.5c0 -53.333 -8.5 -106 -25.5 -158s-40.5 -97.667 -70.5 -137c-9.33301 -11.333 -19 -22 -29 -32s-21.667 -19.833 -35 -29.5s-28.5 -19.5 -45.5 -29.5s-36.833 -21 -59.5 -33v31z" />
    <glyph glyph-name="asterisk" unicode="*" horiz-adv-x="426" 
d="M178 678c16 -4 27.667 -5.99902 35 -5.99902c9.33301 0 21.333 2.33301 36 7l-20 -127l115 59c0 -8 0.333008 -14.667 1 -20s1.5 -10.333 2.5 -15s2.83301 -9.33398 5.5 -14.001l10 -17l-126 -19l89 -92l-19 -8c-4.66699 -2 -8.66699 -4.5 -12 -7.5
s-6.83301 -6.5 -10.5 -10.5s-7.83398 -9.33301 -12.501 -16l-59 115l-58 -116l-13 16c-3.33301 4 -6.83301 7.5 -10.5 10.5s-8 5.5 -13 7.5l-19.5 8l90 93l-127 19c4.66699 6.66699 8.33398 12.334 11.001 17.001s4.66699 9.16699 6 13.5s2.5 9.16602 3.5 14.499
s1.83301 12 2.5 20l115 -59z" />
    <glyph glyph-name="plus" unicode="+" 
d="M216 386v197h66v-197h204v-64h-204v-198h-66v198h-203v64h203z" />
    <glyph glyph-name="comma" unicode="," horiz-adv-x="253" 
d="M72 -90c32.667 18.667 51 48.3301 55 88.9971c-11.333 0.666992 -20 1.83398 -26 3.50098s-11.667 4.83398 -17 9.50098c-6.66699 5.33301 -12 13 -16 23s-6 20 -6 30c0 18.667 6.16699 34.334 18.5 47.001s27.833 19 46.5 19c20 0 36.167 -7.33301 48.5 -22
s18.5 -33.667 18.5 -57c0 -41.333 -11.333 -78.833 -34 -112.5s-52 -57.167 -88 -70.5v41z" />
    <glyph glyph-name="hyphen" unicode="-" horiz-adv-x="229" 
d="M221 211h-213v92h213v-92z" />
    <glyph glyph-name="period" unicode="." horiz-adv-x="253" 
d="M128 124c18 0 33.335 -6.5 46.002 -19.5s19 -28.5 19 -46.5s-6.33301 -33.5 -19 -46.5s-28.334 -19.5 -47.001 -19.5s-34.334 6.5 -47.001 19.5s-19 28.833 -19 47.5c0 18 6.5 33.333 19.5 46s28.833 19 47.5 19z" />
    <glyph glyph-name="slash" unicode="/" horiz-adv-x="408" 
d="M311 667h53l-317 -834h-53z" />
    <glyph glyph-name="zero" unicode="0" horiz-adv-x="554" 
d="M275 642c-15.333 0 -30.167 -5.83398 -44.5 -17.501s-24.833 -26.167 -31.5 -43.5c-8.66699 -22 -14.834 -52.667 -18.501 -92s-5.5 -91.333 -5.5 -156c0 -64 1.83301 -115.5 5.5 -154.5s9.83398 -69.833 18.501 -92.5c6.66699 -18 17.167 -32.667 31.5 -44
s29.833 -17 46.5 -17c16 0 31.167 5.66699 45.5 17s24.833 26 31.5 44c8.66699 22 14.834 52.333 18.501 91s5.5 88.334 5.5 149.001c0 67.333 -1.83301 121.333 -5.5 162s-9.83398 71.667 -18.501 93c-7.33301 18.667 -18 33.5 -32 44.5s-29.667 16.5 -47 16.5z
M279.999 677.999c36.667 0 70 -7.00293 100 -21.0029s55.333 -34.333 76 -61c22.667 -29.333 39 -64.666 49 -105.999s15 -93.666 15 -156.999c0 -62.667 -5 -114.667 -15 -156s-26.333 -76.666 -49 -105.999c-20.667 -27.333 -46.167 -47.833 -76.5 -61.5
s-64.5 -20.5 -102.5 -20.5c-78.667 0 -138.667 27.333 -180 82c-22.667 30 -39 65.5 -49 106.5s-15 93.5 -15 157.5c0 62.667 5 114.5 15 155.5s26.333 76.167 49 105.5c42 54.667 103 82 183 82z" />
    <glyph glyph-name="one" unicode="1" horiz-adv-x="554" 
d="M358 0l-130.001 -0.00390625v539c-14 -10 -26.5 -18.167 -37.5 -24.5s-21.667 -11.666 -32 -15.999s-21.166 -7.66602 -32.499 -9.99902s-24 -4.16602 -38 -5.49902v58c46 6.66699 85 20.834 117 42.501s55.333 49.5 70 83.5h83v-667z" />
    <glyph glyph-name="two" unicode="2" horiz-adv-x="554" 
d="M480 0l-425.998 -0.000976562v72l40.5 52l38 45.5l42 46.5l52.5 55c24.667 26 45.334 49.167 62.001 69.5s30 39.333 40 57s17.167 34.834 21.5 51.501s6.5 34 6.5 52c0 40 -10.167 72.333 -30.5 97s-46.833 37 -79.5 37c-17.333 0 -33.166 -3.66699 -47.499 -11
s-26.833 -17.5 -37.5 -30.5s-18.834 -28.667 -24.501 -47s-8.5 -38.166 -8.5 -59.499c0 -13.333 1.16699 -26.5 3.5 -39.5s6.83301 -30.5 13.5 -52.5l-73 18c-4.66699 18.667 -7.83398 33.5 -9.50098 44.5s-2.5 22.833 -2.5 35.5c0 28 5.16699 53.333 15.5 76
s25.166 42 44.499 58s42.666 28.333 69.999 37s57.666 13 90.999 13c29.333 0 56.5 -4.33301 81.5 -13s46.5 -20.834 64.5 -36.501s32.167 -34.334 42.5 -56.001s15.5 -45.167 15.5 -70.5c0 -17.333 -2.5 -34 -7.5 -50s-13.333 -33 -25 -51s-27.5 -37.5 -47.5 -58.5
s-45 -45.5 -75 -73.5c-19.333 -17.333 -37.666 -34.666 -54.999 -51.999l-68 -75l-16 -18l-9 -9h297v-114z" />
    <glyph glyph-name="three" unicode="3" horiz-adv-x="554" 
d="M119 217c-3.33301 -13.333 -5.83203 -26.3301 -7.49902 -38.9971s-2.5 -24 -2.5 -34c0 -32.667 11.333 -59.334 34 -80.001s52 -31 88 -31c39.333 0 70.833 13.667 94.5 41s35.5 63.333 35.5 108c0 22.667 -3.83301 43.667 -11.5 63s-18.167 34.666 -31.5 45.999
c-11.333 10 -28 17.667 -50 23s-47.667 8 -77 8h-40v54c8 -0.666992 15 -1 21 -1h14c26.667 0 48.667 1.83301 66 5.5s32.666 9.83398 45.999 18.501c14.667 9.33301 26.5 24.166 35.5 44.499s13.5 42.833 13.5 67.5c0 38 -9.66699 67.667 -29 89s-46.333 32 -81 32
c-34 0 -61.167 -9.33301 -81.5 -28s-30.5 -44 -30.5 -76c0 -16.667 2 -35.334 6 -56.001l-64 14c-0.666992 6 -1 12 -1 18v14c0 24 4.66699 45.833 14 65.5s22.833 36.5 40.5 50.5s38.834 24.833 63.501 32.5s52 11.5 82 11.5c30.667 0 59 -4.16699 85 -12.5
s48.333 -19.833 67 -34.5s33.334 -32.167 44.001 -52.5s16 -42.5 16 -66.5c0 -23.333 -5.83301 -46 -17.5 -68s-27.834 -40.667 -48.501 -56c-15.333 -12 -43 -24.667 -83 -38c30 -5.33301 53.333 -11.333 70 -18s31.334 -15.334 44.001 -26.001
c17.333 -14.667 30.666 -32.5 39.999 -53.5s14 -43.833 14 -68.5c0 -34 -8.83301 -65.667 -26.5 -95s-41.834 -52.666 -72.501 -69.999c-16.667 -9.33301 -36.5 -16.5 -59.5 -21.5s-47.5 -7.5 -73.5 -7.5c-68.667 0 -122.5 14 -161.5 42s-58.5 66.333 -58.5 115
c0 9.33301 0.666992 19.5 2 30.5s3.33301 23.167 6 36.5z" />
    <glyph glyph-name="four" unicode="4" horiz-adv-x="554" 
d="M289 210v316l-191 -316h191zM418 154v-154h-131v154h-249v60l290 453h90v-457h70v-56h-70z" />
    <glyph glyph-name="five" unicode="5" horiz-adv-x="554" 
d="M448 562l-288.998 -0.00292969l-31 -181c14 10 27 18.333 39 25s23.667 11.834 35 15.501s23.166 6.33398 35.499 8.00098s26.166 2.5 41.499 2.5c32 0 61.667 -5.16699 89 -15.5s50.666 -24.833 69.999 -43.5s34.5 -40.667 45.5 -66s16.5 -53.333 16.5 -84
c0 -42 -10.333 -81.333 -31 -118s-49 -65.334 -85 -86.001c-34.667 -20.667 -77.667 -31 -129 -31c-32 0 -60.833 3.66699 -86.5 11s-47.667 17.5 -66 30.5s-32.5 28.833 -42.5 47.5s-15 39.667 -15 63c0 14 2 31.667 6 53l63 12
c-3.33301 -12.667 -5.66602 -25 -6.99902 -37s-2 -22.333 -2 -31c0 -31.333 10.833 -57.166 32.5 -77.499s49.167 -30.5 82.5 -30.5c21.333 0 41 4.83301 59 14.5s33.5 23.167 46.5 40.5s23.167 37.833 30.5 61.5s11 49.5 11 77.5c0 48.667 -11.333 86.334 -34 113.001
s-54.667 40 -96 40c-12 0 -23 -1 -33 -3s-19.5 -5.5 -28.5 -10.5s-18 -11.667 -27 -20s-18.833 -18.833 -29.5 -31.5l-53 13l60 343h342z" />
    <glyph glyph-name="six" unicode="6" horiz-adv-x="554" 
d="M289 393c-15.333 0 -29.499 -4.33301 -42.499 -13s-24 -21 -33 -37s-16 -35.167 -21 -57.5s-7.5 -46.833 -7.5 -73.5c0 -60.667 8.16699 -107 24.5 -139s40.166 -48 71.499 -48c38 0 64.667 22.333 80 67c4 12 7.16699 29.833 9.5 53.5s3.5 50.5 3.5 80.5
c0 60 -6.5 102.833 -19.5 128.5s-34.833 38.5 -65.5 38.5zM421.001 496c4 20.667 5.99805 39.668 5.99805 57.001c0 26 -8.16699 47 -24.5 63s-37.833 24 -64.5 24c-26 0 -50.333 -8.5 -73 -25.5s-38.667 -39.167 -48 -66.5l-10.5 -32.5
c-3 -9.66699 -5.5 -21.167 -7.5 -34.5s-3.83301 -29.666 -5.5 -48.999l-6.5 -76c10.667 15.333 21.167 28.333 31.5 39s21.166 19.167 32.499 25.5s23.5 11 36.5 14s27.167 4.5 42.5 4.5c26 0 50 -5.16699 72 -15.5s41 -24.833 57 -43.5s28.333 -40.834 37 -66.501
s13 -53.834 13 -84.501c0 -42 -8.33301 -81.333 -25 -118s-39.334 -65.667 -68.001 -87c-33.333 -24 -74.666 -36 -123.999 -36c-106.667 0 -176.667 42.667 -210 128c-11.333 28.667 -19.666 58.834 -24.999 90.501s-8 67.167 -8 106.5c0 55.333 6.33301 105.5 19 150.5
s30.834 83.5 54.501 115.5s52 56.667 85 74s69.833 26 110.5 26c24.667 0 47.334 -3.33301 68.001 -10s38.667 -15.667 54 -27s27.333 -24.833 36 -40.5s13 -32.834 13 -51.501c0 -5.33301 -0.166992 -11.5 -0.5 -18.5s-0.833008 -14.5 -1.5 -22.5z" />
    <glyph glyph-name="seven" unicode="7" horiz-adv-x="554" 
d="M505 586c-135.333 -148.667 -203 -344 -203 -586h-150c2.66699 54 9.16699 104.667 19.5 152s25.5 93 45.5 137s45 87.667 75 131s66.333 88.333 109 135h-364l17 112h451v-81z" />
    <glyph glyph-name="eight" unicode="8" horiz-adv-x="554" 
d="M335 398c25.333 15.333 43.334 31.168 54.001 47.501s16 37.166 16 62.499c0 38 -12.667 68.833 -38 92.5s-58.333 35.5 -99 35.5c-17.333 0 -33.333 -2.66699 -48 -8s-27.334 -12.833 -38.001 -22.5s-19.167 -21 -25.5 -34s-9.5 -26.833 -9.5 -41.5
c0 -18 4.66699 -33.167 14 -45.5s26 -24.5 50 -36.5c36.667 -19.333 78 -36 124 -50zM189.001 312.002c-30 -17.333 -51.833 -36.166 -65.5 -56.499s-20.5 -45.166 -20.5 -74.499c0 -21.333 4.33301 -41.5 13 -60.5s20.667 -35.5 36 -49.5s33 -25.167 53 -33.5
s41.667 -12.5 65 -12.5c19.333 0 37.5 3.33301 54.5 10s32 15.5 45 26.5s23.167 24 30.5 39s11 30.833 11 47.5c0 31.333 -9.33301 56.666 -28 75.999s-50 36.666 -94 51.999c-10.667 4 -20 7.33301 -28 10l-23 8l-22.5 8c-7.66699 2.66699 -16.5 6 -26.5 10z
M154.001 330.002c-34 24.667 -58.5 49.332 -73.5 73.999s-22.5 53 -22.5 85c0 26.667 5.5 51.5 16.5 74.5s26.333 42.833 46 59.5s42.667 29.834 69 39.501s55.166 14.5 86.499 14.5c28 0 53.833 -3.83301 77.5 -11.5s44 -18.167 61 -31.5s30.333 -29.5 40 -48.5
s14.5 -39.833 14.5 -62.5c0 -20 -4.16699 -39.667 -12.5 -59s-19.833 -36 -34.5 -50c-6 -5.33301 -13 -10.5 -21 -15.5s-18.667 -10.833 -32 -17.5c24 -11.333 42.333 -21.5 55 -30.5s24.667 -18.833 36 -29.5c36 -37.333 54 -80.666 54 -129.999
c0 -29.333 -6 -56.333 -18 -81s-28.667 -46 -50 -64s-46.666 -32.167 -75.999 -42.5s-61 -15.5 -95 -15.5s-65.5 4.66699 -94.5 14s-54 22.5 -75 39.5s-37.333 36.833 -49 59.5s-17.5 47.667 -17.5 75c0 23.333 4.83301 45.333 14.5 66s23.167 38.667 40.5 54
c7.33301 5.33301 15.5 10.666 24.5 15.999s20.833 11.333 35.5 18z" />
    <glyph glyph-name="nine" unicode="9" horiz-adv-x="554" 
d="M271 638c-32 0 -55.332 -15.667 -69.999 -47s-22 -82.333 -22 -153c0 -60.667 6 -102.334 18 -125.001c15.333 -26.667 36.666 -40 63.999 -40c34 0 60.333 16.333 79 49s28 78.334 28 137.001c0 29.333 -2.5 56.333 -7.5 81s-11.833 44.667 -20.5 60
c-15.333 25.333 -38.333 38 -69 38zM131.001 169c-1.33301 -10.667 -2.5 -20.498 -3.5 -29.498s-1.5 -17.167 -1.5 -24.5c0 -27.333 8.83301 -49.333 26.5 -66s40.834 -25 69.501 -25c25.333 0 48.5 8.66699 69.5 26s36.167 40 45.5 68c4 12 7.33301 22.667 10 32
s5 20.333 7 33s3.83301 28.834 5.5 48.501l6.5 78.5c-11.333 -16 -22.333 -29.333 -33 -40s-21.667 -19.334 -33 -26.001s-23.166 -11.5 -35.499 -14.5s-25.833 -4.5 -40.5 -4.5c-26 0 -50 5.16699 -72 15.5s-41 25 -57 44s-28.5 41.333 -37.5 67s-13.5 54.167 -13.5 85.5
c0 42 8.33301 81.167 25 117.5s39.667 65.166 69 86.499c17.333 13.333 36 22.833 56 28.5s43 8.5 69 8.5c81.333 0 141.833 -26.833 181.5 -80.5s59.5 -135.834 59.5 -246.501c0 -46 -3.33301 -87 -10 -123s-17.334 -69.667 -32.001 -101
c-20.667 -43.333 -51.334 -77.333 -92.001 -102s-86.667 -37 -138 -37c-50 0 -90.333 11.667 -121 35s-46 54 -46 92c0 5.33301 0.166992 11.333 0.5 18s0.833008 13.667 1.5 21z" />
    <glyph glyph-name="colon" unicode=":" horiz-adv-x="253" 
d="M128 454c18 0 33.335 -6.5 46.002 -19.5s19 -28.5 19 -46.5s-6.33301 -33.5 -19 -46.5s-28.334 -19.5 -47.001 -19.5s-34.334 6.5 -47.001 19.5s-19 28.833 -19 47.5c0 18 6.5 33.333 19.5 46s28.833 19 47.5 19zM128.002 124c18 0 33.335 -6.5 46.002 -19.5
s19 -28.5 19 -46.5s-6.33301 -33.5 -19 -46.5s-28.334 -19.5 -47.001 -19.5s-34.334 6.5 -47.001 19.5s-19 28.833 -19 47.5c0 18 6.5 33.333 19.5 46s28.833 19 47.5 19z" />
    <glyph glyph-name="semicolon" unicode=";" horiz-adv-x="255" 
d="M129 454c18 0 33.335 -6.49902 46.002 -19.499s19 -28.5 19 -46.5c0 -18.667 -6.33301 -34.334 -19 -47.001s-28.334 -19 -47.001 -19s-34.334 6.5 -47.001 19.5s-19 28.833 -19 47.5c0 18 6.5 33.333 19.5 46s28.833 19 47.5 19zM73.002 -89.999
c32.667 18.667 51 48.3301 55 88.9971c-11.333 0.666992 -20 1.83398 -26 3.50098s-11.667 4.83398 -17 9.50098c-6.66699 5.33301 -12 13 -16 23s-6 20 -6 30c0 18.667 6.16699 34.334 18.5 47.001s27.833 19 46.5 19c20 0 36.167 -7.33301 48.5 -22s18.5 -33.667 18.5 -57
c0 -41.333 -11.333 -78.833 -34 -112.5s-52 -57.167 -88 -70.5v41z" />
    <glyph glyph-name="semicolon" unicode="&#x37e;" horiz-adv-x="255" 
d="M129 454c18 0 33.335 -6.49902 46.002 -19.499s19 -28.5 19 -46.5c0 -18.667 -6.33301 -34.334 -19 -47.001s-28.334 -19 -47.001 -19s-34.334 6.5 -47.001 19.5s-19 28.833 -19 47.5c0 18 6.5 33.333 19.5 46s28.833 19 47.5 19zM73.002 -89.999
c32.667 18.667 51 48.3301 55 88.9971c-11.333 0.666992 -20 1.83398 -26 3.50098s-11.667 4.83398 -17 9.50098c-6.66699 5.33301 -12 13 -16 23s-6 20 -6 30c0 18.667 6.16699 34.334 18.5 47.001s27.833 19 46.5 19c20 0 36.167 -7.33301 48.5 -22s18.5 -33.667 18.5 -57
c0 -41.333 -11.333 -78.833 -34 -112.5s-52 -57.167 -88 -70.5v41z" />
    <glyph glyph-name="less" unicode="&#x3c;" 
d="M466 483l-293 -147l293 -146v-131l-433 222v112l433 221v-131z" />
    <glyph glyph-name="equal" unicode="=" 
d="M486 311v-62h-473v62h473zM486 459v-62h-473v62h473z" />
    <glyph glyph-name="greater" unicode="&#x3e;" 
d="M34 191l292 146l-292 146v131l433 -222v-111l-433 -222v132z" />
    <glyph glyph-name="question" unicode="?" horiz-adv-x="449" 
d="M122 124c18 0 33.335 -6.49902 46.002 -19.499s19 -28.5 19 -46.5c0 -18.667 -6.33301 -34.334 -19 -47.001s-28.334 -19 -47.001 -19s-34.334 6.5 -47.001 19.5s-19 28.833 -19 47.5c0 18 6.5 33.333 19.5 46s28.833 19 47.5 19zM92.002 390.001l47.0029 0.00195312
c7.33301 -30 16.833 -51.333 28.5 -64s28.167 -19 49.5 -19c54.667 0 82 47.667 82 143c0 64.667 -7.83301 112.167 -23.5 142.5s-39.834 45.5 -72.501 45.5c-24.667 0 -43.834 -9 -57.501 -27s-20.5 -43 -20.5 -75c0 -11.333 0.666992 -21.833 2 -31.5
s3.66602 -23.167 6.99902 -40.5l-55 16c-3.33301 16.667 -5.66602 29.5 -6.99902 38.5s-2 18.5 -2 28.5c0 19.333 3.83301 37 11.5 53s18.167 29.667 31.5 41s29.5 20.166 48.5 26.499s40.167 9.5 63.5 9.5c28.667 0 54.5 -4.83301 77.5 -14.5s42.667 -23.334 59 -41.001
s28.833 -39.167 37.5 -64.5s13 -53.666 13 -84.999c0 -30 -4.16699 -57.667 -12.5 -83s-19.833 -47.333 -34.5 -66s-32 -33.167 -52 -43.5s-41.667 -15.5 -65 -15.5c-20.667 0 -38.834 3.66699 -54.501 11s-32.5 19.666 -50.5 36.999v-107h-51v185z" />
    <glyph glyph-name="at" unicode="@" horiz-adv-x="679" 
d="M408 352c7.33301 21.333 11.001 38.666 11.001 51.999c0 16.667 -5 30.5 -15 41.5s-22.333 16.5 -37 16.5c-16 0 -32 -6.33301 -48 -19s-30.5 -29 -43.5 -49s-23.5 -42.667 -31.5 -68s-12 -50.333 -12 -75c0 -20 4.83301 -36.167 14.5 -48.5s22.5 -18.5 38.5 -18.5
c21.333 0 40.166 8.33301 56.499 25s30.833 43.334 43.5 80.001zM646.001 169c-12 -26 -28.1641 -50.002 -48.4971 -72.002s-43.333 -40.667 -69 -56s-53.5 -27.333 -83.5 -36s-60.333 -13 -91 -13c-46 0 -89.167 8.66699 -129.5 26s-75.5 41 -105.5 71
s-53.667 65.167 -71 105.5s-26 83.5 -26 129.5c0 46.667 8.66699 90.334 26 131.001s41.166 76.167 71.499 106.5s65.833 54.166 106.5 71.499s84.667 26 132 26c41.333 0 80.333 -7.16699 117 -21.5s68.5 -34 95.5 -59s48.333 -54.333 64 -88s23.5 -69.5 23.5 -107.5
c0 -37.333 -7.5 -71.666 -22.5 -102.999s-36.833 -58.666 -65.5 -81.999c-19.333 -15.333 -39.833 -27.333 -61.5 -36s-42.167 -13 -61.5 -13c-36 0 -59.333 15.667 -70 47c-20 -17.333 -38 -29.5 -54 -36.5s-33 -10.5 -51 -10.5c-34 0 -61.5 11.667 -82.5 35
s-31.5 53.666 -31.5 90.999c0 28 5.33301 55.5 16 82.5s25 51 43 72s38.333 38 61 51s46 19.5 70 19.5c41.333 0 72.666 -18 93.999 -54l14 39h67l-79 -235c-5.33301 -17.333 -8 -30.333 -8 -39c0 -7.33301 2.66699 -13.5 8 -18.5s12.666 -7.5 21.999 -7.5
c14 0 29 4.5 45 13.5s31.333 21.167 46 36.5c38 41.333 57 89.666 57 144.999c0 33.333 -6.66699 64.5 -20 93.5s-31.5 54.167 -54.5 75.5s-50 38.166 -81 50.499s-64.5 18.5 -100.5 18.5c-40.667 0 -78.5 -7.5 -113.5 -22.5s-65.5 -35.667 -91.5 -62
s-46.333 -57.333 -61 -93s-22 -74.167 -22 -115.5c0 -40.667 7.33301 -78.667 22 -114s35 -66.166 61 -92.499s56.333 -47 91 -62s72 -22.5 112 -22.5c24 0 47.833 3.16699 71.5 9.5s46 15.333 67 27s40.167 25.834 57.5 42.501s32.333 35.334 45 56.001h49z" />
    <glyph glyph-name="A" unicode="A" horiz-adv-x="498" 
d="M305 209l-94 338l-99 -338h193zM498 0h-136l-44 159h-220l-46 -159h-54l197 667h114z" />
    <glyph glyph-name="B" unicode="B" horiz-adv-x="578" 
d="M288 372c70.667 0 106 41.667 106 125c0 42.667 -9.16699 74 -27.5 94s-46.833 30 -85.5 30h-83v-249h90zM278 44c91.333 0 137 44 137 132c0 48 -12.167 85.333 -36.5 112s-58.833 40 -103.5 40h-77v-284h80zM63 667l243.999 0.00195312
c68.667 0 122.834 -14.667 162.501 -44s59.5 -69.666 59.5 -120.999c0 -24 -4.66699 -46 -14 -66s-22.666 -36.333 -39.999 -49s-46.666 -24 -87.999 -34c29.333 -6.66699 52.166 -13.5 68.499 -20.5s31.166 -16.833 44.499 -29.5
c17.333 -16.667 30.833 -35.834 40.5 -57.501s14.5 -44.834 14.5 -69.501c0 -26 -5.16699 -49.833 -15.5 -71.5s-24.833 -40.334 -43.5 -56.001s-41.167 -27.667 -67.5 -36s-55.5 -12.5 -87.5 -12.5h-278v667z" />
    <glyph glyph-name="C" unicode="C" horiz-adv-x="572" 
d="M547 238c0.666992 -8 1.16895 -15.001 1.50195 -21.001s0.5 -11 0.5 -15c0 -30.667 -7.33301 -61.167 -22 -91.5s-34.334 -55.833 -59.001 -76.5c-36.667 -30.667 -90.667 -46 -162 -46c-92 0 -161.333 32.667 -208 98c-19.333 27.333 -34.666 61.5 -45.999 102.5
s-17 83.833 -17 128.5c0 62.667 9 118.334 27 167.001s44.333 88.667 79 120c54 48.667 116.333 73 187 73c38.667 0 73.167 -7.5 103.5 -22.5s53.833 -35.833 70.5 -62.5c9.33301 -16 16 -31.833 20 -47.5s6.33301 -36.834 7 -63.501l-60 -30c0.666992 6.66699 1 13 1 19
v16c0 48.667 -13.667 85.667 -41 111s-58.333 38 -93 38c-65.333 0 -111.333 -39.333 -138 -118c-7.33301 -20 -12.833 -47.167 -16.5 -81.5s-5.5 -71.5 -5.5 -111.5c0 -112.667 16.333 -190.667 49 -234c29.333 -39.333 68.666 -59 117.999 -59c20.667 0 40 4.33301 58 13
s33.667 20.5 47 35.5s23.666 32.667 30.999 53s11 42.5 11 66.5c0 6.66699 -0.333008 14.834 -1 24.501s-1.66699 20.167 -3 31.5z" />
    <glyph glyph-name="D" unicode="D" horiz-adv-x="602" 
d="M264 44c28.667 0 54.168 6.16797 76.501 18.501s40.166 30.166 53.499 53.499c10 18 17.833 46.167 23.5 84.5s8.5 84.166 8.5 137.499c0 68.667 -4.5 121.834 -13.5 159.501s-23.833 66.167 -44.5 85.5c-28 26 -62.667 39 -104 39h-68v-578h68zM63.001 667.001
l216.001 -0.00195312c44 0 83.667 -6.83301 119 -20.5s65.333 -33.167 90 -58.5c25.333 -26.667 45.166 -62.5 59.499 -107.5s21.5 -93.5 21.5 -145.5c0 -69.333 -11.167 -129.666 -33.5 -180.999s-54.5 -89.666 -96.5 -114.999c-44 -26 -99.333 -39 -166 -39h-210v667z" />
    <glyph glyph-name="E" unicode="E" horiz-adv-x="493" 
d="M446 617h-248v-225h210v-47h-210v-296h285v-49h-420v667h383v-50z" />
    <glyph glyph-name="F" unicode="F" horiz-adv-x="460" 
d="M447 617h-250v-244h213v-49h-213v-324h-134v667h384v-50z" />
    <glyph glyph-name="G" unicode="G" horiz-adv-x="598" 
d="M555 348v-348.002h-41l-19 48c-15.333 -12 -29.166 -22 -41.499 -30s-24.833 -14.167 -37.5 -18.5s-25.834 -7.33301 -39.501 -9s-29.834 -2.5 -48.501 -2.5c-56.667 0 -103.167 8.66699 -139.5 26s-66.833 45.333 -91.5 84c-19.333 30.667 -34.5 66.334 -45.5 107.001
s-16.5 82.334 -16.5 125.001c0 52 7 99.5 21 142.5s34 79.667 60 110s57.167 53.833 93.5 70.5s76.833 25 121.5 25c37.333 0 70.5 -7 99.5 -21s52.167 -33.667 69.5 -59c8.66699 -12.667 15.667 -27.334 21 -44.001s10 -37.667 14 -63l-65 -31v12
c0 27.333 -2.16699 49.5 -6.5 66.5s-12.166 32.833 -23.499 47.5c-24 32 -57 48 -99 48c-34 0 -63.167 -9.83301 -87.5 -29.5s-42.5 -47.5 -54.5 -83.5c-6 -18 -10.667 -43.333 -14 -76s-5 -70.334 -5 -113.001c0 -59.333 2.66699 -107.166 8 -143.499
s14 -65.166 26 -86.499c27.333 -48.667 67.333 -73 120 -73c28.667 0 51.667 7.83301 69 23.5s26 36.5 26 62.5v183h-139v50h265z" />
    <glyph glyph-name="H" unicode="H" horiz-adv-x="605" 
d="M197 0h-134v667h134v-279h212v279h134v-667h-134v339h-212v-339z" />
    <glyph glyph-name="I" unicode="I" horiz-adv-x="263" 
d="M199 0h-134v667h134v-667z" />
    <glyph glyph-name="J" unicode="J" horiz-adv-x="375" 
d="M316 192c0 -36 -2.49805 -65.4971 -7.49805 -88.4971s-13.167 -42.5 -24.5 -58.5c-13.333 -18.667 -30.333 -33.167 -51 -43.5s-43.334 -15.5 -68.001 -15.5c-20 0 -40.667 3.66699 -62 11s-39.666 17.333 -54.999 30c-32.667 26.667 -49 65 -49 115
c0 13.333 1.16699 27 3.5 41s6.5 33.333 12.5 58l58 14l-10.5 -35.5c-3 -10.333 -5.33301 -19.833 -7 -28.5s-2.83398 -16.834 -3.50098 -24.501s-1 -15.834 -1 -24.501c0 -15.333 2.16699 -29.833 6.5 -43.5s10.166 -25.5 17.499 -35.5s15.833 -18 25.5 -24
s20.167 -9 31.5 -9c17.333 0 29.833 8.16699 37.5 24.5s11.5 43.166 11.5 80.499v532h135v-475z" />
    <glyph glyph-name="K" unicode="K" horiz-adv-x="570" 
d="M331 442l245 -442h-150l-184 331l-44 -51v-280h-135v667h135v-311l257 311h64z" />
    <glyph glyph-name="L" unicode="L" horiz-adv-x="467" 
d="M195 50h284v-50h-416v667h132v-617z" />
    <glyph glyph-name="M" unicode="M" horiz-adv-x="688" 
d="M624 0h-132v523l-151 -523h-82l-150 514v-514h-50v667h139l143 -494l145 494h138v-667z" />
    <glyph glyph-name="N" unicode="N" horiz-adv-x="554" 
d="M495 0h-103l-284 509v-509h-49v667h101l288 -509v509h47v-667z" />
    <glyph glyph-name="O" unicode="O" horiz-adv-x="595" 
d="M296 640c-21.333 0 -40.335 -5.99512 -57.002 -17.9951s-29 -28.667 -37 -50c-4.66699 -12.667 -8.5 -26.167 -11.5 -40.5s-5.5 -30.833 -7.5 -49.5s-3.33301 -40.167 -4 -64.5s-1 -52.5 -1 -84.5s0.333008 -60 1 -84s2 -45.333 4 -64s4.5 -35.167 7.5 -49.5
s6.83301 -27.833 11.5 -40.5c8 -22 20.333 -38.833 37 -50.5s36.334 -17.5 59.001 -17.5s42.334 6 59.001 18s29 28.667 37 50c4.66699 12.667 8.5 26.167 11.5 40.5s5.5 30.666 7.5 48.999s3.33301 39.166 4 62.499s1 50 1 80c0 33.333 -0.333008 62.666 -1 87.999
s-2 47.666 -4 66.999s-4.5 36.166 -7.5 50.499s-6.83301 27.5 -11.5 39.5c-17.333 45.333 -50 68 -98 68zM302.998 679.005c44 0 83.832 -9.33301 119.499 -28s64.5 -45 86.5 -79c16 -25.333 28.667 -58.833 38 -100.5s14 -87.167 14 -136.5
c0 -132.667 -28.333 -226.334 -85 -281.001c-47.333 -44 -106.666 -66 -177.999 -66c-46 0 -87.333 9.33301 -124 28s-65.667 45 -87 79c-16 24.667 -28.667 58.834 -38 102.501s-14 91.167 -14 142.5c0 62.667 7.16699 117 21.5 163s35.5 82.667 63.5 110
c47.333 44 108.333 66 183 66z" />
    <glyph glyph-name="P" unicode="P" horiz-adv-x="554" 
d="M260 323c50.667 0 87.5 11.833 110.5 35.5s34.5 61.5 34.5 113.5c0 51.333 -11.667 88.833 -35 112.5s-60 35.5 -110 35.5h-61v-297h61zM63 667l221 0.000976562c83.333 0 147 -16.333 191 -49s66 -80.334 66 -143.001c0 -67.333 -22 -117.333 -66 -150
s-112 -49 -204 -49h-72v-276h-136v667z" />
    <glyph glyph-name="Q" unicode="Q" horiz-adv-x="594" 
d="M329 34c-5.33301 32.667 -12 55.667 -20 69s-19.667 20 -35 20c-25.333 0 -46 -16.333 -62 -49c18.667 -32 46 -48 82 -48c6 0 11.5 0.5 16.5 1.5s11.167 3.16699 18.5 6.5zM199 117c14 23.333 27.332 39.332 39.999 47.999s28 13 46 13c22 0 39.833 -6.16699 53.5 -18.5
s26.834 -34.166 39.501 -65.499c7.33301 14 13.5 28.667 18.5 44s9 32.5 12 51.5s5.16699 40.833 6.5 65.5s2 53.667 2 87c0 51.333 -1.16699 92.833 -3.5 124.5s-6.16602 57.167 -11.499 76.5c-17.333 64 -52.333 96 -105 96c-59.333 0 -96 -41 -110 -123
c-1.33301 -8 -2.5 -18.833 -3.5 -32.5s-2 -29 -3 -46s-1.66699 -35 -2 -54s-0.5 -37.833 -0.5 -56.5c0 -50 1.66699 -91.5 5 -124.5s8.66602 -61.5 15.999 -85.5zM562.999 -3.00098c1.33301 -6.66699 1.99902 -11.834 1.99902 -15.501v-12.5c0 -34 -8.83301 -61 -26.5 -81
s-41.5 -30 -71.5 -30c-21.333 0 -41.5 5.66699 -60.5 17s-34.167 27 -45.5 47c-5.33301 8.66699 -9.83301 18 -13.5 28s-7.16699 23 -10.5 39c-13.333 -1.33301 -23.166 -2 -29.499 -2h-18.5c-44.667 0 -86 10.833 -124 32.5s-66.667 51.167 -86 88.5
c-30 54.667 -45 130.334 -45 227.001c0 112 22.333 197.167 67 255.5s110 87.5 196 87.5c44 0 83.667 -8 119 -24s63.333 -38.667 84 -68c20 -29.333 34.833 -65.333 44.5 -108s14.5 -94.667 14.5 -156c0 -82.667 -11 -148.667 -33 -198s-57 -86.333 -105 -111
c7.33301 -22 16.5 -39.167 27.5 -51.5s22.833 -18.5 35.5 -18.5c26.667 0 40 15.333 40 46v9.5c0 3 -0.333008 7.16699 -1 12.5z" />
    <glyph glyph-name="R" unicode="R" horiz-adv-x="582" 
d="M260 361c25.333 0 45.166 1.99902 59.499 5.99902s27.5 10.667 39.5 20c30 24.667 45 59.334 45 104.001c0 44 -15 78.667 -45 104c-12 9.33301 -25.167 16 -39.5 20s-34.166 6 -59.499 6h-62v-260h62zM63 666.999h229.994c76.667 0 135.667 -15.333 177 -46
c22.667 -16 39.667 -34.5 51 -55.5s17 -43.5 17 -67.5c0 -24.667 -6.66699 -49.167 -20 -73.5s-30.666 -44.166 -51.999 -59.499c-10.667 -7.33301 -22.5 -13.333 -35.5 -18s-30.833 -9 -53.5 -13c24.667 -6 45.334 -13 62.001 -21s30.334 -17.5 41.001 -28.5
s18.5 -24 23.5 -39s8.16699 -32.833 9.5 -53.5l6.5 -89c1.66699 -22 3.83398 -39.5 6.50098 -52.5s5.83398 -23 9.50098 -30s8.5 -13.833 14.5 -20.5h-148c-3.33301 6.66699 -6.16602 12.834 -8.49902 18.501s-4.16602 12 -5.49902 19s-2.33301 15.5 -3 25.5
s-1.33398 23 -2.00098 39c-1.33301 34 -2.66602 61.667 -3.99902 83s-3 38.666 -5 51.999s-4.66699 23.666 -8 30.999s-7.33301 14 -12 20c-8.66699 10 -21.334 17.667 -38.001 23s-36 8 -58 8h-60v-319h-135v667z" />
    <glyph glyph-name="S" unicode="S" horiz-adv-x="512" 
d="M387 472c1.33301 10.667 2.49414 20.6689 3.49414 30.002s1.5 17.666 1.5 24.999c0 16 -3.66699 30.667 -11 44s-17.333 25 -30 35s-27.667 17.833 -45 23.5s-36 8.5 -56 8.5c-53.333 0 -90 -16.333 -110 -49c-10 -18 -15 -36.333 -15 -55
c0 -28 8.83301 -50.833 26.5 -68.5s49.167 -34.834 94.5 -51.501c30 -11.333 57.5 -23 82.5 -35s47.167 -24 66.5 -36c29.333 -18 50.833 -39.833 64.5 -65.5s20.5 -56.5 20.5 -92.5c0 -29.333 -5.5 -56 -16.5 -80s-26.5 -44.667 -46.5 -62s-43.833 -30.833 -71.5 -40.5
s-58.5 -14.5 -92.5 -14.5c-33.333 0 -63.666 4 -90.999 12s-50.666 19.5 -69.999 34.5s-34.166 33.167 -44.499 54.5s-15.5 45 -15.5 71c0 5.33301 0.166992 12.166 0.5 20.499s0.833008 17.166 1.5 26.499l71 20c-7.33301 -29.333 -11 -53.666 -11 -72.999
c0 -18 3.83301 -34.833 11.5 -50.5s18 -29.334 31 -41.001s28.5 -20.667 46.5 -27s37.333 -9.5 58 -9.5c18.667 0 36 2.83301 52 8.5s30 13.5 42 23.5s21.333 21.833 28 35.5s10 28.5 10 44.5c0 22.667 -6 42.334 -18 59.001s-31.667 32 -59 46
c-3.33301 2 -6.33301 3.66699 -9 5l-12.5 6c-5.66699 2.66699 -13.834 6 -24.501 10s-25.667 10 -45 18c-31.333 12.667 -57.666 25.667 -78.999 39s-38.666 28.333 -51.999 45s-23 35.167 -29 55.5s-9 43.5 -9 69.5c0 28 5.33301 53.333 16 76s25.834 42.334 45.501 59.001
s43 29.5 70 38.5s56.833 13.5 89.5 13.5c36 0 68.833 -6.5 98.5 -19.5s52.834 -31.167 69.501 -54.5c10 -14 17 -29.5 21 -46.5s6 -39.833 6 -68.5z" />
    <glyph glyph-name="T" unicode="T" horiz-adv-x="454" 
d="M458 617h-160v-617h-141v617h-161v50h462v-50z" />
    <glyph glyph-name="U" unicode="U" horiz-adv-x="569" 
d="M516 193c0 -36 -3.66895 -65.666 -11.002 -88.999s-19 -42.666 -35 -57.999c-18.667 -17.333 -44.5 -31 -77.5 -41s-68.5 -15 -106.5 -15c-39.333 0 -75.666 5.33301 -108.999 16s-59.333 25 -78 43c-14.667 14.667 -25.5 33.5 -32.5 56.5s-10.5 52.167 -10.5 87.5v474
h134v-477c0 -30.667 2 -54.167 6 -70.5s11 -29.833 21 -40.5c11.333 -12.667 26.833 -22.5 46.5 -29.5s41.167 -10.5 64.5 -10.5c30.667 0 57.334 5.66699 80.001 17s38.667 26.666 48 45.999c4.66699 9.33301 8 21.166 10 35.499s3 32.833 3 55.5v474h47v-474z" />
    <glyph glyph-name="V" unicode="V" horiz-adv-x="478" 
d="M289 0h-117l-172 667h135l139 -543l153 543h52z" />
    <glyph glyph-name="W" unicode="W" horiz-adv-x="743" 
d="M568 0h-93l-105 453l-110 -453h-94l-166 667h137l117 -487l116 487h85l111 -490l124 490h54z" />
    <glyph glyph-name="X" unicode="X" horiz-adv-x="517" 
d="M311 371l207 -371h-151l-143 262l-157 -262h-61l189 312l-196 355h150l134 -247l145 247h61z" />
    <glyph glyph-name="Y" unicode="Y" horiz-adv-x="466" 
d="M316 247v-247h-134v247l-188 420h142l155 -348l130 348h54z" />
    <glyph glyph-name="Z" unicode="Z" 
d="M491 619l-334 -567h315v-52h-464v52l332 563h-297v52h448v-48z" />
    <glyph glyph-name="bracketleft" unicode="[" horiz-adv-x="289" 
d="M262 636h-98v-766h98v-30h-202v827h202v-31z" />
    <glyph glyph-name="backslash" unicode="\" horiz-adv-x="408" 
d="M361 -167l-317 834h53l317 -834h-53z" />
    <glyph glyph-name="bracketright" unicode="]" horiz-adv-x="289" 
d="M27 -129h99v766h-99v30h203v-827h-203v31z" />
    <glyph glyph-name="asciicircum" unicode="^" 
d="M19 356l157 314h148l157 -314h-119l-112 224l-113 -224h-118z" />
    <glyph glyph-name="underscore" unicode="_" 
d="M500 -60v-80h-500v80h500z" />
    <glyph glyph-name="grave" unicode="`" 
d="M148 680h122l83 -126h-36z" />
    <glyph glyph-name="a" unicode="a" horiz-adv-x="480" 
d="M297 313c-8.66699 -9.33301 -15.8311 -16.167 -21.498 -20.5s-14.834 -9.83301 -27.501 -16.5l-28.5 -15c-7.66699 -4 -14 -7.5 -19 -10.5s-9.16699 -6 -12.5 -9s-6.33301 -6.5 -9 -10.5c-8 -10 -14.333 -23.167 -19 -39.5s-7 -33.833 -7 -52.5
c0 -70.667 20 -106 60 -106c11.333 0 22.5 3.5 33.5 10.5s20.833 17.167 29.5 30.5c7.33301 12 12.666 24.167 15.999 36.5s5 27.5 5 45.5v157zM495.003 8.99902c-20.667 -6 -37.335 -10.165 -50.002 -12.498s-26.667 -3.5 -42 -3.5c-18 0 -34.333 2.33301 -49 7
s-26 11 -34 19c-5.33301 5.33301 -9.16602 11.333 -11.499 18s-4.16602 16 -5.49902 28c-15.333 -27.333 -32.833 -46.666 -52.5 -57.999s-44.834 -17 -75.501 -17c-44 0 -79.167 13.167 -105.5 39.5s-39.5 61.5 -39.5 105.5c0 40 10.167 71.333 30.5 94
s55.833 41.667 106.5 57c16 4.66699 29.167 8.83398 39.5 12.501s19 7 26 10s13 5.83301 18 8.5s10.167 5.66699 15.5 9c21.333 15.333 32 36 32 62c0 28 -7.83301 49.833 -23.5 65.5s-37.5 23.5 -65.5 23.5c-13.333 0 -25.833 -2.16699 -37.5 -6.5s-21.667 -10.333 -30 -18
s-15 -16.667 -20 -27s-7.5 -21.5 -7.5 -33.5c0 -7.33301 1 -15.333 3 -24s5.66699 -20.334 11 -35.001l-65 14c-1.33301 8 -2.5 15.5 -3.5 22.5s-1.5 13.167 -1.5 18.5c0 17.333 4.5 33.166 13.5 47.499s21.5 26.666 37.5 36.999s35.333 18.333 58 24s47.667 8.5 75 8.5
c54 0 96.667 -9.66699 128 -29s47 -46 47 -80v-303c0 -39.333 12.333 -59 37 -59c4.66699 0 9.33398 0.666992 14.001 2s10.667 3.66602 18 6.99902z" />
    <glyph glyph-name="b" unicode="b" horiz-adv-x="501" 
d="M262 460c-13.333 0 -26.834 -5.83398 -40.501 -17.501s-23.5 -26.167 -29.5 -43.5c-3.33301 -10 -6 -20 -8 -30s-3.66699 -21 -5 -33s-2.33301 -25.5 -3 -40.5s-1 -32.167 -1 -51.5c0 -39.333 0.833008 -69.666 2.5 -90.999s4.83398 -40 9.50098 -56
c5.33301 -18 15 -33 29 -45s28.667 -18 44 -18c41.333 0 67 30.667 77 92c2 11.333 3.66699 29.666 5 54.999s2 52.333 2 81c0 70.667 -6.33301 121.334 -19 152.001s-33.667 46 -63 46zM55.999 666.999c14 0.666992 25.6689 1.16602 35.002 1.49902
s18.166 0.833008 26.499 1.5s17 1.5 26 2.5s20.5 2.5 34.5 4.5v-262c17.333 33.333 34.833 56.666 52.5 69.999s40.5 20 68.5 20c52.667 0 94.167 -21.667 124.5 -65s45.5 -102.666 45.5 -177.999c0 -89.333 -16.5 -157.166 -49.5 -203.499s-80.833 -69.5 -143.5 -69.5
c-17.333 0 -32.833 1.5 -46.5 4.5s-26.334 8.16699 -38.001 15.5s-23.167 17.333 -34.5 30s-23.333 28.667 -36 48l-34 -87h-31v667z" />
    <glyph glyph-name="c" unicode="c" horiz-adv-x="449" 
d="M428 190c0.666992 -5.33301 1 -10.166 1 -14.499v-12.5c0 -54.667 -15.667 -97.334 -47 -128.001s-75.333 -46 -132 -46c-47.333 0 -85.5 7.5 -114.5 22.5s-52.167 39.167 -69.5 72.5c-11.333 20.667 -19.833 44.334 -25.5 71.001s-8.5 54 -8.5 82
c0 48 7.16699 90.333 21.5 127s35.5 66.667 63.5 90c42 34 89.667 51 143 51c36 0 67.5 -8 94.5 -24s45.167 -38 54.5 -66c1.33301 -4 2.5 -7.83301 3.5 -11.5s1.83301 -7.5 2.5 -11.5s1.16699 -8.66699 1.5 -14s0.5 -12.333 0.5 -21v-10l-59 -27
c0.666992 8.66699 1 16.834 1 24.501v19.5c0 36 -7.16699 63.5 -21.5 82.5s-34.833 28.5 -61.5 28.5c-78 0 -117 -76 -117 -228c0 -41.333 2 -76.5 6 -105.5s10.333 -52.5 19 -70.5s20.167 -31.167 34.5 -39.5s31.5 -12.5 51.5 -12.5c32 0 58 12.167 78 36.5
s30 56.166 30 95.499c0 8 -0.333008 16.167 -1 24.5s-2 20.166 -4 35.499z" />
    <glyph glyph-name="d" unicode="d" 
d="M238 459c-28 0 -48.167 -16.834 -60.5 -50.501s-18.5 -88.5 -18.5 -164.5c0 -39.333 1.5 -72.333 4.5 -99s7.83301 -48.167 14.5 -64.5s15.334 -28.166 26.001 -35.499s24 -11 40 -11c18 0 33.667 6.66699 47 20s23 32 29 56c4.66699 18 7 63.667 7 137
c0 44 -1.33301 77.5 -4 100.5s-7.33398 41.833 -14.001 56.5c-16 36.667 -39.667 55 -71 55zM444 -0.000976562l-118.997 0.000976562v53c-9.33301 -12.667 -18.333 -23 -27 -31s-17.834 -14.5 -27.501 -19.5s-20.334 -8.5 -32.001 -10.5s-24.834 -3 -39.501 -3
c-53.333 0 -94.5 22.167 -123.5 66.5s-43.5 107.166 -43.5 188.499c0 98.667 21 169.667 63 213c32 32.667 68.333 49 109 49c29.333 0 53 -6.5 71 -19.5s34.667 -35.833 50 -68.5v249c14 0 25.333 0.166992 34 0.5s17 1 25 2s16.5 2.16699 25.5 3.5l34.5 5v-678z" />
    <glyph glyph-name="e" unicode="e" horiz-adv-x="462" 
d="M320 276c-1.33301 70.667 -7.83105 121.001 -19.498 151.001s-30.834 45 -57.501 45c-16.667 0 -31.667 -7.5 -45 -22.5s-22.333 -34.167 -27 -57.5c-1.33301 -7.33301 -2.5 -14.333 -3.5 -21s-2 -14.334 -3 -23.001s-1.83301 -18.667 -2.5 -30
s-1.33398 -25.333 -2.00098 -42h160zM432.002 159.001c-1.33301 -27.333 -4.16504 -49.3359 -8.49805 -66.0029s-11.5 -31.667 -21.5 -45c-14 -18.667 -33.833 -33.167 -59.5 -43.5s-55.167 -15.5 -88.5 -15.5c-70.667 0 -125.334 21.333 -164.001 64
s-58 102.334 -58 179.001c0 40.667 5.16699 77.834 15.5 111.501s24.666 62.5 42.999 86.5s40.5 42.5 66.5 55.5s55 19.5 87 19.5c42 0 77.333 -10.667 106 -32s49.667 -53 63 -95c5.33301 -16 9.16602 -35 11.499 -57s3.5 -49.667 3.5 -83h-268
c0.666992 -22 1.33398 -40.667 2.00098 -56s1.66699 -28.5 3 -39.5s2.83301 -20.667 4.5 -29s4.16699 -16.166 7.5 -23.499c16 -46.667 49.333 -70 100 -70c30 0 54.833 10.5 74.5 31.5s29.5 47.5 29.5 79.5c0 12.667 -1 27 -3 43z" />
    <glyph glyph-name="f" unicode="f" horiz-adv-x="273" 
d="M262 452l-72.999 0.000976562v-452h-121v452h-68v40h68v63c0 35.333 11 64.5 33 87.5s50 34.5 84 34.5c67.333 0 101 -31.333 101 -94v-15l-63 -23c2 10 3.5 18.167 4.5 24.5s1.5 12.166 1.5 17.499c0 14.667 -3.83301 27.667 -11.5 39s-16.5 17 -26.5 17
s-18.833 -5.5 -26.5 -16.5s-11.5 -23.5 -11.5 -37.5c0 -12 2.66699 -25.333 8 -40s14.666 -33.667 27.999 -57h73v-40z" />
    <glyph glyph-name="g" unicode="g" horiz-adv-x="490" 
d="M248 -9c-46 0 -81.832 -5.99902 -107.499 -17.999s-38.5 -29 -38.5 -51c0 -21.333 11.667 -38 35 -50s56.666 -18 99.999 -18c46.667 0 83.167 7.16699 109.5 21.5s39.5 34.166 39.5 59.499c0 20 -10.5 34.333 -31.5 43s-56.5 13 -106.5 13zM239.001 472.001
c-26 0 -45.166 -10.999 -57.499 -32.999s-18.5 -57 -18.5 -105c0 -44 5 -74.333 15 -91c6.66699 -10.667 15.667 -18.834 27 -24.501s23.666 -8.5 36.999 -8.5c26 0 44.833 9.5 56.5 28.5s17.5 49.833 17.5 92.5c0 50 -5.83301 86 -17.5 108s-31.5 33 -59.5 33z
M340.002 485.002c33.333 -17.333 58.665 -38.833 75.998 -64.5s26 -54.167 26 -85.5c0 -28 -7.66699 -53.5 -23 -76.5s-37.333 -42.167 -66 -57.5c-15.333 -8 -31.5 -14.167 -48.5 -18.5s-33.167 -6.5 -48.5 -6.5c-11.333 0 -24.333 1 -39 3s-31 4.66699 -49 8
c-32.667 -19.333 -49 -39 -49 -59c0 -10.667 4.5 -19 13.5 -25s21.167 -9 36.5 -9h17c8 0 15.667 0.333008 23 1c22 0.666992 42.167 1.16699 60.5 1.5s34.5 0.5 48.5 0.5c51.333 0 92.333 -11 123 -33s46 -51.333 46 -88c0 -30.667 -11.167 -58.167 -33.5 -82.5
s-53.166 -42.5 -92.499 -54.5c-16 -5.33301 -35.667 -9.33301 -59 -12s-48.666 -4 -75.999 -4c-57.333 0 -101 6.33301 -131 19c-21.333 9.33301 -37.833 20.833 -49.5 34.5s-17.5 28.167 -17.5 43.5c0 38.667 31.333 65.667 94 81c-34 5.33301 -58.667 13.833 -74 25.5
s-23 27.167 -23 46.5c0 23.333 8.16699 45.166 24.5 65.499s42.5 40.833 78.5 61.5c-28 11.333 -49.667 28.833 -65 52.5s-23 52.167 -23 85.5c0 52.667 22.667 95.667 68 129c17.333 12 36 21.333 56 28s39.667 10 59 10c10.667 0 23.167 -0.833008 37.5 -2.5
s30.166 -4.16699 47.499 -7.5c-1.33301 5.33301 -2 9.66602 -2 12.999v11c0 25.333 8 46.333 24 63s36 25 60 25c16.667 0 30.5 -4.66699 41.5 -14s16.5 -20.666 16.5 -33.999c0 -11.333 -4 -21.166 -12 -29.499s-17.333 -12.5 -28 -12.5
c-9.33301 0 -18.666 2.33301 -27.999 7c-8 2.66699 -13.333 4 -16 4c-16 0 -24 -11.667 -24 -35v-8z" />
    <glyph glyph-name="h" unicode="h" horiz-adv-x="517" 
d="M56 667c14 0 25.5 0.167969 34.5 0.500977s17.5 0.833008 25.5 1.5s16.5 1.66699 25.5 3l34.5 5v-291c10.667 21.333 20 37.5 28 48.5s17.667 21.167 29 30.5c32 26 67.667 39 107 39c36.667 0 65.667 -9.83301 87 -29.5s32 -46.167 32 -79.5v-395h-119v385
c0 19.333 -3.66699 33.666 -11 42.999c-10.667 12 -23 18 -37 18c-32.667 0 -61 -22.333 -85 -67c-9.33301 -17.333 -16.833 -35.5 -22.5 -54.5s-8.5 -35.167 -8.5 -48.5v-276h-120v667z" />
    <glyph glyph-name="i" unicode="i" horiz-adv-x="240" 
d="M59 491c14 0 25.5 0.166992 34.5 0.5s17.667 1 26 2s17 2.33301 26 4l34.5 6.5v-504h-121v491zM120 666c19.333 0 34.5 -4.83301 45.5 -14.5s16.5 -22.167 16.5 -37.5c0 -16 -5.66699 -28.667 -17 -38s-26.666 -14 -45.999 -14s-34.5 4.66699 -45.5 14s-16.5 22 -16.5 38
s5.66699 28.667 17 38s26.666 14 45.999 14z" />
    <glyph glyph-name="j" unicode="j" horiz-adv-x="240" 
d="M122 666c19.333 0 34.5 -4.83301 45.5 -14.5s16.5 -22.167 16.5 -37.5c0 -16 -5.66699 -28.667 -17 -38s-26.666 -14 -45.999 -14s-34.5 4.66699 -45.5 14s-16.5 22 -16.5 38s5.66699 28.667 17 38s26.666 14 45.999 14zM20 -69l-0.000976562 -20
c0 -3.33301 0.333008 -7 1 -11c1.33301 -12 5.33301 -22.333 12 -31s14.334 -13 23.001 -13c10.667 0 19.667 5 27 15s11 21.667 11 35c0 12 -2.5 25 -7.5 39s-13.167 32.333 -24.5 55v491c14 0.666992 25.667 1.16699 35 1.5s18 1 26 2s16.5 2.33301 25.5 4l34.5 6.5v-502
c0 -5.33301 0.333008 -11.333 1 -18s1.66699 -14.667 3 -24c1.33301 -8 2.33301 -15.833 3 -23.5s1 -14.167 1 -19.5c0 -30 -10.167 -53.833 -30.5 -71.5s-47.833 -26.5 -82.5 -26.5c-54 0 -90 25.667 -108 77z" />
    <glyph glyph-name="k" unicode="k" horiz-adv-x="461" 
d="M307 342l151 -342h-129l-107 242l-45 -57v-185h-121v667c14 0 25.5 0.166992 34.5 0.5s17.667 1 26 2s17 2.16699 26 3.5l34.5 5v-434l199 248h49z" />
    <glyph glyph-name="l" unicode="l" horiz-adv-x="232" 
d="M175 0h-119v667c14 0.666992 25.333 1.16699 34 1.5s17 0.833008 25 1.5s16.5 1.5 25.5 2.5s20.5 2.5 34.5 4.5v-677z" />
    <glyph glyph-name="m" unicode="m" horiz-adv-x="754" 
d="M576 0l0.00195312 384c0 23.333 -3.5 40 -10.5 50s-18.5 15 -34.5 15c-13.333 0 -25.833 -4 -37.5 -12s-21.834 -18.833 -30.501 -32.5s-15.5 -29.667 -20.5 -48s-7.5 -38.166 -7.5 -59.499v-297h-120v384c0 23.333 -3.33301 39.833 -10 49.5s-17.667 14.5 -33 14.5
c-13.333 0 -25.666 -3.83301 -36.999 -11.5s-21.333 -18.334 -30 -32.001s-15.334 -29.834 -20.001 -48.501s-7 -38.667 -7 -60v-296h-121v493c14 0 25.667 0.166992 35 0.5s18 0.833008 26 1.5s16.5 1.83398 25.5 3.50098l34.5 6.5v-94
c23.333 33.333 46.666 57.333 69.999 72s50.333 22 81 22c14.667 0 27.5 -1.5 38.5 -4.5s20.667 -8.16699 29 -15.5s15.5 -16.833 21.5 -28.5s11.667 -26.167 17 -43.5c21.333 32 44 55.5 68 70.5s51.667 22.5 83 22.5c34 0 60.833 -10.333 80.5 -31s29.5 -49 29.5 -85v-390
h-120z" />
    <glyph glyph-name="n" unicode="n" horiz-adv-x="518" 
d="M342 0l0.00195312 377.999c0 25.333 -4 43.333 -12 54s-21.667 16 -41 16c-29.333 0 -55 -16.333 -77 -49c-10 -15.333 -18.333 -32.166 -25 -50.499s-10 -34.833 -10 -49.5v-299h-120v493c14 0 25.5 0.166992 34.5 0.5s17.5 1 25.5 2s16.5 2.16699 25.5 3.5
s20.5 3.33301 34.5 6v-107c13.333 19.333 24.166 34 32.499 44s18.166 19 29.499 27c32.667 23.333 67.667 35 105 35c36 0 64.333 -10.5 85 -31.5s31 -49.5 31 -85.5v-387h-118z" />
    <glyph glyph-name="o" unicode="o" horiz-adv-x="485" 
d="M241 476c-13.333 0 -25.832 -5.33301 -37.499 -16s-20.167 -24.667 -25.5 -42c-6.66699 -20 -11.334 -43.5 -14.001 -70.5s-4 -60.5 -4 -100.5c0 -80.667 6.5 -139 19.5 -175s34.167 -54 63.5 -54c28.667 0 49.5 18 62.5 54s19.5 93.333 19.5 172
c0 82.667 -6.5 142 -19.5 178s-34.5 54 -64.5 54zM245.001 505c66.667 0 118 -22.501 154 -67.501s54 -108.5 54 -190.5c0 -83.333 -18.167 -147.166 -54.5 -191.499s-88.5 -66.5 -156.5 -66.5c-66.667 0 -118.334 22.333 -155.001 67s-55 108 -55 190
c0 84 18.333 148.167 55 192.5s89.334 66.5 158.001 66.5z" />
    <glyph glyph-name="p" unicode="p" horiz-adv-x="505" 
d="M264 456c-12 0 -23.9971 -4.83594 -35.9971 -14.5029s-21.667 -22.167 -29 -37.5c-4.66699 -10 -8.5 -20 -11.5 -30s-5.33301 -21.667 -7 -35s-2.83398 -29.333 -3.50098 -48s-1 -41.334 -1 -68.001c0 -21.333 0.333008 -39.666 1 -54.999s1.66699 -28.666 3 -39.999
s3.16602 -21 5.49902 -29s5.16602 -15.333 8.49902 -22c14.667 -30.667 36.667 -46 66 -46c16 0 29.5 3.83301 40.5 11.5s19.833 20.334 26.5 38.001s11.5 41 14.5 70s4.5 64.833 4.5 107.5c0 68.667 -6.5 118.834 -19.5 150.501s-33.833 47.5 -62.5 47.5zM56.0029 491.997
c14 0 25.6689 0.166016 35.002 0.499023s18 1 26 2s16.5 2.33301 25.5 4l34.5 6.5v-96c9.33301 17.333 17.166 30.5 23.499 39.5s14.166 17.167 23.499 24.5c26.667 20.667 54.667 31 84 31c26 0 50.5 -7.66699 73.5 -23s41.833 -36.666 56.5 -63.999
c10.667 -19.333 19 -44.5 25 -75.5s9 -63.833 9 -98.5c0 -80 -15.167 -142.667 -45.5 -188s-72.5 -68 -126.5 -68c-14.667 0 -27.5 1 -38.5 3s-21.167 5.5 -30.5 10.5s-18.333 11.667 -27 20s-17.667 18.833 -27 31.5v-219h-121v659z" />
    <glyph glyph-name="q" unicode="q" 
d="M240 455c-29.333 0 -50.334 -14.6689 -63.001 -44.002s-19 -78 -19 -146c0 -43.333 1.33301 -79.666 4 -108.999s7.16699 -53.166 13.5 -71.499s14.5 -31.5 24.5 -39.5s22.333 -12 37 -12c16.667 0 32 6.33301 46 19s24.667 29.667 32 51c4 12.667 7.33301 34.5 10 65.5
s4 65.5 4 103.5c0 37.333 -1.66699 66.833 -5 88.5s-8.66602 39.167 -15.999 52.5c-17.333 28 -40 42 -68 42zM445.999 -167.002l-120.001 -0.000976562v238c-20 -30.667 -39.5 -52 -58.5 -64s-42.167 -18 -69.5 -18s-52.666 7.33301 -75.999 22s-42.666 34.667 -57.999 60
c-10 17.333 -17.833 40.833 -23.5 70.5s-8.5 61.834 -8.5 96.501c0 51.333 6 95.5 18 132.5s29.667 66.167 53 87.5c34.667 31.333 74 47 118 47c16.667 0 32 -1.66699 46 -5s27.333 -9 40 -17s25.167 -18.5 37.5 -31.5s25.166 -29.167 38.499 -48.5l34 89h29v-659z" />
    <glyph glyph-name="r" unicode="r" horiz-adv-x="371" 
d="M260 329l4.49902 18.001l5.5 21c5.33301 20 8 36.667 8 50c0 8 -2.66699 14.833 -8 20.5s-12 8.5 -20 8.5c-9.33301 0 -17.833 -3.5 -25.5 -10.5s-15.167 -18.833 -22.5 -35.5c-7.33301 -15.333 -13.166 -33 -17.499 -53s-6.5 -37.333 -6.5 -52v-296h-121v492
c16.667 0 29.667 0.166992 39 0.5s17.833 1 25.5 2s15.5 2.16699 23.5 3.5s19 3.66602 33 6.99902v-105c8 18.667 15 33 21 43s13.333 19 22 27c24 22.667 48.667 34 74 34c21.333 0 38.5 -7.16699 51.5 -21.5s19.5 -32.833 19.5 -55.5c0 -14 -1.16699 -27.667 -3.5 -41
s-6.83301 -32.333 -13.5 -57h-89z" />
    <glyph glyph-name="s" unicode="s" horiz-adv-x="426" 
d="M319 349c0.666992 5.33301 1 9.66992 1 13.0029v9c0 30 -9.16699 54.5 -27.5 73.5s-42.166 28.5 -71.499 28.5c-23.333 0 -43.333 -7.16699 -60 -21.5s-25 -31.5 -25 -51.5c0 -20.667 9 -38.667 27 -54s50 -32.333 96 -51l42.5 -19
c11.667 -5.33301 21.667 -10.5 30 -15.5s15.5 -10.167 21.5 -15.5s11.667 -11 17 -17c20 -26 30 -54.667 30 -86c0 -28 -7.16699 -54 -21.5 -78s-34.166 -42.333 -59.499 -55c-12.667 -6.66699 -27.667 -11.667 -45 -15s-35.666 -5 -54.999 -5c-68 0 -119 18.667 -153 56
c-14 14.667 -23.667 30.167 -29 46.5s-8.33301 38.166 -9 65.499l66 14l-3.5 -21.5c-1 -6.33301 -1.5 -12.166 -1.5 -17.499c0 -15.333 3.16699 -29.666 9.5 -42.999s15 -25 26 -35s23.833 -17.833 38.5 -23.5s30 -8.5 46 -8.5c25.333 0 46 7 62 21s24 32 24 54
c0 10 -1.5 19 -4.5 27s-8.5 15.5 -16.5 22.5s-19 14.167 -33 21.5s-31.667 15.333 -53 24c-52 21.333 -90.167 45.166 -114.5 71.499s-36.5 56.833 -36.5 91.5c0 21.333 4.66699 41.166 14 59.499s22.166 34.166 38.499 47.499s35.833 23.666 58.5 30.999s47.667 11 75 11
c55.333 0 97.333 -16.667 126 -50c11.333 -12.667 19.166 -25.667 23.499 -39s7.16602 -31 8.49902 -53z" />
    <glyph glyph-name="t" unicode="t" horiz-adv-x="275" 
d="M251 451l-65.002 0.000976562v-374c0 -27.333 8 -41 24 -41c12 0 18.667 9 20 27l34 -2c-3.33301 -15.333 -7.16602 -26.5 -11.499 -33.5s-11.166 -13.167 -20.499 -18.5c-8 -4.66699 -17.5 -8.33398 -28.5 -11.001s-22.5 -4 -34.5 -4c-34 0 -59.833 8.16699 -77.5 24.5
s-26.5 39.5 -26.5 69.5v363h-50v40h50v85l36 11.5c9.33301 3 18 6.33301 26 10s16.5 8.16699 25.5 13.5l33.5 20v-140h65v-40z" />
    <glyph glyph-name="u" unicode="u" horiz-adv-x="519" 
d="M461 0l-120 -0.00292969v92c-12 -19.333 -23.5 -35.5 -34.5 -48.5s-22.833 -23.5 -35.5 -31.5s-26.167 -13.667 -40.5 -17s-30.833 -5 -49.5 -5c-41.333 0 -73 10.333 -95 31c-10 9.33301 -17.333 21.833 -22 37.5s-7 35.834 -7 60.501v373
c14 0.666992 25.5 1.5 34.5 2.5s17.5 1.83301 25.5 2.5s16.5 1.5 25.5 2.5s20.5 2.5 34.5 4.5v-388c0 -28 3.83301 -47.333 11.5 -58s21.5 -16 41.5 -16c16 0 30.833 4.33301 44.5 13s25.5 21 35.5 37s17.667 35 23 57s8 46.333 8 73v270
c14 0.666992 25.5 1.33398 34.5 2.00098s17.5 1.33398 25.5 2.00098s16.5 1.66699 25.5 3l34.5 5v-504z" />
    <glyph glyph-name="v" unicode="v" horiz-adv-x="393" 
d="M243 0h-84l-162 492h128l117 -376l115 376h41z" />
    <glyph glyph-name="w" unicode="w" horiz-adv-x="632" 
d="M490 0h-83l-90 344l-91 -344h-84l-145 492h126l98 -357l92 357h89l92 -357l102 357h41z" />
    <glyph glyph-name="x" unicode="x" horiz-adv-x="449" 
d="M272 285l176 -285h-139l-122 192l-137 -192h-49l165 229l-162 263h140l107 -170l121 170h50z" />
    <glyph glyph-name="y" unicode="y" horiz-adv-x="419" 
d="M204 -75c-14 -38 -29.5 -64.666 -46.5 -79.999s-38.167 -23 -63.5 -23c-23.333 0 -41.166 4.33301 -53.499 13s-22.5 23.667 -30.5 45l46 33c5.33301 -35.333 19.666 -53 42.999 -53c11.333 0 22.5 5.66699 33.5 17s20.167 26.666 27.5 45.999l20 58l-183 511h130
l119 -353l133 353h45z" />
    <glyph glyph-name="z" unicode="z" horiz-adv-x="397" 
d="M382 451l-238 -408h238v-43h-368v49l238 402h-216v41h346v-41z" />
    <glyph glyph-name="braceleft" unicode="{" horiz-adv-x="289" 
d="M163 372c0 -32 -4 -56.333 -12 -73s-23 -32 -45 -46c10.667 -7.33301 19.667 -14.666 27 -21.999s13.333 -15.5 18 -24.5s7.83398 -19.5 9.50098 -31.5s2.5 -26 2.5 -42v-181c0 -17.333 1.33301 -31.333 4 -42s7.5 -19 14.5 -25s16.833 -10.167 29.5 -12.5
s29 -3.5 49 -3.5v-31h-37c-29.333 0 -54 2.33301 -74 7s-36.333 12.5 -49 23.5s-21.667 25.333 -27 43s-8 39.5 -8 65.5v174c0 25.333 -4.33301 44.5 -13 57.5s-23 22.167 -43 27.5v33c20 5.33301 34.333 14.5 43 27.5s13 32.167 13 57.5v175c0 53.333 14 90.666 42 111.999
c7.33301 6 14.666 10.667 21.999 14s16.333 5.83301 27 7.5s24.167 2.83398 40.5 3.50098s37.5 1 63.5 1v-31c-20 0 -36.333 -1.16699 -49 -3.5s-22.5 -6.5 -29.5 -12.5s-11.833 -14.333 -14.5 -25s-4 -24.334 -4 -41.001v-182z" />
    <glyph glyph-name="bar" unicode="|" 
d="M316 667v-834h-133v834h133z" />
    <glyph glyph-name="braceright" unicode="}" horiz-adv-x="289" 
d="M126 133c0 16 0.833008 30 2.5 42s4.83398 22.5 9.50098 31.5s10.5 17.167 17.5 24.5s16.167 14.666 27.5 21.999c-22 14 -37 29.333 -45 46s-12 41 -12 73v182c0 16.667 -1.33301 30.334 -4 41.001s-7.5 19 -14.5 25s-16.833 10.167 -29.5 12.5s-29 3.5 -49 3.5v31
c26 0 47.167 -0.333008 63.5 -1s29.833 -1.83398 40.5 -3.50098s19.667 -4.16699 27 -7.5s14.666 -8 21.999 -14c28 -21.333 42 -58.666 42 -111.999v-175c0 -25.333 4.33301 -44.5 13 -57.5s23 -22.167 43 -27.5v-33c-20 -5.33301 -34.333 -14.5 -43 -27.5
s-13 -32.167 -13 -57.5v-174c0 -26 -2.66699 -47.833 -8 -65.5s-14.333 -32 -27 -43s-29 -18.833 -49 -23.5s-44.667 -7 -74 -7h-37v31c20 0 36.333 1.16699 49 3.5s22.5 6.5 29.5 12.5s11.833 14.333 14.5 25s4 24.667 4 42v181z" />
    <glyph glyph-name="asciitilde" unicode="~" horiz-adv-x="667" 
d="M93 613c36 87.333 84.667 131.002 146 131.002c12.667 0 27.667 -2.66699 45 -8s40 -14.333 68 -27l32.5 -14.5c8.33301 -3.66699 15.333 -6.33398 21 -8.00098s10.5 -2.83398 14.5 -3.50098s8.33301 -1 13 -1c15.333 0 28.833 5 40.5 15s23.834 26.333 36.501 49l65 -54
c-19.333 -46 -40.833 -78.833 -64.5 -98.5s-53.834 -29.5 -90.501 -29.5c-6.66699 0 -12.667 0.333008 -18 1s-11.666 2.16699 -18.999 4.5s-16.833 6 -28.5 11l-45.5 20.5c-18.667 8.66699 -33.834 14.667 -45.501 18s-22.167 5 -31.5 5c-13.333 0 -25.833 -5 -37.5 -15
s-23.5 -26.667 -35.5 -50z" />
    <glyph glyph-name="nonbreakingspace" unicode="&#xa0;" horiz-adv-x="300" 
 />
    <glyph glyph-name="exclamdown" unicode="&#xa1;" horiz-adv-x="322" 
d="M162 505c18 0 33.335 -6.49902 46.002 -19.499s19 -28.5 19 -46.5c0 -18.667 -6.33301 -34.334 -19 -47.001s-28.334 -19 -47.001 -19s-34.334 6.5 -47.001 19.5s-19 28.833 -19 47.5c0 18 6.5 33.333 19.5 46s28.833 19 47.5 19zM232.002 -106.999l-0.000976562 -8
c0 -22.667 -5.66699 -39 -17 -49s-29.666 -15 -54.999 -15c-47.333 0 -71 18.667 -71 56v7c0 2.66699 0.333008 5.66699 1 9l45 398h51z" />
    <glyph glyph-name="cent" unicode="&#xa2;" horiz-adv-x="565" 
d="M297 562c-31.333 -12 -54.002 -36.667 -68.002 -74s-21 -90.666 -21 -159.999c0 -42 2.83301 -78.333 8.5 -109s14.167 -54.334 25.5 -71.001c6.66699 -10 13.834 -17.5 21.501 -22.5s18.834 -9.16699 33.501 -12.5v449zM323.998 110c33.333 1.33301 59 13.498 77 36.498
s27 54.833 27 95.5c0 9.33301 -0.333008 18.333 -1 27s-1.66699 19.667 -3 33l54 -21c0.666992 -7.33301 1.16699 -13.5 1.5 -18.5s0.5 -9.16699 0.5 -12.5c0 -49.333 -14 -89.166 -42 -119.499s-66 -47.166 -114 -50.499v-72h-27v72c-32 1.33301 -59 5.33301 -81 12
s-41.667 16.667 -59 30c-23.333 18 -41.5 44.667 -54.5 80s-19.5 76.333 -19.5 123c0 82.667 18 146.834 54 192.501s89.333 72.167 160 79.5v60h27v-60c46 -3.33301 81.5 -17 106.5 -41s37.5 -56.333 37.5 -97v-9c0 -4 -0.333008 -7.66699 -1 -11l-58 -27
c0.666992 15.333 1 25.666 1 30.999v16c0 70 -28.667 105.667 -86 107v-456z" />
    <glyph glyph-name="sterling" unicode="&#xa3;" horiz-adv-x="554" 
d="M199 81c-14.667 8.66699 -26.168 14.5 -34.501 17.5s-17.166 4.5 -26.499 4.5c-12.667 0 -23.5 -4.33301 -32.5 -13s-13.5 -18.667 -13.5 -30c0 -10 3.66699 -18.667 11 -26s16 -11 26 -11c15.333 0 28.5 4.5 39.5 13.5s21.167 23.833 30.5 44.5zM418.999 285
l-142.002 -0.00195312c1.33301 -11.333 2 -20.333 2 -27v-21c0 -21.333 -1.33301 -40.5 -4 -57.5s-7.66699 -37.167 -15 -60.5l21 -8l37 -14.5c9.33301 -3.66699 17 -6.33398 23 -8.00098s11.333 -2.66699 16 -3s10.334 -0.5 17.001 -0.5c28 0 48.833 5.83301 62.5 17.5
s24.834 33.167 33.501 64.5l31 -20c-3.33301 -24 -7 -42.667 -11 -56s-9.66699 -26 -17 -38c-12 -20.667 -27 -36.5 -45 -47.5s-37.667 -16.5 -59 -16.5c-20 0 -40.667 5.16699 -62 15.5s-46.666 27.5 -75.999 51.5c-16.667 -24.667 -33 -42 -49 -52s-35.333 -15 -58 -15
s-41.167 7 -55.5 21s-21.5 32 -21.5 54c0 24 9 44 27 60s41 24 69 24c10.667 0 20 -1.16699 28 -3.5s18.667 -6.5 32 -12.5c0.666992 30 -1.83301 57.167 -7.5 81.5s-14.167 48.166 -25.5 71.499h-96v40h78c-8 18.667 -14.5 35.334 -19.5 50.001s-9 28.167 -12 40.5
s-5.16699 23.833 -6.5 34.5s-2 21.667 -2 33c0 28 5.16699 54 15.5 78s24.5 44.5 42.5 61.5s39.5 30.333 64.5 40s52.5 14.5 82.5 14.5c59.333 0 101.666 -19.667 126.999 -59c14.667 -23.333 22 -46.333 22 -69c0 -12 -2 -28 -6 -48l-62 -22
c4.66699 16.667 7.83398 29.834 9.50098 39.501s2.5 18.834 2.5 27.501c0 28.667 -8.33301 52.334 -25 71.001s-37.667 28 -63 28c-27.333 0 -50 -10 -68 -30s-27 -45.333 -27 -76c0 -12 0.5 -23.333 1.5 -34s3.16699 -23.5 6.5 -38.5s8.16602 -33.667 14.499 -56
l24.5 -85.5h145v-40z" />
    <glyph glyph-name="currency" unicode="&#xa4;" horiz-adv-x="707" 
d="M352 473c-18 0 -34.8311 -3.5 -50.498 -10.5s-29.334 -16.5 -41.001 -28.5s-20.834 -26 -27.501 -42s-10 -33 -10 -51s3.33301 -35 10 -51s16 -30 28 -42s25.833 -21.5 41.5 -28.5s32.5 -10.5 50.5 -10.5s35 3.5 51 10.5s29.833 16.5 41.5 28.5s21 26 28 42
s10.5 33 10.5 51c0 18.667 -3.33301 36 -10 52s-16 30 -28 42s-26 21.333 -42 28s-33.333 10 -52 10zM147.002 207c-26.667 42 -40 86.333 -40 133c0 22.667 3.16699 44 9.5 64s17.5 43.667 33.5 71l-101 100l69 69l102 -102l39 20.5c11.333 5.66699 22.166 10 32.499 13
s20.333 5.16699 30 6.5s20.5 2 32.5 2s22.833 -0.666992 32.5 -2s19.334 -3.5 29.001 -6.5s20.167 -7.16699 31.5 -12.5s24.333 -12 39 -20l101 100l69 -68l-99 -99c15.333 -24.667 26.333 -47.667 33 -69s10 -44 10 -68c0 -11.333 -0.666992 -22 -2 -32
s-3.5 -20.167 -6.5 -30.5s-7.16699 -21 -12.5 -32l-19 -37.5l99 -98l-68 -69l-99 98c-43.333 -29.333 -87.333 -44 -132 -44c-23.333 0 -46.5 3.5 -69.5 10.5s-47.833 17.833 -74.5 32.5l-98 -97l-68 68z" />
    <glyph glyph-name="yen" unicode="&#xa5;" horiz-adv-x="466" 
d="M450 356v-40h-108l-22 -60h130v-40h-134v-216h-134v216h-135v40h131l-27 60h-104v40h86l-139 311h141l156 -349l130 349h54l-118 -311h93z" />
    <glyph glyph-name="brokenbar" unicode="&#xa6;" 
d="M316 153v-320h-133v320h133zM316 667v-348h-133v348h133z" />
    <glyph glyph-name="section" unicode="&#xa7;" horiz-adv-x="554" 
d="M398 187c18 20 27.001 41 27.001 63c0 17.333 -11 33.333 -33 48c-4.66699 2.66699 -13.834 7.33398 -27.501 14.001s-29 13.5 -46 20.5l-51.5 21c-17.333 7 -32 12.5 -44 16.5c-10 3.33301 -18.167 6.16602 -24.5 8.49902s-11.833 4.5 -16.5 6.5s-8.66699 4 -12 6
s-7 4.66699 -11 8c-19.333 -22 -29 -43 -29 -63c0 -22 20 -43.333 60 -64c2.66699 -1.33301 21.167 -9 55.5 -23zM399.001 522c1.33301 7.33301 2.16895 12.9951 2.50195 16.9951s0.5 8.66699 0.5 14c0 30 -9.83301 52.667 -29.5 68s-48.5 23 -86.5 23
c-31.333 0 -57.333 -8.33301 -78 -25s-31 -37.667 -31 -63c0 -9.33301 1.83301 -18.5 5.5 -27.5s8.5 -16.5 14.5 -22.5c7.33301 -6 16 -11.667 26 -17s26.333 -12.333 49 -21l79 -31.5l50 -20.5c12.667 -5.33301 22.5 -10 29.5 -14s13.167 -8 18.5 -12
c27.333 -20.667 41 -49 41 -85c0 -49.333 -21.667 -94.666 -65 -135.999c18.667 -17.333 31.5 -33.666 38.5 -48.999s10.5 -34 10.5 -56c0 -27.333 -5.16699 -52.666 -15.5 -75.999s-24.833 -43.5 -43.5 -60.5s-40.667 -30.167 -66 -39.5s-53 -14 -83 -14
c-60.667 0 -107 15.167 -139 45.5s-48 74.5 -48 132.5l65 27c-2.66699 -11.333 -4.33398 -20.5 -5.00098 -27.5s-1 -14.833 -1 -23.5c0 -36.667 11 -64.667 33 -84s53.667 -29 95 -29c37.333 0 68 9.5 92 28.5s36 43.5 36 73.5c0 22.667 -8 41.667 -24 57s-42 29 -78 41
c-26 8.66699 -48.333 16.5 -67 23.5s-34.834 13.333 -48.501 19s-25.5 11.167 -35.5 16.5s-19.333 11 -28 17c-30.667 20.667 -46 51.667 -46 93c0 25.333 5.33301 48.333 16 69s28 42.334 52 65.001c-25.333 24.667 -38 56.667 -38 96c0 24.667 4.5 47.334 13.5 68.001
s21.833 38.5 38.5 53.5s36.5 26.667 59.5 35s48.167 12.5 75.5 12.5c33.333 0 63 -5 89 -15s46 -23.667 60 -41c8.66699 -10 15 -21 19 -33s6.66699 -28 8 -48z" />
    <glyph glyph-name="dieresis" unicode="&#xa8;" 
d="M354 666c18 0 32.5 -4.83301 43.5 -14.5s16.5 -22.167 16.5 -37.5c0 -16 -5.5 -28.667 -16.5 -38s-25.833 -14 -44.5 -14s-33.5 4.66699 -44.5 14s-16.5 22 -16.5 38s5.5 28.667 16.5 38s26.167 14 45.5 14zM149 666c18 0 32.5 -4.83301 43.5 -14.5
s16.5 -22.167 16.5 -37.5c0 -16 -5.5 -28.667 -16.5 -38s-25.833 -14 -44.5 -14s-33.5 4.66699 -44.5 14s-16.5 22 -16.5 38s5.5 28.667 16.5 38s26.167 14 45.5 14z" />
    <glyph glyph-name="copyright" unicode="&#xa9;" horiz-adv-x="771" 
d="M538 282c1.33301 -6.66699 1.99805 -11.666 1.99805 -14.999v-10c0 -18.667 -4.5 -37.334 -13.5 -56.001s-21.167 -34.334 -36.5 -47.001c-22.667 -18.667 -55.667 -28 -99 -28c-52 0 -92.667 17.667 -122 53s-44 84.666 -44 147.999c0 32.667 4.33301 62.334 13 89.001
s20.834 49.667 36.501 69s34.5 34.333 56.5 45s46.333 16 73 16c30.667 0 56.5 -7.33301 77.5 -22s35.167 -35 42.5 -61c1.33301 -5.33301 2.16602 -10.5 2.49902 -15.5s0.833008 -13.167 1.5 -24.5l-43 -21c0.666992 7.33301 1 12.833 1 16.5v10.5
c0 25.333 -7.16699 45.833 -21.5 61.5s-33.166 23.5 -56.499 23.5c-60.667 0 -91 -60.667 -91 -182c0 -59.333 7.83301 -103 23.5 -131s40.167 -42 73.5 -42c24 0 44 9.33301 60 28s24 42.334 24 71.001c0 4.66699 -0.166992 9.5 -0.5 14.5s-1.16602 12.167 -2.49902 21.5z
M382.998 640.001c-40.667 0 -78.9971 -8.16699 -114.997 -24.5s-67.5 -38.333 -94.5 -66s-48.333 -60 -64 -97s-23.5 -76.5 -23.5 -118.5s7.83301 -81.667 23.5 -119s37.167 -70 64.5 -98s59.166 -50 95.499 -66s75.166 -24 116.499 -24s80.166 8 116.499 24
s68 37.833 95 65.5s48.333 60.167 64 97.5s23.5 77 23.5 119c0 42.667 -7.83301 82.667 -23.5 120s-37 69.833 -64 97.5s-59 49.5 -96 65.5s-76.5 24 -118.5 24zM391.001 680.001c46.667 0 90.498 -9.16699 131.498 -27.5s77 -43.333 108 -75s55.5 -68.5 73.5 -110.5
s27 -86.667 27 -134c0 -48 -9 -93 -27 -135s-42.667 -78.667 -74 -110s-67.833 -56 -109.5 -74s-86.5 -27 -134.5 -27c-47.333 0 -92 9 -134 27s-78.667 42.667 -110 74s-56.166 68 -74.499 110s-27.5 87 -27.5 135c0 48.667 9 94 27 136s42.833 78.667 74.5 110
s68.834 56 111.501 74s88.667 27 138 27z" />
    <glyph glyph-name="ordfeminine" unicode="&#xaa;" horiz-adv-x="288" 
d="M175 550c-5.33301 -4.66699 -9.33398 -7.83301 -12.001 -9.5l-12 -7.5c-11.333 -5.33301 -20.666 -10.5 -27.999 -15.5s-13 -10.5 -17 -16.5s-6.66699 -12.833 -8 -20.5s-2 -17.167 -2 -28.5c0 -39.333 10.667 -59 32 -59c13.333 0 24.5 6.83301 33.5 20.5
s13.5 30.5 13.5 50.5v86zM301.999 374.001c-8 -2.66699 -14.666 -4.66699 -19.999 -6s-10 -2.33301 -14 -3s-8 -1.16699 -12 -1.5s-8.33301 -0.5 -13 -0.5c-36.667 0 -57.667 12.333 -63 37c-16.667 -26 -41.667 -39 -75 -39c-28 0 -50 8 -66 24s-24 38 -24 66
c0 25.333 6.16699 45 18.5 59s34.166 25.667 65.499 35c16 4.66699 29 9.16699 39 13.5s17.833 8.5 23.5 12.5s9.5 8.5 11.5 13.5s3 11.167 3 18.5c0 33.333 -16.667 50 -50 50c-15.333 0 -28.166 -4.5 -38.499 -13.5s-15.5 -20.167 -15.5 -33.5
c0 -5.33301 0.666992 -10.5 2 -15.5s4 -13.167 8 -24.5l-47 10c-1.33301 7.33301 -2.16602 12.666 -2.49902 15.999s-0.5 6.66602 -0.5 9.99902c0 22.667 10.5 40.834 31.5 54.501s48.5 20.5 82.5 20.5c33.333 0 59.666 -6.16699 78.999 -18.5s29 -29.166 29 -50.499v-182
c0 -20.667 6.33301 -31 19 -31c3.33301 0 6.16602 0.333008 8.49902 1s6.5 2 12.5 4z" />
    <glyph glyph-name="guillemotleft" unicode="&#xab;" horiz-adv-x="395" 
d="M147 70l-104 172v31l104 172h66l-89 -187l89 -188h-66zM275 70l-104 172v31l104 172h66l-89 -187l89 -188h-66z" />
    <glyph glyph-name="logicalnot" unicode="&#xac;" 
d="M337 171h-304v116h433v-287h-129v171z" />
    <glyph glyph-name="sfthyphen" unicode="&#xad;" horiz-adv-x="229" 
d="M221 211h-213v92h213v-92z" />
    <glyph glyph-name="registered" unicode="&#xae;" horiz-adv-x="771" 
d="M363 357c55.333 0 83 24.667 83 74s-27.667 74 -83 74h-34v-148h34zM241 540l140.999 -0.00195312c46 0 82.667 -9.5 110 -28.5s41 -44.5 41 -76.5c0 -24 -7.66699 -44.667 -23 -62s-36.333 -29.333 -63 -36c24.667 -7.33301 42.334 -17.5 53.001 -30.5
s16.667 -31.167 18 -54.5c2 -24 3.5 -42.667 4.5 -56s2.33301 -23.666 4 -30.999s3.83398 -13.166 6.50098 -17.499s6.33398 -9.16602 11.001 -14.499h-98c-2 4.66699 -3.83301 8.66699 -5.5 12s-3 7.33301 -4 12s-1.66699 10.167 -2 16.5s-0.833008 14.5 -1.5 24.5
c-0.666992 20 -1.33398 36.333 -2.00098 49s-1.66699 23 -3 31s-2.83301 14.167 -4.5 18.5s-3.83398 8.16602 -6.50098 11.499c-10 11.333 -28.667 17 -56 17h-32v-192h-88v407zM382.999 639.998c-40.667 0 -78.9971 -8.16699 -114.997 -24.5s-67.5 -38.333 -94.5 -66
s-48.333 -60 -64 -97s-23.5 -76.5 -23.5 -118.5s7.83301 -81.667 23.5 -119s37.167 -70 64.5 -98s59.166 -50 95.499 -66s75.166 -24 116.499 -24s80.166 8 116.499 24s68 37.833 95 65.5s48.333 60.167 64 97.5s23.5 77 23.5 119c0 42.667 -7.83301 82.667 -23.5 120
s-37 69.833 -64 97.5s-59 49.5 -96 65.5s-76.5 24 -118.5 24zM391.002 679.998c46.667 0 90.498 -9.16699 131.498 -27.5s77 -43.333 108 -75s55.5 -68.5 73.5 -110.5s27 -86.667 27 -134c0 -48 -9 -93 -27 -135s-42.667 -78.667 -74 -110s-67.833 -56 -109.5 -74
s-86.5 -27 -134.5 -27c-47.333 0 -92 9 -134 27s-78.667 42.667 -110 74s-56.166 68 -74.499 110s-27.5 87 -27.5 135c0 48.667 9 94 27 136s42.833 78.667 74.5 110s68.834 56 111.501 74s88.667 27 138 27z" />
    <glyph glyph-name="macron" unicode="&#xaf;" 
d="M398 582h-297v58h297v-58z" />
    <glyph glyph-name="macron" unicode="&#x2c9;" 
d="M398 582h-297v58h297v-58z" />
    <glyph glyph-name="degree" unicode="&#xb0;" 
d="M248 617c-13.333 0 -25.832 -2.66797 -37.499 -8.00098s-21.834 -12.666 -30.501 -21.999s-15.667 -20 -21 -32s-8 -24.667 -8 -38c0 -14 2.66699 -27.167 8 -39.5s12.5 -23 21.5 -32s19.5 -16.167 31.5 -21.5s24.667 -8 38 -8s26 2.66699 38 8s22.5 12.5 31.5 21.5
s16.167 19.5 21.5 31.5s8 24.667 8 38c0 14 -2.66699 27.333 -8 40s-12.5 23.5 -21.5 32.5s-19.667 16.167 -32 21.5s-25.5 8 -39.5 8zM253.001 669.999c20.667 0 40.002 -4.00098 58.002 -12.001s33.833 -19 47.5 -33s24.5 -30.333 32.5 -49s12 -38.334 12 -59.001
c0 -21.333 -4 -41.333 -12 -60s-18.833 -35 -32.5 -49s-29.834 -25 -48.501 -33s-38.334 -12 -59.001 -12c-21.333 0 -41.333 4 -60 12s-35 18.833 -49 32.5s-25 29.834 -33 48.501s-12 38.667 -12 60c0 22 4 42.333 12 61s19 34.834 33 48.501s30.5 24.5 49.5 32.5
s39.5 12 61.5 12z" />
    <glyph glyph-name="plusminus" unicode="&#xb1;" 
d="M486 95v-64h-473v64h473zM216 392v198h66v-198h204v-64h-204v-191h-66v191h-203v64h203z" />
    <glyph glyph-name="twosuperior" unicode="&#xb2;" horiz-adv-x="365" 
d="M314 266l-275.001 0.00390625v47l25.5 31c7.66699 9.33301 15.667 18.333 24 27l27 27.5l33.5 33.5c16 14.667 29.167 28 39.5 40s18.5 23.167 24.5 33.5s10.333 20.166 13 29.499s4 19.333 4 30c0 22.667 -6.16699 41 -18.5 55s-28.166 21 -47.499 21
c-20.667 0 -37.667 -7.83301 -51 -23.5s-20 -35.834 -20 -60.501c0 -8 0.833008 -16.167 2.5 -24.5s5.16699 -19.833 10.5 -34.5l-54 13c-3.33301 11.333 -5.5 20.5 -6.5 27.5s-1.5 14.167 -1.5 21.5c0 34.667 12.833 62.167 38.5 82.5s60.167 30.5 103.5 30.5
c38.667 0 70.334 -10 95.001 -30s37 -45.667 37 -77c0 -10.667 -1.5 -20.834 -4.5 -30.501s-8.33301 -20 -16 -31s-17.834 -22.833 -30.501 -35.5s-28.667 -27.334 -48 -44.001l-17.5 -15.5l-16.5 -14.5l-43 -45c-2 -1.33301 -3.83301 -3 -5.5 -5s-3.16699 -3.66699 -4.5 -5
h182v-74z" />
    <glyph glyph-name="threesuperior" unicode="&#xb3;" horiz-adv-x="365" 
d="M86 401c-2 -8.66699 -3.6709 -16.8291 -5.00391 -24.4961s-2 -14.834 -2 -21.501c0 -18.667 6.83301 -33.834 20.5 -45.501s31.834 -17.5 54.501 -17.5c23.333 0 42 7.83301 56 23.5s21 36.167 21 61.5c0 28 -8.16699 48.167 -24.5 60.5s-43.166 18.5 -80.499 18.5h-27
v38h26c34 0 58.833 6.16699 74.5 18.5s23.5 31.833 23.5 58.5c0 21.333 -5.83301 38.166 -17.5 50.499s-28.167 18.5 -49.5 18.5c-20 0 -36.167 -5.33301 -48.5 -16s-18.5 -25 -18.5 -43c0 -9.33301 1.66699 -21.666 5 -36.999l-48 10c-0.666992 4.66699 -1 9 -1 13v10
c0 29.333 11.833 52.833 35.5 70.5s54.834 26.5 93.501 26.5c40.667 0 73.834 -9.5 99.501 -28.5s38.5 -43.5 38.5 -73.5c0 -14 -3.83301 -27.833 -11.5 -41.5s-18.167 -25.167 -31.5 -34.5c-4.66699 -3.33301 -10.167 -6.5 -16.5 -9.5s-14.5 -6.16699 -24.5 -9.5
c15.333 -3.33301 27.333 -6.83301 36 -10.5s16.667 -8.16699 24 -13.5c24 -18.667 36 -43.334 36 -74.001c0 -36 -13.667 -64.833 -41 -86.5s-64 -32.5 -110 -32.5c-44 0 -78.5 8.5 -103.5 25.5s-37.5 40.5 -37.5 70.5c0 11.333 2 25.666 6 42.999z" />
    <glyph glyph-name="acute" unicode="&#xb4;" 
d="M148 554l82 126h123l-169 -126h-36z" />
    <glyph glyph-name="mu" unicode="&#xb5;" 
d="M36 480h112.999v-257c0 -28 1.5 -48.667 4.5 -62s9.16699 -26 18.5 -38c20.667 -26.667 46.334 -40 77.001 -40c32 0 57.167 13 75.5 39s27.5 61.667 27.5 107v251h112v-480h-112v74c-21.333 -56.667 -56.333 -85 -105 -85c-22 0 -40.5 5 -55.5 15
s-29.167 26.333 -42.5 49v-222h-113v649z" />
    <glyph glyph-name="mu" unicode="&#x3bc;" 
d="M36 480h112.999v-257c0 -28 1.5 -48.667 4.5 -62s9.16699 -26 18.5 -38c20.667 -26.667 46.334 -40 77.001 -40c32 0 57.167 13 75.5 39s27.5 61.667 27.5 107v251h112v-480h-112v74c-21.333 -56.667 -56.333 -85 -105 -85c-22 0 -40.5 5 -55.5 15
s-29.167 26.333 -42.5 49v-222h-113v649z" />
    <glyph glyph-name="paragraph" unicode="&#xb6;" horiz-adv-x="603" 
d="M242 318c-60.667 -0.666992 -108.501 14.499 -143.501 45.499s-52.5 73.5 -52.5 127.5c0 34 7.66699 64.333 23 91s37 47 65 61c16.667 8.66699 35.334 14.834 56.001 18.501s47 5.5 79 5.5h251v-51h-54v-729h-65v729h-94v-729h-65v431z" />
    <glyph glyph-name="periodcentered" unicode="&#xb7;" horiz-adv-x="253" 
d="M128 324c18 0 33.335 -6.5 46.002 -19.5s19 -28.5 19 -46.5s-6.33301 -33.5 -19 -46.5s-28.334 -19.5 -47.001 -19.5s-34.334 6.5 -47.001 19.5s-19 28.833 -19 47.5c0 18 6.5 33.333 19.5 46s28.833 19 47.5 19z" />
    <glyph glyph-name="cedilla" unicode="&#xb8;" 
d="M237 -40c24.667 -0.666992 43.666 -5.66797 56.999 -15.001s20 -22.666 20 -39.999c0 -20.667 -8.5 -38.167 -25.5 -52.5s-37.5 -21.5 -61.5 -21.5c-6 0 -12.333 0.5 -19 1.5s-13.667 2.16699 -21 3.5v26c8 -2 15 -3 21 -3c10.667 0 19.834 3.83301 27.501 11.5
s11.5 17.167 11.5 28.5c0 22 -14 33 -42 33h-7l22 79h32z" />
    <glyph glyph-name="onesuperior" unicode="&#xb9;" horiz-adv-x="365" 
d="M236 267l-88 -0.000976562v315c-15.333 -10 -29.333 -17.167 -42 -21.5s-28 -7.5 -46 -9.5v41c30 4 55 12.333 75 25s34.667 29.334 44 50.001h57v-400z" />
    <glyph glyph-name="ordmasculine" unicode="&#xba;" horiz-adv-x="291" 
d="M145 653c-16 0 -27.667 -10.666 -35 -31.999s-11 -55.333 -11 -102c0 -47.333 3.66699 -81.5 11 -102.5s19.333 -31.5 36 -31.5c16 0 27.667 10.667 35 32s11 55.666 11 102.999c0 46.667 -3.66699 80.5 -11 101.5s-19.333 31.5 -36 31.5zM147 677.001
c40.667 0 72.166 -13.832 94.499 -41.499s33.5 -66.5 33.5 -116.5s-11.167 -88.833 -33.5 -116.5s-54.5 -41.5 -96.5 -41.5c-41.333 0 -73.166 13.667 -95.499 41s-33.5 66 -33.5 116c0 51.333 11.333 90.666 34 117.999s55 41 97 41z" />
    <glyph glyph-name="guillemotright" unicode="&#xbb;" horiz-adv-x="395" 
d="M248 445l104 -172v-31l-104 -172h-66l89 188l-89 187h66zM120 445l104 -172v-31l-104 -172h-66l89 188l-89 187h66z" />
    <glyph glyph-name="onequarter" unicode="&#xbc;" horiz-adv-x="823" 
d="M645 130v172l-112 -172h112zM733 91v-91h-89v91h-158v39l185 270h62v-270h43v-39h-43zM541 667h53l-313 -667h-53zM236 267l-88 -0.000976562v315c-15.333 -10 -29.333 -17.167 -42 -21.5s-28 -7.5 -46 -9.5v41c30 4 55 12.333 75 25s34.667 29.334 44 50.001h57v-400z
" />
    <glyph glyph-name="onehalf" unicode="&#xbd;" horiz-adv-x="823" 
d="M772 0l-276 0.00488281v47l26 30.5l24 27c8 9 16.833 18.333 26.5 28l34.5 33.5c15.333 14.667 28.166 28 38.499 40s18.666 23.167 24.999 33.5s10.833 20.166 13.5 29.499s4 19.333 4 30c0 22.667 -6.16699 41 -18.5 55s-28.166 21 -47.499 21
c-20.667 0 -37.667 -7.83301 -51 -23.5s-20 -36.167 -20 -61.5c0 -8 0.833008 -16.167 2.5 -24.5s4.83398 -19.5 9.50098 -33.5l-54 12c-3.33301 12 -5.5 21.5 -6.5 28.5s-1.5 14.167 -1.5 21.5c0 34 12.833 61.167 38.5 81.5s60.5 30.5 104.5 30.5
c18.667 0 36.167 -2.66699 52.5 -8s30.333 -12.833 42 -22.5s20.834 -21 27.501 -34s10 -27.167 10 -42.5c0 -10.667 -1.5 -20.834 -4.5 -30.501s-8.33301 -19.834 -16 -30.501s-17.834 -22.334 -30.501 -35.001s-28.667 -27.334 -48 -44.001l-18.5 -15
c-5.66699 -4.66699 -11.167 -9.66699 -16.5 -15l-43 -45l-10 -10h183v-74zM541 667.005h53l-313 -667h-53zM236 267.005l-88 -0.000976562v315c-15.333 -10 -29.333 -17.167 -42 -21.5s-28 -7.5 -46 -9.5v41c30 4 55 12.333 75 25s34.667 29.334 44 50.001h57v-400z" />
    <glyph glyph-name="threequarters" unicode="&#xbe;" horiz-adv-x="823" 
d="M645 130v172l-111 -172h111zM733 91v-91h-89v91h-157v39l184 270h62v-270h44v-39h-44zM542 667h53l-314 -667h-53zM86 401c-2 -8.66699 -3.6709 -16.8291 -5.00391 -24.4961s-2 -14.834 -2 -21.501c0 -18.667 6.83301 -33.834 20.5 -45.501s31.834 -17.5 54.501 -17.5
c23.333 0 42 7.83301 56 23.5s21 36.167 21 61.5c0 28 -8.16699 48.167 -24.5 60.5s-43.166 18.5 -80.499 18.5h-27v38h26c34 0 58.833 6.16699 74.5 18.5s23.5 31.833 23.5 58.5c0 21.333 -5.83301 38.166 -17.5 50.499s-28.167 18.5 -49.5 18.5
c-20 0 -36.167 -5.33301 -48.5 -16s-18.5 -25 -18.5 -43c0 -9.33301 1.66699 -21.666 5 -36.999l-48 10c-0.666992 4.66699 -1 9 -1 13v10c0 29.333 11.833 52.833 35.5 70.5s54.834 26.5 93.501 26.5c40.667 0 73.834 -9.5 99.501 -28.5s38.5 -43.5 38.5 -73.5
c0 -14 -3.83301 -27.833 -11.5 -41.5s-18.167 -25.167 -31.5 -34.5c-4.66699 -3.33301 -10.167 -6.5 -16.5 -9.5s-14.5 -6.16699 -24.5 -9.5c15.333 -3.33301 27.333 -6.83301 36 -10.5s16.667 -8.16699 24 -13.5c24 -18.667 36 -43.334 36 -74.001
c0 -36 -13.667 -64.833 -41 -86.5s-64 -32.5 -110 -32.5c-44 0 -78.5 8.5 -103.5 25.5s-37.5 40.5 -37.5 70.5c0 11.333 2 25.666 6 42.999z" />
    <glyph glyph-name="questiondown" unicode="&#xbf;" horiz-adv-x="450" 
d="M330 505c18 0 33.335 -6.49902 46.002 -19.499s19 -28.5 19 -46.5c0 -18.667 -6.33301 -34.334 -19 -47.001s-28.334 -19 -47.001 -19s-34.334 6.5 -47.001 19.5s-19 28.833 -19 47.5c0 18 6.5 33.333 19.5 46s28.833 19 47.5 19zM358.002 107.001l-47.002 -0.00195312
c-7.33301 30 -16.833 51.333 -28.5 64s-28.167 19 -49.5 19c-54.667 0 -82 -47.667 -82 -143c0 -64.667 7.83301 -112.167 23.5 -142.5s39.834 -45.5 72.501 -45.5c24.667 0 43.834 9 57.501 27s20.5 43 20.5 75c0 11.333 -0.666992 21.833 -2 31.5
s-3.66602 23.167 -6.99902 40.5l55 -16c3.33301 -16.667 5.66602 -29.667 6.99902 -39s2 -19 2 -29c0 -19.333 -3.83301 -36.833 -11.5 -52.5s-18.334 -29.167 -32.001 -40.5s-30 -20.166 -49 -26.499s-39.833 -9.5 -62.5 -9.5c-57.333 0 -102.833 18.333 -136.5 55
s-50.5 86.667 -50.5 150c0 30 4.16699 57.667 12.5 83s19.833 47.333 34.5 66s32 33.167 52 43.5s41.667 15.5 65 15.5c20.667 0 38.834 -3.66699 54.501 -11s32.5 -19.666 50.5 -36.999v107h51v-185z" />
    <glyph glyph-name="Agrave" unicode="&#xc0;" horiz-adv-x="498" 
d="M147 846h122l83 -126h-36zM305 209l-94 338l-99 -338h193zM498 0h-136l-44 159h-220l-46 -159h-54l197 667h114z" />
    <glyph glyph-name="Aacute" unicode="&#xc1;" horiz-adv-x="498" 
d="M147 720l82 126h123l-169 -126h-36zM305 209l-94 338l-99 -338h193zM498 0h-136l-44 159h-220l-46 -159h-54l197 667h114z" />
    <glyph glyph-name="Acircumflex" unicode="&#xc2;" horiz-adv-x="498" 
d="M217 848h66l120 -126h-100l-74 80l-79 -80h-54zM305 209l-94 338l-99 -338h193zM498 0h-136l-44 159h-220l-46 -159h-54l197 667h114z" />
    <glyph glyph-name="Atilde" unicode="&#xc3;" horiz-adv-x="498" 
d="M98 727c4.66699 19.333 9.16016 33.999 13.4932 43.999s10.5 20 18.5 30c18.667 22.667 38.667 34 60 34c4.66699 0 8.66699 -0.166992 12 -0.5s7.66602 -1.33301 12.999 -3l21.5 -7c9 -3 21.167 -7.5 36.5 -13.5c26.667 -10 47 -15 61 -15
c24.667 0 39.334 14.667 44.001 44h22c-5.33301 -21.333 -10.166 -37.666 -14.499 -48.999s-10.166 -21 -17.499 -29c-7.33301 -9.33301 -16.666 -16.833 -27.999 -22.5s-22.666 -8.5 -33.999 -8.5c-16 0 -44 7.33301 -84 22c-17.333 6 -30.666 10.333 -39.999 13
s-16.666 4 -21.999 4c-11.333 0 -19.666 -3 -24.999 -9s-10.333 -17.333 -15 -34h-22zM304.993 208.999l-94 338l-99 -338h193zM497.993 -0.000976562h-136l-44 159h-220l-46 -159h-54l197 667h114z" />
    <glyph glyph-name="Adieresis" unicode="&#xc4;" horiz-adv-x="498" 
d="M353 835c18 0 32.5 -4.83301 43.5 -14.5s16.5 -22.167 16.5 -37.5c0 -16 -5.5 -28.667 -16.5 -38s-25.833 -14 -44.5 -14s-33.5 4.66699 -44.5 14s-16.5 22 -16.5 38s5.5 28.667 16.5 38s26.167 14 45.5 14zM148 835c18 0 32.5 -4.83301 43.5 -14.5
s16.5 -22.167 16.5 -37.5c0 -16 -5.5 -28.667 -16.5 -38s-25.833 -14 -44.5 -14s-33.5 4.66699 -44.5 14s-16.5 22 -16.5 38s5.5 28.667 16.5 38s26.167 14 45.5 14zM305 209l-94 338l-99 -338h193zM498 0h-136l-44 159h-220l-46 -159h-54l197 667h114z" />
    <glyph glyph-name="Aring" unicode="&#xc5;" horiz-adv-x="498" 
d="M248 830c-11.333 0 -21.166 -4.16699 -29.499 -12.5s-12.5 -18.166 -12.5 -29.499c0 -12 4.16699 -22.167 12.5 -30.5s18.5 -12.5 30.5 -12.5c11.333 0 21.166 4.16699 29.499 12.5s12.5 18.5 12.5 30.5c0 11.333 -4.16699 21.166 -12.5 29.499s-18.5 12.5 -30.5 12.5z
M250 875c12 0 23.166 -2.33301 33.499 -7s19.333 -11 27 -19s13.834 -17.167 18.501 -27.5s7 -21.5 7 -33.5c0 -24 -8.5 -44.5 -25.5 -61.5s-37.5 -25.5 -61.5 -25.5s-44.5 8.5 -61.5 25.5s-25.5 37.833 -25.5 62.5c0 24 8.5 44.333 25.5 61s37.833 25 62.5 25zM304.999 209
l-94 338l-99 -338h193zM497.999 0h-136l-44 159h-220l-46 -159h-54l197 667h114z" />
    <glyph glyph-name="AE" unicode="&#xc6;" horiz-adv-x="751" 
d="M323 199v410l-185 -410h185zM323 0v151h-208l-69 -151h-59l312 667h406v-53h-248v-222h209v-48h-209v-294h284v-50h-418z" />
    <glyph glyph-name="Ccedilla" unicode="&#xc7;" horiz-adv-x="572" 
d="M547 238c0.666992 -8 1.17188 -14.833 1.50488 -20.5s0.5 -10.5 0.5 -14.5c0 -19.333 -2.83301 -38.5 -8.5 -57.5s-13.5 -37 -23.5 -54s-22 -32.333 -36 -46s-29.333 -24.5 -46 -32.5c-5.33301 -2.66699 -11 -5.16699 -17 -7.5s-12.833 -4.5 -20.5 -6.5
s-16.5 -4.16699 -26.5 -6.5s-22 -4.83301 -36 -7.5l-16 -36c30.667 0 54.334 -5.66699 71.001 -17s25 -27.666 25 -48.999c0 -12 -2.83301 -23.333 -8.5 -34s-13.334 -20 -23.001 -28s-20.834 -14.333 -33.501 -19s-26.334 -7 -41.001 -7s-30.334 2 -47.001 6v31
c8.66699 -2.66699 17 -4 25 -4c13.333 0 24.666 4.66699 33.999 14s14 20.666 14 33.999c0 12.667 -4.33301 22.5 -13 29.5s-20.334 10.5 -35.001 10.5h-5.5c-2.33301 0 -4.83301 -0.333008 -7.5 -1l25 69c-26 1.33301 -47.167 4 -63.5 8s-33.166 10.667 -50.499 20
c-49.333 26.667 -86.666 65.834 -111.999 117.501s-38 113.834 -38 186.501c0 62.667 9 118.5 27 167.5s44.333 89.167 79 120.5c54 48.667 116.333 73 187 73c38.667 0 73.167 -7.5 103.5 -22.5s53.833 -35.833 70.5 -62.5c9.33301 -16 16 -31.833 20 -47.5
s6.66699 -36.834 8 -63.501l-61 -30c0.666992 6.66699 1 12.667 1 18v15c0 26 -3.33301 48 -10 66s-17 33.667 -31 47c-13.333 12 -28 21.333 -44 28s-32.333 10 -49 10c-65.333 0 -111.333 -39.333 -138 -118c-7.33301 -20 -12.833 -47.167 -16.5 -81.5
s-5.5 -71.5 -5.5 -111.5c0 -112 16.333 -189.667 49 -233c29.333 -39.333 68.666 -59 117.999 -59c20.667 0 40 4.16699 58 12.5s33.667 20 47 35s23.666 32.833 30.999 53.5s11 43 11 67c0 6.66699 -0.333008 14.667 -1 24s-1.66699 19.666 -3 30.999z" />
    <glyph glyph-name="Egrave" unicode="&#xc8;" horiz-adv-x="493" 
d="M145 846h122l83 -126h-36zM446 617h-248v-225h210v-47h-210v-296h285v-49h-420v667h383v-50z" />
    <glyph glyph-name="Eacute" unicode="&#xc9;" horiz-adv-x="493" 
d="M145 720l82 126h123l-169 -126h-36zM446 617h-248v-225h210v-47h-210v-296h285v-49h-420v667h383v-50z" />
    <glyph glyph-name="Ecircumflex" unicode="&#xca;" horiz-adv-x="493" 
d="M215 848h66l120 -126h-100l-74 80l-79 -80h-54zM446 617h-248v-225h210v-47h-210v-296h285v-49h-420v667h383v-50z" />
    <glyph glyph-name="Edieresis" unicode="&#xcb;" horiz-adv-x="493" 
d="M351 835c18 0 32.5 -4.83301 43.5 -14.5s16.5 -22.167 16.5 -37.5c0 -16 -5.5 -28.667 -16.5 -38s-25.833 -14 -44.5 -14s-33.5 4.66699 -44.5 14s-16.5 22 -16.5 38s5.5 28.667 16.5 38s26.167 14 45.5 14zM146 835c18 0 32.5 -4.83301 43.5 -14.5
s16.5 -22.167 16.5 -37.5c0 -16 -5.5 -28.667 -16.5 -38s-25.833 -14 -44.5 -14s-33.5 4.66699 -44.5 14s-16.5 22 -16.5 38s5.5 28.667 16.5 38s26.167 14 45.5 14zM446 617h-248v-225h210v-47h-210v-296h285v-49h-420v667h383v-50z" />
    <glyph glyph-name="Igrave" unicode="&#xcc;" horiz-adv-x="263" 
d="M29 846h122l83 -126h-36zM198 0h-134v667h134v-667z" />
    <glyph glyph-name="Iacute" unicode="&#xcd;" horiz-adv-x="263" 
d="M29 720l82 126h123l-169 -126h-36zM198 0h-134v667h134v-667z" />
    <glyph glyph-name="Icircumflex" unicode="&#xce;" horiz-adv-x="263" 
d="M99 848h66l120 -126h-100l-74 80l-79 -80h-54zM198 0h-134v667h134v-667z" />
    <glyph glyph-name="Idieresis" unicode="&#xcf;" horiz-adv-x="263" 
d="M223 838c16 0 28.833 -4.83301 38.5 -14.5s14.5 -22.5 14.5 -38.5c0 -16.667 -4.83301 -29.834 -14.5 -39.501s-22.834 -14.5 -39.501 -14.5c-16 0 -28.833 4.83301 -38.5 14.5s-14.5 22.834 -14.5 39.501s4.83301 29.667 14.5 39s22.834 14 39.501 14zM39 838
c16 0 28.832 -4.83496 38.499 -14.502s14.5 -22.5 14.5 -38.5c0 -17.333 -4.83301 -30.666 -14.5 -39.999s-23.167 -14 -40.5 -14c-15.333 0 -27.833 4.83301 -37.5 14.5s-14.5 22.834 -14.5 39.501c0 16 4.83301 28.833 14.5 38.5s22.834 14.5 39.501 14.5z
M198.999 -0.00195312h-134v667h134v-667z" />
    <glyph glyph-name="Eth" unicode="&#xd0;" horiz-adv-x="604" 
d="M264 44c29.333 0 55.168 6.16895 77.501 18.502s40.166 30.166 53.499 53.499c10 18 17.833 46.167 23.5 84.5s8.5 84.166 8.5 137.499c0 68.667 -4.5 121.834 -13.5 159.501s-23.833 66.167 -44.5 85.5c-14.667 13.333 -30.5 23.166 -47.5 29.499s-36.167 9.5 -57.5 9.5
h-67v-232h127v-49h-127v-297h67zM64.002 341.002l-62 -0.00195312v49h62v277h215c44 0 83.833 -6.83301 119.5 -20.5s65.834 -33.167 90.501 -58.5c25.333 -26.667 45.166 -62.5 59.499 -107.5s21.5 -93.5 21.5 -145.5c0 -69.333 -11.167 -129.666 -33.5 -180.999
s-54.5 -89.666 -96.5 -114.999c-44 -26 -99.333 -39 -166 -39h-210v341z" />
    <glyph glyph-name="Ntilde" unicode="&#xd1;" horiz-adv-x="554" 
d="M126 727c4.66699 19.333 9.16016 33.999 13.4932 43.999s10.5 20 18.5 30c18.667 22.667 38.667 34 60 34c4.66699 0 8.66699 -0.166992 12 -0.5s7.66602 -1.33301 12.999 -3l21.5 -7c9 -3 21.167 -7.5 36.5 -13.5c26.667 -10 47 -15 61 -15
c24.667 0 39.334 14.667 44.001 44h22c-5.33301 -21.333 -10.166 -37.666 -14.499 -48.999s-10.166 -21 -17.499 -29c-7.33301 -9.33301 -16.666 -16.833 -27.999 -22.5s-22.666 -8.5 -33.999 -8.5c-16 0 -44 7.33301 -84 22c-17.333 6 -30.666 10.333 -39.999 13
s-16.666 4 -21.999 4c-11.333 0 -19.666 -3 -24.999 -9s-10.333 -17.333 -15 -34h-22zM494.993 -0.000976562h-103l-284 509v-509h-49v667h101l288 -509v509h47v-667z" />
    <glyph glyph-name="Ograve" unicode="&#xd2;" horiz-adv-x="595" 
d="M196 846h122l83 -126h-36zM296 640c-21.333 0 -40.335 -5.99512 -57.002 -17.9951s-29 -28.667 -37 -50c-4.66699 -12.667 -8.5 -26.167 -11.5 -40.5s-5.5 -30.833 -7.5 -49.5s-3.33301 -40.167 -4 -64.5s-1 -52.5 -1 -84.5s0.333008 -60 1 -84s2 -45.333 4 -64
s4.5 -35.167 7.5 -49.5s6.83301 -27.833 11.5 -40.5c8 -22 20.333 -38.833 37 -50.5s36.334 -17.5 59.001 -17.5s42.334 6 59.001 18s29 28.667 37 50c4.66699 12.667 8.5 26.167 11.5 40.5s5.5 30.666 7.5 48.999s3.33301 39.166 4 62.499s1 50 1 80
c0 33.333 -0.333008 62.666 -1 87.999s-2 47.666 -4 66.999s-4.5 36.166 -7.5 50.499s-6.83301 27.5 -11.5 39.5c-17.333 45.333 -50 68 -98 68zM302.998 679.005c44 0 83.832 -9.33301 119.499 -28s64.5 -45 86.5 -79c16 -25.333 28.667 -58.833 38 -100.5
s14 -87.167 14 -136.5c0 -132.667 -28.333 -226.334 -85 -281.001c-47.333 -44 -106.666 -66 -177.999 -66c-46 0 -87.333 9.33301 -124 28s-65.667 45 -87 79c-16 24.667 -28.667 58.834 -38 102.501s-14 91.167 -14 142.5c0 62.667 7.16699 117 21.5 163
s35.5 82.667 63.5 110c47.333 44 108.333 66 183 66z" />
    <glyph glyph-name="Oacute" unicode="&#xd3;" horiz-adv-x="595" 
d="M196 720l82 126h123l-169 -126h-36zM296 640c-21.333 0 -40.335 -5.99512 -57.002 -17.9951s-29 -28.667 -37 -50c-4.66699 -12.667 -8.5 -26.167 -11.5 -40.5s-5.5 -30.833 -7.5 -49.5s-3.33301 -40.167 -4 -64.5s-1 -52.5 -1 -84.5s0.333008 -60 1 -84s2 -45.333 4 -64
s4.5 -35.167 7.5 -49.5s6.83301 -27.833 11.5 -40.5c8 -22 20.333 -38.833 37 -50.5s36.334 -17.5 59.001 -17.5s42.334 6 59.001 18s29 28.667 37 50c4.66699 12.667 8.5 26.167 11.5 40.5s5.5 30.666 7.5 48.999s3.33301 39.166 4 62.499s1 50 1 80
c0 33.333 -0.333008 62.666 -1 87.999s-2 47.666 -4 66.999s-4.5 36.166 -7.5 50.499s-6.83301 27.5 -11.5 39.5c-17.333 45.333 -50 68 -98 68zM302.998 679.005c44 0 83.832 -9.33301 119.499 -28s64.5 -45 86.5 -79c16 -25.333 28.667 -58.833 38 -100.5
s14 -87.167 14 -136.5c0 -132.667 -28.333 -226.334 -85 -281.001c-47.333 -44 -106.666 -66 -177.999 -66c-46 0 -87.333 9.33301 -124 28s-65.667 45 -87 79c-16 24.667 -28.667 58.834 -38 102.501s-14 91.167 -14 142.5c0 62.667 7.16699 117 21.5 163
s35.5 82.667 63.5 110c47.333 44 108.333 66 183 66z" />
    <glyph glyph-name="Ocircumflex" unicode="&#xd4;" horiz-adv-x="595" 
d="M266 848h66l120 -126h-100l-74 80l-79 -80h-54zM296 640c-21.333 0 -40.335 -5.99512 -57.002 -17.9951s-29 -28.667 -37 -50c-4.66699 -12.667 -8.5 -26.167 -11.5 -40.5s-5.5 -30.833 -7.5 -49.5s-3.33301 -40.167 -4 -64.5s-1 -52.5 -1 -84.5s0.333008 -60 1 -84
s2 -45.333 4 -64s4.5 -35.167 7.5 -49.5s6.83301 -27.833 11.5 -40.5c8 -22 20.333 -38.833 37 -50.5s36.334 -17.5 59.001 -17.5s42.334 6 59.001 18s29 28.667 37 50c4.66699 12.667 8.5 26.167 11.5 40.5s5.5 30.666 7.5 48.999s3.33301 39.166 4 62.499s1 50 1 80
c0 33.333 -0.333008 62.666 -1 87.999s-2 47.666 -4 66.999s-4.5 36.166 -7.5 50.499s-6.83301 27.5 -11.5 39.5c-17.333 45.333 -50 68 -98 68zM302.998 679.005c44 0 83.832 -9.33301 119.499 -28s64.5 -45 86.5 -79c16 -25.333 28.667 -58.833 38 -100.5
s14 -87.167 14 -136.5c0 -132.667 -28.333 -226.334 -85 -281.001c-47.333 -44 -106.666 -66 -177.999 -66c-46 0 -87.333 9.33301 -124 28s-65.667 45 -87 79c-16 24.667 -28.667 58.834 -38 102.501s-14 91.167 -14 142.5c0 62.667 7.16699 117 21.5 163
s35.5 82.667 63.5 110c47.333 44 108.333 66 183 66z" />
    <glyph glyph-name="Otilde" unicode="&#xd5;" horiz-adv-x="595" 
d="M147 727c4.66699 19.333 9.16016 33.999 13.4932 43.999s10.5 20 18.5 30c18.667 22.667 38.667 34 60 34c4.66699 0 8.66699 -0.166992 12 -0.5s7.66602 -1.33301 12.999 -3l21.5 -7c9 -3 21.167 -7.5 36.5 -13.5c26.667 -10 47 -15 61 -15
c24.667 0 39.334 14.667 44.001 44h22c-5.33301 -21.333 -10.166 -37.666 -14.499 -48.999s-10.166 -21 -17.499 -29c-7.33301 -9.33301 -16.666 -16.833 -27.999 -22.5s-22.666 -8.5 -33.999 -8.5c-16 0 -44 7.33301 -84 22c-17.333 6 -30.666 10.333 -39.999 13
s-16.666 4 -21.999 4c-11.333 0 -19.666 -3 -24.999 -9s-10.333 -17.333 -15 -34h-22zM295.993 639.999c-21.333 0 -40.335 -5.99512 -57.002 -17.9951s-29 -28.667 -37 -50c-4.66699 -12.667 -8.5 -26.167 -11.5 -40.5s-5.5 -30.833 -7.5 -49.5s-3.33301 -40.167 -4 -64.5
s-1 -52.5 -1 -84.5s0.333008 -60 1 -84s2 -45.333 4 -64s4.5 -35.167 7.5 -49.5s6.83301 -27.833 11.5 -40.5c8 -22 20.333 -38.833 37 -50.5s36.334 -17.5 59.001 -17.5s42.334 6 59.001 18s29 28.667 37 50c4.66699 12.667 8.5 26.167 11.5 40.5s5.5 30.666 7.5 48.999
s3.33301 39.166 4 62.499s1 50 1 80c0 33.333 -0.333008 62.666 -1 87.999s-2 47.666 -4 66.999s-4.5 36.166 -7.5 50.499s-6.83301 27.5 -11.5 39.5c-17.333 45.333 -50 68 -98 68zM302.991 679.004c44 0 83.832 -9.33301 119.499 -28s64.5 -45 86.5 -79
c16 -25.333 28.667 -58.833 38 -100.5s14 -87.167 14 -136.5c0 -132.667 -28.333 -226.334 -85 -281.001c-47.333 -44 -106.666 -66 -177.999 -66c-46 0 -87.333 9.33301 -124 28s-65.667 45 -87 79c-16 24.667 -28.667 58.834 -38 102.501s-14 91.167 -14 142.5
c0 62.667 7.16699 117 21.5 163s35.5 82.667 63.5 110c47.333 44 108.333 66 183 66z" />
    <glyph glyph-name="Odieresis" unicode="&#xd6;" horiz-adv-x="595" 
d="M402 835c18 0 32.5 -4.83301 43.5 -14.5s16.5 -22.167 16.5 -37.5c0 -16 -5.5 -28.667 -16.5 -38s-25.833 -14 -44.5 -14s-33.5 4.66699 -44.5 14s-16.5 22 -16.5 38s5.5 28.667 16.5 38s26.167 14 45.5 14zM197 835c18 0 32.5 -4.83301 43.5 -14.5
s16.5 -22.167 16.5 -37.5c0 -16 -5.5 -28.667 -16.5 -38s-25.833 -14 -44.5 -14s-33.5 4.66699 -44.5 14s-16.5 22 -16.5 38s5.5 28.667 16.5 38s26.167 14 45.5 14zM296 640c-21.333 0 -40.335 -5.99512 -57.002 -17.9951s-29 -28.667 -37 -50
c-4.66699 -12.667 -8.5 -26.167 -11.5 -40.5s-5.5 -30.833 -7.5 -49.5s-3.33301 -40.167 -4 -64.5s-1 -52.5 -1 -84.5s0.333008 -60 1 -84s2 -45.333 4 -64s4.5 -35.167 7.5 -49.5s6.83301 -27.833 11.5 -40.5c8 -22 20.333 -38.833 37 -50.5s36.334 -17.5 59.001 -17.5
s42.334 6 59.001 18s29 28.667 37 50c4.66699 12.667 8.5 26.167 11.5 40.5s5.5 30.666 7.5 48.999s3.33301 39.166 4 62.499s1 50 1 80c0 33.333 -0.333008 62.666 -1 87.999s-2 47.666 -4 66.999s-4.5 36.166 -7.5 50.499s-6.83301 27.5 -11.5 39.5
c-17.333 45.333 -50 68 -98 68zM302.998 679.005c44 0 83.832 -9.33301 119.499 -28s64.5 -45 86.5 -79c16 -25.333 28.667 -58.833 38 -100.5s14 -87.167 14 -136.5c0 -132.667 -28.333 -226.334 -85 -281.001c-47.333 -44 -106.666 -66 -177.999 -66
c-46 0 -87.333 9.33301 -124 28s-65.667 45 -87 79c-16 24.667 -28.667 58.834 -38 102.501s-14 91.167 -14 142.5c0 62.667 7.16699 117 21.5 163s35.5 82.667 63.5 110c47.333 44 108.333 66 183 66z" />
    <glyph glyph-name="multiply" unicode="&#xd7;" 
d="M250 399l152 153l47 -46l-154 -153l153 -151l-45 -45l-152 152l-152 -153l-47 46l153 153l-151 151l45 45z" />
    <glyph glyph-name="Oslash" unicode="&#xd8;" horiz-adv-x="594" 
d="M194 136c18.667 -70.667 54.332 -106.001 106.999 -106.001c28 0 51 10.333 69 31s30.667 51 38 91c2.66699 15.333 4.66699 37.333 6 66s2 61.667 2 99c0 17.333 -0.166992 32.5 -0.5 45.5s-0.666016 24.833 -0.999023 35.5s-1 20.834 -2 30.501
s-2.16699 20.167 -3.5 31.5zM398.998 530.999c-11.333 38 -25.166 64.832 -41.499 80.499s-37.833 23.5 -64.5 23.5s-48.834 -9.16699 -66.501 -27.5s-30.167 -44.5 -37.5 -78.5c-3.33301 -16 -6 -41.333 -8 -76s-3 -75.667 -3 -123v-35.5c0 -10.333 0.333008 -20 1 -29
s1.5 -18.167 2.5 -27.5s2.16699 -19.666 3.5 -30.999zM498.998 584.998c21.333 -31.333 36.834 -67.6699 46.501 -109.003s14.5 -90.666 14.5 -147.999c0 -110 -22.167 -194.167 -66.5 -252.5s-108.5 -87.5 -192.5 -87.5c-36 0 -67.667 4.66699 -95 14
s-52.666 24 -75.999 44l-56 -79l-40 28l60 87c-20.667 30 -35.834 65.833 -45.501 107.5s-14.5 92.167 -14.5 151.5c0 110.667 22 194.334 66 251.001s108.667 85 194 85c34.667 0 65.667 -4.66699 93 -14s52.666 -23.666 75.999 -42.999l60 87l40 -28z" />
    <glyph glyph-name="Ugrave" unicode="&#xd9;" horiz-adv-x="569" 
d="M182 846h122l83 -126h-36zM516 193c0 -36 -3.66895 -65.666 -11.002 -88.999s-19 -42.666 -35 -57.999c-18.667 -17.333 -44.5 -31 -77.5 -41s-68.5 -15 -106.5 -15c-39.333 0 -75.666 5.33301 -108.999 16s-59.333 25 -78 43c-14.667 14.667 -25.5 33.5 -32.5 56.5
s-10.5 52.167 -10.5 87.5v474h134v-477c0 -30.667 2 -54.167 6 -70.5s11 -29.833 21 -40.5c11.333 -12.667 26.833 -22.5 46.5 -29.5s41.167 -10.5 64.5 -10.5c30.667 0 57.334 5.66699 80.001 17s38.667 26.666 48 45.999c4.66699 9.33301 8 21.166 10 35.499
s3 32.833 3 55.5v474h47v-474z" />
    <glyph glyph-name="Uacute" unicode="&#xda;" horiz-adv-x="569" 
d="M182 720l82 126h123l-169 -126h-36zM516 193c0 -36 -3.66895 -65.666 -11.002 -88.999s-19 -42.666 -35 -57.999c-18.667 -17.333 -44.5 -31 -77.5 -41s-68.5 -15 -106.5 -15c-39.333 0 -75.666 5.33301 -108.999 16s-59.333 25 -78 43
c-14.667 14.667 -25.5 33.5 -32.5 56.5s-10.5 52.167 -10.5 87.5v474h134v-477c0 -30.667 2 -54.167 6 -70.5s11 -29.833 21 -40.5c11.333 -12.667 26.833 -22.5 46.5 -29.5s41.167 -10.5 64.5 -10.5c30.667 0 57.334 5.66699 80.001 17s38.667 26.666 48 45.999
c4.66699 9.33301 8 21.166 10 35.499s3 32.833 3 55.5v474h47v-474z" />
    <glyph glyph-name="Ucircumflex" unicode="&#xdb;" horiz-adv-x="569" 
d="M252 848h66l120 -126h-100l-74 80l-79 -80h-54zM516 193c0 -36 -3.66895 -65.666 -11.002 -88.999s-19 -42.666 -35 -57.999c-18.667 -17.333 -44.5 -31 -77.5 -41s-68.5 -15 -106.5 -15c-39.333 0 -75.666 5.33301 -108.999 16s-59.333 25 -78 43
c-14.667 14.667 -25.5 33.5 -32.5 56.5s-10.5 52.167 -10.5 87.5v474h134v-477c0 -30.667 2 -54.167 6 -70.5s11 -29.833 21 -40.5c11.333 -12.667 26.833 -22.5 46.5 -29.5s41.167 -10.5 64.5 -10.5c30.667 0 57.334 5.66699 80.001 17s38.667 26.666 48 45.999
c4.66699 9.33301 8 21.166 10 35.499s3 32.833 3 55.5v474h47v-474z" />
    <glyph glyph-name="Udieresis" unicode="&#xdc;" horiz-adv-x="569" 
d="M388 835c18 0 32.5 -4.83301 43.5 -14.5s16.5 -22.167 16.5 -37.5c0 -16 -5.5 -28.667 -16.5 -38s-25.833 -14 -44.5 -14s-33.5 4.66699 -44.5 14s-16.5 22 -16.5 38s5.5 28.667 16.5 38s26.167 14 45.5 14zM183 835c18 0 32.5 -4.83301 43.5 -14.5
s16.5 -22.167 16.5 -37.5c0 -16 -5.5 -28.667 -16.5 -38s-25.833 -14 -44.5 -14s-33.5 4.66699 -44.5 14s-16.5 22 -16.5 38s5.5 28.667 16.5 38s26.167 14 45.5 14zM516 193c0 -36 -3.66895 -65.666 -11.002 -88.999s-19 -42.666 -35 -57.999
c-18.667 -17.333 -44.5 -31 -77.5 -41s-68.5 -15 -106.5 -15c-39.333 0 -75.666 5.33301 -108.999 16s-59.333 25 -78 43c-14.667 14.667 -25.5 33.5 -32.5 56.5s-10.5 52.167 -10.5 87.5v474h134v-477c0 -30.667 2 -54.167 6 -70.5s11 -29.833 21 -40.5
c11.333 -12.667 26.833 -22.5 46.5 -29.5s41.167 -10.5 64.5 -10.5c30.667 0 57.334 5.66699 80.001 17s38.667 26.666 48 45.999c4.66699 9.33301 8 21.166 10 35.499s3 32.833 3 55.5v474h47v-474z" />
    <glyph glyph-name="Yacute" unicode="&#xdd;" horiz-adv-x="466" 
d="M131 720l82 126h123l-169 -126h-36zM316 247v-247h-134v247l-188 420h142l155 -348l130 348h54z" />
    <glyph glyph-name="Thorn" unicode="&#xde;" horiz-adv-x="602" 
d="M194 265l127 -0.000976562c40.667 0 72 9.33301 94 28s33 45.334 33 80.001c0 70 -41.667 105 -125 105h-129v-213zM194 666.999v-80h149c36 0 68.667 -5.16699 98 -15.5s54.333 -24.833 75 -43.5s36.5 -41.5 47.5 -68.5s16.5 -56.833 16.5 -89.5
c0 -31.333 -5.33301 -59.833 -16 -85.5s-26 -47.5 -46 -65.5s-44 -32 -72 -42s-59.333 -15 -94 -15h-158v-162h-133v667h133z" />
    <glyph glyph-name="germandbls" unicode="&#xdf;" horiz-adv-x="517" 
d="M56 513c0 52 16.665 92.3301 49.998 120.997s80.333 43 141 43c50 0 89.5 -12.167 118.5 -36.5s43.5 -57.5 43.5 -99.5c0 -26 -4.5 -49.167 -13.5 -69.5s-21.167 -36.166 -36.5 -47.499c-8 -6 -23 -12.667 -45 -20c25.333 -4.66699 45.833 -9.66699 61.5 -15
s29.5 -12.333 41.5 -21c21.333 -16.667 38.166 -40.667 50.499 -72s18.5 -66.333 18.5 -105c0 -35.333 -5.5 -67.5 -16.5 -96.5s-26.5 -52.833 -46.5 -71.5c-13.333 -12 -27.666 -21.5 -42.999 -28.5s-30 -10.5 -44 -10.5c-27.333 0 -63.333 9.33301 -108 28l19 41
c10.667 -7.33301 20.5 -13.166 29.5 -17.499s16.833 -6.5 23.5 -6.5c10.667 0 20.834 5 30.501 15s17.167 22.667 22.5 38c2.66699 8.66699 4.83398 21.5 6.50098 38.5s2.5 35.167 2.5 54.5c0 32 -1 58.667 -3 80s-5.33301 39.333 -10 54s-11.167 26.167 -19.5 34.5
s-18.833 15.5 -31.5 21.5c-18 7.33301 -37.667 11 -59 11h-18v44h8c28.667 0.666992 48.5 7.33398 59.5 20.001s16.5 36.334 16.5 71.001c0 46 -4.83301 78.333 -14.5 97s-26.167 28 -49.5 28c-19.333 0 -35 -7.33301 -47 -22s-18 -34.334 -18 -59.001v-555h-120v513z" />
    <glyph glyph-name="agrave" unicode="&#xe0;" horiz-adv-x="480" 
d="M138 680h122l83 -126h-36zM297 313c-8.66699 -9.33301 -15.8311 -16.167 -21.498 -20.5s-14.834 -9.83301 -27.501 -16.5l-28.5 -15c-7.66699 -4 -14 -7.5 -19 -10.5s-9.16699 -6 -12.5 -9s-6.33301 -6.5 -9 -10.5c-8 -10 -14.333 -23.167 -19 -39.5s-7 -33.833 -7 -52.5
c0 -70.667 20 -106 60 -106c11.333 0 22.5 3.5 33.5 10.5s20.833 17.167 29.5 30.5c7.33301 12 12.666 24.167 15.999 36.5s5 27.5 5 45.5v157zM495.003 8.99902c-20.667 -6 -37.335 -10.165 -50.002 -12.498s-26.667 -3.5 -42 -3.5c-18 0 -34.333 2.33301 -49 7
s-26 11 -34 19c-5.33301 5.33301 -9.16602 11.333 -11.499 18s-4.16602 16 -5.49902 28c-15.333 -27.333 -32.833 -46.666 -52.5 -57.999s-44.834 -17 -75.501 -17c-44 0 -79.167 13.167 -105.5 39.5s-39.5 61.5 -39.5 105.5c0 40 10.167 71.333 30.5 94
s55.833 41.667 106.5 57c16 4.66699 29.167 8.83398 39.5 12.501s19 7 26 10s13 5.83301 18 8.5s10.167 5.66699 15.5 9c21.333 15.333 32 36 32 62c0 28 -7.83301 49.833 -23.5 65.5s-37.5 23.5 -65.5 23.5c-13.333 0 -25.833 -2.16699 -37.5 -6.5s-21.667 -10.333 -30 -18
s-15 -16.667 -20 -27s-7.5 -21.5 -7.5 -33.5c0 -7.33301 1 -15.333 3 -24s5.66699 -20.334 11 -35.001l-65 14c-1.33301 8 -2.5 15.5 -3.5 22.5s-1.5 13.167 -1.5 18.5c0 17.333 4.5 33.166 13.5 47.499s21.5 26.666 37.5 36.999s35.333 18.333 58 24s47.667 8.5 75 8.5
c54 0 96.667 -9.66699 128 -29s47 -46 47 -80v-303c0 -39.333 12.333 -59 37 -59c4.66699 0 9.33398 0.666992 14.001 2s10.667 3.66602 18 6.99902z" />
    <glyph glyph-name="aacute" unicode="&#xe1;" horiz-adv-x="480" 
d="M138 554l82 126h123l-169 -126h-36zM297 313c-8.66699 -9.33301 -15.8311 -16.167 -21.498 -20.5s-14.834 -9.83301 -27.501 -16.5l-28.5 -15c-7.66699 -4 -14 -7.5 -19 -10.5s-9.16699 -6 -12.5 -9s-6.33301 -6.5 -9 -10.5c-8 -10 -14.333 -23.167 -19 -39.5
s-7 -33.833 -7 -52.5c0 -70.667 20 -106 60 -106c11.333 0 22.5 3.5 33.5 10.5s20.833 17.167 29.5 30.5c7.33301 12 12.666 24.167 15.999 36.5s5 27.5 5 45.5v157zM495.003 8.99902c-20.667 -6 -37.335 -10.165 -50.002 -12.498s-26.667 -3.5 -42 -3.5
c-18 0 -34.333 2.33301 -49 7s-26 11 -34 19c-5.33301 5.33301 -9.16602 11.333 -11.499 18s-4.16602 16 -5.49902 28c-15.333 -27.333 -32.833 -46.666 -52.5 -57.999s-44.834 -17 -75.501 -17c-44 0 -79.167 13.167 -105.5 39.5s-39.5 61.5 -39.5 105.5
c0 40 10.167 71.333 30.5 94s55.833 41.667 106.5 57c16 4.66699 29.167 8.83398 39.5 12.501s19 7 26 10s13 5.83301 18 8.5s10.167 5.66699 15.5 9c21.333 15.333 32 36 32 62c0 28 -7.83301 49.833 -23.5 65.5s-37.5 23.5 -65.5 23.5
c-13.333 0 -25.833 -2.16699 -37.5 -6.5s-21.667 -10.333 -30 -18s-15 -16.667 -20 -27s-7.5 -21.5 -7.5 -33.5c0 -7.33301 1 -15.333 3 -24s5.66699 -20.334 11 -35.001l-65 14c-1.33301 8 -2.5 15.5 -3.5 22.5s-1.5 13.167 -1.5 18.5c0 17.333 4.5 33.166 13.5 47.499
s21.5 26.666 37.5 36.999s35.333 18.333 58 24s47.667 8.5 75 8.5c54 0 96.667 -9.66699 128 -29s47 -46 47 -80v-303c0 -39.333 12.333 -59 37 -59c4.66699 0 9.33398 0.666992 14.001 2s10.667 3.66602 18 6.99902z" />
    <glyph glyph-name="acircumflex" unicode="&#xe2;" horiz-adv-x="480" 
d="M208 682h66l120 -126h-100l-74 80l-79 -80h-54zM297 313c-8.66699 -9.33301 -15.8311 -16.167 -21.498 -20.5s-14.834 -9.83301 -27.501 -16.5l-28.5 -15c-7.66699 -4 -14 -7.5 -19 -10.5s-9.16699 -6 -12.5 -9s-6.33301 -6.5 -9 -10.5c-8 -10 -14.333 -23.167 -19 -39.5
s-7 -33.833 -7 -52.5c0 -70.667 20 -106 60 -106c11.333 0 22.5 3.5 33.5 10.5s20.833 17.167 29.5 30.5c7.33301 12 12.666 24.167 15.999 36.5s5 27.5 5 45.5v157zM495.003 8.99902c-20.667 -6 -37.335 -10.165 -50.002 -12.498s-26.667 -3.5 -42 -3.5
c-18 0 -34.333 2.33301 -49 7s-26 11 -34 19c-5.33301 5.33301 -9.16602 11.333 -11.499 18s-4.16602 16 -5.49902 28c-15.333 -27.333 -32.833 -46.666 -52.5 -57.999s-44.834 -17 -75.501 -17c-44 0 -79.167 13.167 -105.5 39.5s-39.5 61.5 -39.5 105.5
c0 40 10.167 71.333 30.5 94s55.833 41.667 106.5 57c16 4.66699 29.167 8.83398 39.5 12.501s19 7 26 10s13 5.83301 18 8.5s10.167 5.66699 15.5 9c21.333 15.333 32 36 32 62c0 28 -7.83301 49.833 -23.5 65.5s-37.5 23.5 -65.5 23.5
c-13.333 0 -25.833 -2.16699 -37.5 -6.5s-21.667 -10.333 -30 -18s-15 -16.667 -20 -27s-7.5 -21.5 -7.5 -33.5c0 -7.33301 1 -15.333 3 -24s5.66699 -20.334 11 -35.001l-65 14c-1.33301 8 -2.5 15.5 -3.5 22.5s-1.5 13.167 -1.5 18.5c0 17.333 4.5 33.166 13.5 47.499
s21.5 26.666 37.5 36.999s35.333 18.333 58 24s47.667 8.5 75 8.5c54 0 96.667 -9.66699 128 -29s47 -46 47 -80v-303c0 -39.333 12.333 -59 37 -59c4.66699 0 9.33398 0.666992 14.001 2s10.667 3.66602 18 6.99902z" />
    <glyph glyph-name="atilde" unicode="&#xe3;" horiz-adv-x="480" 
d="M89 558c4.66699 19.333 9.16016 34 13.4932 44s10.5 20 18.5 30c18.667 22.667 38.667 34 60 34c4.66699 0 8.66699 -0.166992 12 -0.5s7.66602 -1.33301 12.999 -3l21.5 -7c9 -3 21.167 -7.5 36.5 -13.5c26.667 -10 47 -15 61 -15c24.667 0 39.334 14.667 44.001 44h22
c-5.33301 -21.333 -10.166 -37.5 -14.499 -48.5s-10.166 -20.833 -17.499 -29.5c-7.33301 -9.33301 -16.666 -16.833 -27.999 -22.5s-22.666 -8.5 -33.999 -8.5c-16 0 -44 7.33301 -84 22c-17.333 6 -30.666 10.333 -39.999 13s-16.666 4 -21.999 4
c-11.333 0 -19.666 -3.16699 -24.999 -9.5s-10.333 -17.5 -15 -33.5h-22zM296.993 313c-8.66699 -9.33301 -15.8311 -16.167 -21.498 -20.5s-14.834 -9.83301 -27.501 -16.5l-28.5 -15c-7.66699 -4 -14 -7.5 -19 -10.5s-9.16699 -6 -12.5 -9s-6.33301 -6.5 -9 -10.5
c-8 -10 -14.333 -23.167 -19 -39.5s-7 -33.833 -7 -52.5c0 -70.667 20 -106 60 -106c11.333 0 22.5 3.5 33.5 10.5s20.833 17.167 29.5 30.5c7.33301 12 12.666 24.167 15.999 36.5s5 27.5 5 45.5v157zM494.996 8.99902c-20.667 -6 -37.335 -10.165 -50.002 -12.498
s-26.667 -3.5 -42 -3.5c-18 0 -34.333 2.33301 -49 7s-26 11 -34 19c-5.33301 5.33301 -9.16602 11.333 -11.499 18s-4.16602 16 -5.49902 28c-15.333 -27.333 -32.833 -46.666 -52.5 -57.999s-44.834 -17 -75.501 -17c-44 0 -79.167 13.167 -105.5 39.5
s-39.5 61.5 -39.5 105.5c0 40 10.167 71.333 30.5 94s55.833 41.667 106.5 57c16 4.66699 29.167 8.83398 39.5 12.501s19 7 26 10s13 5.83301 18 8.5s10.167 5.66699 15.5 9c21.333 15.333 32 36 32 62c0 28 -7.83301 49.833 -23.5 65.5s-37.5 23.5 -65.5 23.5
c-13.333 0 -25.833 -2.16699 -37.5 -6.5s-21.667 -10.333 -30 -18s-15 -16.667 -20 -27s-7.5 -21.5 -7.5 -33.5c0 -7.33301 1 -15.333 3 -24s5.66699 -20.334 11 -35.001l-65 14c-1.33301 8 -2.5 15.5 -3.5 22.5s-1.5 13.167 -1.5 18.5c0 17.333 4.5 33.166 13.5 47.499
s21.5 26.666 37.5 36.999s35.333 18.333 58 24s47.667 8.5 75 8.5c54 0 96.667 -9.66699 128 -29s47 -46 47 -80v-303c0 -39.333 12.333 -59 37 -59c4.66699 0 9.33398 0.666992 14.001 2s10.667 3.66602 18 6.99902z" />
    <glyph glyph-name="adieresis" unicode="&#xe4;" horiz-adv-x="480" 
d="M344 666c18 0 32.5 -4.83301 43.5 -14.5s16.5 -22.167 16.5 -37.5c0 -16 -5.5 -28.667 -16.5 -38s-25.833 -14 -44.5 -14s-33.5 4.66699 -44.5 14s-16.5 22 -16.5 38s5.5 28.667 16.5 38s26.167 14 45.5 14zM139 666c18 0 32.5 -4.83301 43.5 -14.5
s16.5 -22.167 16.5 -37.5c0 -16 -5.5 -28.667 -16.5 -38s-25.833 -14 -44.5 -14s-33.5 4.66699 -44.5 14s-16.5 22 -16.5 38s5.5 28.667 16.5 38s26.167 14 45.5 14zM297 313c-8.66699 -9.33301 -15.8311 -16.167 -21.498 -20.5s-14.834 -9.83301 -27.501 -16.5l-28.5 -15
c-7.66699 -4 -14 -7.5 -19 -10.5s-9.16699 -6 -12.5 -9s-6.33301 -6.5 -9 -10.5c-8 -10 -14.333 -23.167 -19 -39.5s-7 -33.833 -7 -52.5c0 -70.667 20 -106 60 -106c11.333 0 22.5 3.5 33.5 10.5s20.833 17.167 29.5 30.5c7.33301 12 12.666 24.167 15.999 36.5
s5 27.5 5 45.5v157zM495.003 8.99902c-20.667 -6 -37.335 -10.165 -50.002 -12.498s-26.667 -3.5 -42 -3.5c-18 0 -34.333 2.33301 -49 7s-26 11 -34 19c-5.33301 5.33301 -9.16602 11.333 -11.499 18s-4.16602 16 -5.49902 28
c-15.333 -27.333 -32.833 -46.666 -52.5 -57.999s-44.834 -17 -75.501 -17c-44 0 -79.167 13.167 -105.5 39.5s-39.5 61.5 -39.5 105.5c0 40 10.167 71.333 30.5 94s55.833 41.667 106.5 57c16 4.66699 29.167 8.83398 39.5 12.501s19 7 26 10s13 5.83301 18 8.5
s10.167 5.66699 15.5 9c21.333 15.333 32 36 32 62c0 28 -7.83301 49.833 -23.5 65.5s-37.5 23.5 -65.5 23.5c-13.333 0 -25.833 -2.16699 -37.5 -6.5s-21.667 -10.333 -30 -18s-15 -16.667 -20 -27s-7.5 -21.5 -7.5 -33.5c0 -7.33301 1 -15.333 3 -24
s5.66699 -20.334 11 -35.001l-65 14c-1.33301 8 -2.5 15.5 -3.5 22.5s-1.5 13.167 -1.5 18.5c0 17.333 4.5 33.166 13.5 47.499s21.5 26.666 37.5 36.999s35.333 18.333 58 24s47.667 8.5 75 8.5c54 0 96.667 -9.66699 128 -29s47 -46 47 -80v-303
c0 -39.333 12.333 -59 37 -59c4.66699 0 9.33398 0.666992 14.001 2s10.667 3.66602 18 6.99902z" />
    <glyph glyph-name="aring" unicode="&#xe5;" horiz-adv-x="480" 
d="M238 670c-11.333 0 -20.833 -4.00098 -28.5 -12.001s-11.5 -17.667 -11.5 -29s4 -21.166 12 -29.499s17.667 -12.5 29 -12.5s21 4 29 12s12 18 12 30c0 11.333 -4 21 -12 29s-18 12 -30 12zM241 714.999c11.333 0 22.165 -2.33301 32.498 -7s19.333 -10.834 27 -18.501
s13.667 -16.667 18 -27s6.5 -21.5 6.5 -33.5c0 -24 -8.33301 -44.333 -25 -61s-36.667 -25 -60 -25c-24 0 -44.333 8.33301 -61 25s-25 37.334 -25 62.001c0 12 2.33301 23.167 7 33.5s10.834 19.333 18.501 27s16.834 13.667 27.501 18s22 6.5 34 6.5zM296.999 312.999
c-8.66699 -9.33301 -15.8311 -16.167 -21.498 -20.5s-14.834 -9.83301 -27.501 -16.5l-28.5 -15c-7.66699 -4 -14 -7.5 -19 -10.5s-9.16699 -6 -12.5 -9s-6.33301 -6.5 -9 -10.5c-8 -10 -14.333 -23.167 -19 -39.5s-7 -33.833 -7 -52.5c0 -70.667 20 -106 60 -106
c11.333 0 22.5 3.5 33.5 10.5s20.833 17.167 29.5 30.5c7.33301 12 12.666 24.167 15.999 36.5s5 27.5 5 45.5v157zM495.002 8.99805c-20.667 -6 -37.335 -10.165 -50.002 -12.498s-26.667 -3.5 -42 -3.5c-18 0 -34.333 2.33301 -49 7s-26 11 -34 19
c-5.33301 5.33301 -9.16602 11.333 -11.499 18s-4.16602 16 -5.49902 28c-15.333 -27.333 -32.833 -46.666 -52.5 -57.999s-44.834 -17 -75.501 -17c-44 0 -79.167 13.167 -105.5 39.5s-39.5 61.5 -39.5 105.5c0 40 10.167 71.333 30.5 94s55.833 41.667 106.5 57
c16 4.66699 29.167 8.83398 39.5 12.501s19 7 26 10s13 5.83301 18 8.5s10.167 5.66699 15.5 9c21.333 15.333 32 36 32 62c0 28 -7.83301 49.833 -23.5 65.5s-37.5 23.5 -65.5 23.5c-13.333 0 -25.833 -2.16699 -37.5 -6.5s-21.667 -10.333 -30 -18s-15 -16.667 -20 -27
s-7.5 -21.5 -7.5 -33.5c0 -7.33301 1 -15.333 3 -24s5.66699 -20.334 11 -35.001l-65 14c-1.33301 8 -2.5 15.5 -3.5 22.5s-1.5 13.167 -1.5 18.5c0 17.333 4.5 33.166 13.5 47.499s21.5 26.666 37.5 36.999s35.333 18.333 58 24s47.667 8.5 75 8.5
c54 0 96.667 -9.66699 128 -29s47 -46 47 -80v-303c0 -39.333 12.333 -59 37 -59c4.66699 0 9.33398 0.666992 14.001 2s10.667 3.66602 18 6.99902z" />
    <glyph glyph-name="ae" unicode="&#xe6;" horiz-adv-x="730" 
d="M284 299c-2.66699 -2.66699 -6.49902 -5.50098 -11.499 -8.50098s-16.167 -8.83301 -33.5 -17.5c-15.333 -8 -28.333 -16.667 -39 -26s-19.334 -20 -26.001 -32s-11.5 -25.5 -14.5 -40.5s-4.5 -32.5 -4.5 -52.5c0 -29.333 4.83301 -51.666 14.5 -66.999
s24.167 -23 43.5 -23c26.667 0 47.667 14.167 63 42.5s23 66.833 23 115.5v124zM586.001 276.999c-0.666992 20 -1.33301 36.9971 -2 50.9971s-1.5 25.833 -2.5 35.5s-2 17.834 -3 24.501s-2.5 12.667 -4.5 18c-6 20.667 -14.833 36.834 -26.5 48.501
s-24.834 17.5 -39.501 17.5c-15.333 0 -29.166 -7 -41.499 -21s-21.833 -32.667 -28.5 -56c-5.33301 -21.333 -9 -60.666 -11 -117.999h159zM699.002 159.996c0 -21.333 -0.833984 -37.832 -2.50098 -49.499s-5.16699 -23.5 -10.5 -35.5c-27.333 -58 -82.333 -87 -165 -87
c-24.667 0 -46.334 1.83301 -65.001 5.5s-35.667 10 -51 19s-29.333 20.833 -42 35.5s-25 33 -37 55c-20 -42 -41 -71.5 -63 -88.5s-50 -25.5 -84 -25.5c-45.333 0 -81.5 12.667 -108.5 38s-40.5 59 -40.5 101c0 25.333 4.5 48.333 13.5 69s21.833 37 38.5 49
c23.333 17.333 59 33 107 47c41.333 12.667 70 26.5 86 41.5s24 35.167 24 60.5s-8 45.333 -24 60s-37.667 22 -65 22c-13.333 0 -25.666 -2.16699 -36.999 -6.5s-21.166 -10.333 -29.499 -18s-15 -16.667 -20 -27s-7.5 -21.5 -7.5 -33.5c0 -8 0.833008 -16 2.5 -24
s4.83398 -19.333 9.50098 -34l-65 13c-1.33301 8.66699 -2.33301 16.834 -3 24.501s-1 14.167 -1 19.5c0 35.333 15.167 63.333 45.5 84s71.5 31 123.5 31c36.667 0 67.167 -4.5 91.5 -13.5s45.166 -23.833 62.499 -44.5c25.333 21.333 47.833 36.166 67.5 44.499
s42.167 12.5 67.5 12.5c36.667 0 69 -10.167 97 -30.5s48.667 -48.833 62 -85.5c11.333 -29.333 18 -79.333 20 -150h-270c0 -21.333 0.333008 -39.166 1 -53.499s1.66699 -27 3 -38s3 -20.833 5 -29.5s4.66699 -18 8 -28c15.333 -47.333 48.333 -71 99 -71
c31.333 0 57 10.333 77 31s30 46.667 30 78c0 5.33301 -0.5 12.166 -1.5 20.499s-2.16699 17.166 -3.5 26.499z" />
    <glyph glyph-name="ccedilla" unicode="&#xe7;" horiz-adv-x="449" 
d="M429 190v-20.999c0 -79.333 -28.333 -133 -85 -161c-10.667 -5.33301 -21.167 -9.33301 -31.5 -12s-25.166 -5 -44.499 -7l-15 -36c50.667 -1.33301 76 -19.666 76 -54.999c0 -20.667 -8.5 -38.167 -25.5 -52.5s-37.5 -21.5 -61.5 -21.5c-6 0 -12.333 0.5 -19 1.5
s-13.667 2.16699 -21 3.5v26c8 -2 15 -3 21 -3c10.667 0 19.834 3.83301 27.501 11.5s11.5 17.167 11.5 28.5c0 22 -13.667 33 -41 33h-8l24 63c-32 3.33301 -56.833 7.5 -74.5 12.5s-32.5 12.167 -44.5 21.5c-28 20.667 -49.333 49.834 -64 87.501s-22 80.5 -22 128.5
s7.16699 90.167 21.5 126.5s35.5 66.166 63.5 89.499c42 34 89.333 51 142 51c49.333 0 88.166 -12.833 116.499 -38.5s42.5 -60.5 42.5 -104.5v-15l-59 -27l1 48c0 34 -7.33301 60.333 -22 79s-35.334 28 -62.001 28c-78 0 -117 -76 -117 -228c0 -41.333 2 -76.5 6 -105.5
s10.333 -52.5 19 -70.5s20.167 -31.167 34.5 -39.5s31.5 -12.5 51.5 -12.5c32 0 58 12.167 78 36.5s30 56.5 30 96.5c0 7.33301 -0.333008 15.166 -1 23.499s-1.66699 20.166 -3 35.499z" />
    <glyph glyph-name="egrave" unicode="&#xe8;" horiz-adv-x="462" 
d="M129 680h122l83 -126h-36zM320 276c-1.33301 70.667 -7.83105 121.001 -19.498 151.001s-30.834 45 -57.501 45c-16.667 0 -31.667 -7.5 -45 -22.5s-22.333 -34.167 -27 -57.5c-1.33301 -7.33301 -2.5 -14.333 -3.5 -21s-2 -14.334 -3 -23.001s-1.83301 -18.667 -2.5 -30
s-1.33398 -25.333 -2.00098 -42h160zM432.002 159.001c-1.33301 -27.333 -4.16504 -49.3359 -8.49805 -66.0029s-11.5 -31.667 -21.5 -45c-14 -18.667 -33.833 -33.167 -59.5 -43.5s-55.167 -15.5 -88.5 -15.5c-70.667 0 -125.334 21.333 -164.001 64
s-58 102.334 -58 179.001c0 40.667 5.16699 77.834 15.5 111.501s24.666 62.5 42.999 86.5s40.5 42.5 66.5 55.5s55 19.5 87 19.5c42 0 77.333 -10.667 106 -32s49.667 -53 63 -95c5.33301 -16 9.16602 -35 11.499 -57s3.5 -49.667 3.5 -83h-268
c0.666992 -22 1.33398 -40.667 2.00098 -56s1.66699 -28.5 3 -39.5s2.83301 -20.667 4.5 -29s4.16699 -16.166 7.5 -23.499c16 -46.667 49.333 -70 100 -70c30 0 54.833 10.5 74.5 31.5s29.5 47.5 29.5 79.5c0 12.667 -1 27 -3 43z" />
    <glyph glyph-name="eacute" unicode="&#xe9;" horiz-adv-x="462" 
d="M129 554l82 126h123l-169 -126h-36zM320 276c-1.33301 70.667 -7.83105 121.001 -19.498 151.001s-30.834 45 -57.501 45c-16.667 0 -31.667 -7.5 -45 -22.5s-22.333 -34.167 -27 -57.5c-1.33301 -7.33301 -2.5 -14.333 -3.5 -21s-2 -14.334 -3 -23.001
s-1.83301 -18.667 -2.5 -30s-1.33398 -25.333 -2.00098 -42h160zM432.002 159.001c-1.33301 -27.333 -4.16504 -49.3359 -8.49805 -66.0029s-11.5 -31.667 -21.5 -45c-14 -18.667 -33.833 -33.167 -59.5 -43.5s-55.167 -15.5 -88.5 -15.5
c-70.667 0 -125.334 21.333 -164.001 64s-58 102.334 -58 179.001c0 40.667 5.16699 77.834 15.5 111.501s24.666 62.5 42.999 86.5s40.5 42.5 66.5 55.5s55 19.5 87 19.5c42 0 77.333 -10.667 106 -32s49.667 -53 63 -95c5.33301 -16 9.16602 -35 11.499 -57
s3.5 -49.667 3.5 -83h-268c0.666992 -22 1.33398 -40.667 2.00098 -56s1.66699 -28.5 3 -39.5s2.83301 -20.667 4.5 -29s4.16699 -16.166 7.5 -23.499c16 -46.667 49.333 -70 100 -70c30 0 54.833 10.5 74.5 31.5s29.5 47.5 29.5 79.5c0 12.667 -1 27 -3 43z" />
    <glyph glyph-name="ecircumflex" unicode="&#xea;" horiz-adv-x="462" 
d="M199 682h66l120 -126h-100l-74 80l-79 -80h-54zM320 276c-1.33301 70.667 -7.83105 121.001 -19.498 151.001s-30.834 45 -57.501 45c-16.667 0 -31.667 -7.5 -45 -22.5s-22.333 -34.167 -27 -57.5c-1.33301 -7.33301 -2.5 -14.333 -3.5 -21s-2 -14.334 -3 -23.001
s-1.83301 -18.667 -2.5 -30s-1.33398 -25.333 -2.00098 -42h160zM432.002 159.001c-1.33301 -27.333 -4.16504 -49.3359 -8.49805 -66.0029s-11.5 -31.667 -21.5 -45c-14 -18.667 -33.833 -33.167 -59.5 -43.5s-55.167 -15.5 -88.5 -15.5
c-70.667 0 -125.334 21.333 -164.001 64s-58 102.334 -58 179.001c0 40.667 5.16699 77.834 15.5 111.501s24.666 62.5 42.999 86.5s40.5 42.5 66.5 55.5s55 19.5 87 19.5c42 0 77.333 -10.667 106 -32s49.667 -53 63 -95c5.33301 -16 9.16602 -35 11.499 -57
s3.5 -49.667 3.5 -83h-268c0.666992 -22 1.33398 -40.667 2.00098 -56s1.66699 -28.5 3 -39.5s2.83301 -20.667 4.5 -29s4.16699 -16.166 7.5 -23.499c16 -46.667 49.333 -70 100 -70c30 0 54.833 10.5 74.5 31.5s29.5 47.5 29.5 79.5c0 12.667 -1 27 -3 43z" />
    <glyph glyph-name="edieresis" unicode="&#xeb;" horiz-adv-x="462" 
d="M335 666c18 0 32.5 -4.83301 43.5 -14.5s16.5 -22.167 16.5 -37.5c0 -16 -5.5 -28.667 -16.5 -38s-25.833 -14 -44.5 -14s-33.5 4.66699 -44.5 14s-16.5 22 -16.5 38s5.5 28.667 16.5 38s26.167 14 45.5 14zM130 666c18 0 32.5 -4.83301 43.5 -14.5
s16.5 -22.167 16.5 -37.5c0 -16 -5.5 -28.667 -16.5 -38s-25.833 -14 -44.5 -14s-33.5 4.66699 -44.5 14s-16.5 22 -16.5 38s5.5 28.667 16.5 38s26.167 14 45.5 14zM320 276c-1.33301 70.667 -7.83105 121.001 -19.498 151.001s-30.834 45 -57.501 45
c-16.667 0 -31.667 -7.5 -45 -22.5s-22.333 -34.167 -27 -57.5c-1.33301 -7.33301 -2.5 -14.333 -3.5 -21s-2 -14.334 -3 -23.001s-1.83301 -18.667 -2.5 -30s-1.33398 -25.333 -2.00098 -42h160zM432.002 159.001c-1.33301 -27.333 -4.16504 -49.3359 -8.49805 -66.0029
s-11.5 -31.667 -21.5 -45c-14 -18.667 -33.833 -33.167 -59.5 -43.5s-55.167 -15.5 -88.5 -15.5c-70.667 0 -125.334 21.333 -164.001 64s-58 102.334 -58 179.001c0 40.667 5.16699 77.834 15.5 111.501s24.666 62.5 42.999 86.5s40.5 42.5 66.5 55.5s55 19.5 87 19.5
c42 0 77.333 -10.667 106 -32s49.667 -53 63 -95c5.33301 -16 9.16602 -35 11.499 -57s3.5 -49.667 3.5 -83h-268c0.666992 -22 1.33398 -40.667 2.00098 -56s1.66699 -28.5 3 -39.5s2.83301 -20.667 4.5 -29s4.16699 -16.166 7.5 -23.499c16 -46.667 49.333 -70 100 -70
c30 0 54.833 10.5 74.5 31.5s29.5 47.5 29.5 79.5c0 12.667 -1 27 -3 43z" />
    <glyph glyph-name="igrave" unicode="&#xec;" horiz-adv-x="236" 
d="M16 680h122l83 -126h-36zM58 491c14 0 25.5 0.166992 34.5 0.5s17.667 1 26 2s17 2.33301 26 4l34.5 6.5v-504h-121v491z" />
    <glyph glyph-name="iacute" unicode="&#xed;" horiz-adv-x="236" 
d="M16 554l82 126h123l-169 -126h-36zM58 491c14 0 25.5 0.166992 34.5 0.5s17.667 1 26 2s17 2.33301 26 4l34.5 6.5v-504h-121v491z" />
    <glyph glyph-name="icircumflex" unicode="&#xee;" horiz-adv-x="236" 
d="M86 682h66l120 -126h-100l-74 80l-79 -80h-54zM58 491c14 0 25.5 0.166992 34.5 0.5s17.667 1 26 2s17 2.33301 26 4l34.5 6.5v-504h-121v491z" />
    <glyph glyph-name="idieresis" unicode="&#xef;" horiz-adv-x="236" 
d="M209 669c16 0 28.832 -4.83301 38.499 -14.5s14.5 -22.5 14.5 -38.5c0 -16.667 -4.83301 -29.834 -14.5 -39.501s-23.167 -14.5 -40.5 -14.5c-15.333 0 -27.833 4.83301 -37.5 14.5s-14.5 22.834 -14.5 39.501s4.83301 29.667 14.5 39s22.834 14 39.501 14zM24.999 669
c16 0 28.833 -4.83301 38.5 -14.5s14.5 -22.5 14.5 -38.5c0 -16.667 -4.83301 -29.834 -14.5 -39.501s-22.834 -14.5 -39.501 -14.5c-16 0 -28.833 4.83301 -38.5 14.5s-14.5 22.834 -14.5 39.501c0 16 4.83301 28.833 14.5 38.5s22.834 14.5 39.501 14.5zM56.999 491
c14 0 25.5 0.166992 34.5 0.5s17.667 1 26 2s17 2.33301 26 4l34.5 6.5v-504h-121v491z" />
    <glyph glyph-name="eth" unicode="&#xf0;" horiz-adv-x="485" 
d="M241 476c-13.333 0 -25.832 -5.33301 -37.499 -16s-20.167 -24.667 -25.5 -42c-6.66699 -20 -11.334 -43.5 -14.001 -70.5s-4 -60.5 -4 -100.5c0 -80.667 6.5 -139 19.5 -175s34.167 -54 63.5 -54c28.667 0 49.5 18 62.5 54s19.5 93.333 19.5 172
c0 82.667 -6.5 142 -19.5 178s-34.5 54 -64.5 54zM272.001 613l42.0049 -36.0029c12 -10.667 22.667 -21 32 -31s17.666 -20.167 24.999 -30.5s14.666 -21.5 21.999 -33.5c19.333 -33.333 34.166 -70.333 44.499 -111s15.5 -83 15.5 -127
c0 -81.333 -18.333 -144.166 -55 -188.499s-88.667 -66.5 -156 -66.5s-119.166 22.333 -155.499 67s-54.5 108.334 -54.5 191.001s18.167 146.334 54.5 191.001s88.166 67 155.499 67c6 0 11.167 -0.166992 15.5 -0.5s10.166 -1.16602 17.499 -2.49902
c-18 26.667 -42.667 52 -74 76l-111 -59l-21 44l95 47c-15.333 10.667 -32.5 21.5 -51.5 32.5s-35.167 19.167 -48.5 24.5l24 34l51 -20.5c14 -5.66699 26.167 -10.834 36.5 -15.501s19.166 -9 26.499 -13l22 -12l116 61l21 -43z" />
    <glyph glyph-name="ntilde" unicode="&#xf1;" horiz-adv-x="518" 
d="M108 558c4.66699 19.333 9.16016 34 13.4932 44s10.5 20 18.5 30c18.667 22.667 38.667 34 60 34c4.66699 0 8.66699 -0.166992 12 -0.5s7.66602 -1.33301 12.999 -3l21.5 -7c9 -3 21.167 -7.5 36.5 -13.5c26.667 -10 47 -15 61 -15c24.667 0 39.334 14.667 44.001 44h22
c-5.33301 -21.333 -10.166 -37.5 -14.499 -48.5s-10.166 -20.833 -17.499 -29.5c-7.33301 -9.33301 -16.666 -16.833 -27.999 -22.5s-22.666 -8.5 -33.999 -8.5c-16 0 -44 7.33301 -84 22c-17.333 6 -30.666 10.333 -39.999 13s-16.666 4 -21.999 4
c-11.333 0 -19.666 -3.16699 -24.999 -9.5s-10.333 -17.5 -15 -33.5h-22zM341.993 0l0.00195312 377.999c0 25.333 -4 43.333 -12 54s-21.667 16 -41 16c-29.333 0 -55 -16.333 -77 -49c-10 -15.333 -18.333 -32.166 -25 -50.499s-10 -34.833 -10 -49.5v-299h-120v493
c14 0 25.5 0.166992 34.5 0.5s17.5 1 25.5 2s16.5 2.16699 25.5 3.5s20.5 3.33301 34.5 6v-107c13.333 19.333 24.166 34 32.499 44s18.166 19 29.499 27c32.667 23.333 67.667 35 105 35c36 0 64.333 -10.5 85 -31.5s31 -49.5 31 -85.5v-387h-118z" />
    <glyph glyph-name="ograve" unicode="&#xf2;" horiz-adv-x="485" 
d="M140 680h122l83 -126h-36zM241 476c-13.333 0 -25.832 -5.33301 -37.499 -16s-20.167 -24.667 -25.5 -42c-6.66699 -20 -11.334 -43.5 -14.001 -70.5s-4 -60.5 -4 -100.5c0 -80.667 6.5 -139 19.5 -175s34.167 -54 63.5 -54c28.667 0 49.5 18 62.5 54
s19.5 93.333 19.5 172c0 82.667 -6.5 142 -19.5 178s-34.5 54 -64.5 54zM245.001 505c66.667 0 118 -22.501 154 -67.501s54 -108.5 54 -190.5c0 -83.333 -18.167 -147.166 -54.5 -191.499s-88.5 -66.5 -156.5 -66.5c-66.667 0 -118.334 22.333 -155.001 67s-55 108 -55 190
c0 84 18.333 148.167 55 192.5s89.334 66.5 158.001 66.5z" />
    <glyph glyph-name="oacute" unicode="&#xf3;" horiz-adv-x="485" 
d="M140 554l82 126h123l-169 -126h-36zM241 476c-13.333 0 -25.832 -5.33301 -37.499 -16s-20.167 -24.667 -25.5 -42c-6.66699 -20 -11.334 -43.5 -14.001 -70.5s-4 -60.5 -4 -100.5c0 -80.667 6.5 -139 19.5 -175s34.167 -54 63.5 -54c28.667 0 49.5 18 62.5 54
s19.5 93.333 19.5 172c0 82.667 -6.5 142 -19.5 178s-34.5 54 -64.5 54zM245.001 505c66.667 0 118 -22.501 154 -67.501s54 -108.5 54 -190.5c0 -83.333 -18.167 -147.166 -54.5 -191.499s-88.5 -66.5 -156.5 -66.5c-66.667 0 -118.334 22.333 -155.001 67s-55 108 -55 190
c0 84 18.333 148.167 55 192.5s89.334 66.5 158.001 66.5z" />
    <glyph glyph-name="ocircumflex" unicode="&#xf4;" horiz-adv-x="485" 
d="M210 682h66l120 -126h-100l-74 80l-79 -80h-54zM241 476c-13.333 0 -25.832 -5.33301 -37.499 -16s-20.167 -24.667 -25.5 -42c-6.66699 -20 -11.334 -43.5 -14.001 -70.5s-4 -60.5 -4 -100.5c0 -80.667 6.5 -139 19.5 -175s34.167 -54 63.5 -54
c28.667 0 49.5 18 62.5 54s19.5 93.333 19.5 172c0 82.667 -6.5 142 -19.5 178s-34.5 54 -64.5 54zM245.001 505c66.667 0 118 -22.501 154 -67.501s54 -108.5 54 -190.5c0 -83.333 -18.167 -147.166 -54.5 -191.499s-88.5 -66.5 -156.5 -66.5
c-66.667 0 -118.334 22.333 -155.001 67s-55 108 -55 190c0 84 18.333 148.167 55 192.5s89.334 66.5 158.001 66.5z" />
    <glyph glyph-name="otilde" unicode="&#xf5;" horiz-adv-x="485" 
d="M92 558c4.66699 19.333 9.16016 34 13.4932 44s10.5 20 18.5 30c18.667 22.667 38.667 34 60 34c4.66699 0 8.66699 -0.166992 12 -0.5s7.66602 -1.33301 12.999 -3l21.5 -7c9 -3 21.167 -7.5 36.5 -13.5c26.667 -10 47 -15 61 -15c24.667 0 39.334 14.667 44.001 44h22
c-5.33301 -21.333 -10.166 -37.5 -14.499 -48.5s-10.166 -20.833 -17.499 -29.5c-7.33301 -9.33301 -16.666 -16.833 -27.999 -22.5s-22.666 -8.5 -33.999 -8.5c-16 0 -44 7.33301 -84 22c-17.333 6 -30.666 10.333 -39.999 13s-16.666 4 -21.999 4
c-11.333 0 -19.666 -3.16699 -24.999 -9.5s-10.333 -17.5 -15 -33.5h-22zM240.993 476c-13.333 0 -25.832 -5.33301 -37.499 -16s-20.167 -24.667 -25.5 -42c-6.66699 -20 -11.334 -43.5 -14.001 -70.5s-4 -60.5 -4 -100.5c0 -80.667 6.5 -139 19.5 -175
s34.167 -54 63.5 -54c28.667 0 49.5 18 62.5 54s19.5 93.333 19.5 172c0 82.667 -6.5 142 -19.5 178s-34.5 54 -64.5 54zM244.994 505c66.667 0 118 -22.501 154 -67.501s54 -108.5 54 -190.5c0 -83.333 -18.167 -147.166 -54.5 -191.499s-88.5 -66.5 -156.5 -66.5
c-66.667 0 -118.334 22.333 -155.001 67s-55 108 -55 190c0 84 18.333 148.167 55 192.5s89.334 66.5 158.001 66.5z" />
    <glyph glyph-name="odieresis" unicode="&#xf6;" horiz-adv-x="485" 
d="M346 666c18 0 32.5 -4.83301 43.5 -14.5s16.5 -22.167 16.5 -37.5c0 -16 -5.5 -28.667 -16.5 -38s-25.833 -14 -44.5 -14s-33.5 4.66699 -44.5 14s-16.5 22 -16.5 38s5.5 28.667 16.5 38s26.167 14 45.5 14zM141 666c18 0 32.5 -4.83301 43.5 -14.5
s16.5 -22.167 16.5 -37.5c0 -16 -5.5 -28.667 -16.5 -38s-25.833 -14 -44.5 -14s-33.5 4.66699 -44.5 14s-16.5 22 -16.5 38s5.5 28.667 16.5 38s26.167 14 45.5 14zM241 476c-13.333 0 -25.832 -5.33301 -37.499 -16s-20.167 -24.667 -25.5 -42
c-6.66699 -20 -11.334 -43.5 -14.001 -70.5s-4 -60.5 -4 -100.5c0 -80.667 6.5 -139 19.5 -175s34.167 -54 63.5 -54c28.667 0 49.5 18 62.5 54s19.5 93.333 19.5 172c0 82.667 -6.5 142 -19.5 178s-34.5 54 -64.5 54zM245.001 505c66.667 0 118 -22.501 154 -67.501
s54 -108.5 54 -190.5c0 -83.333 -18.167 -147.166 -54.5 -191.499s-88.5 -66.5 -156.5 -66.5c-66.667 0 -118.334 22.333 -155.001 67s-55 108 -55 190c0 84 18.333 148.167 55 192.5s89.334 66.5 158.001 66.5z" />
    <glyph glyph-name="divide" unicode="&#xf7;" 
d="M250 229c14 0 26 -5 36 -15s15 -22 15 -36c0 -14.667 -5 -27 -15 -37s-22 -15 -36 -15c-14.667 0 -27 5 -37 15s-15 22.333 -15 37c0 14 5 26 15 36s22.333 15 37 15zM250 581c14 0 26 -5 36 -15s15 -22 15 -36c0 -14.667 -5 -27 -15 -37s-22.333 -15 -37 -15
c-14 0 -26 5 -36 15s-15 22 -15 36c0 14.667 5 27 15 37s22.333 15 37 15zM486 386v-64h-473v64h473z" />
    <glyph glyph-name="oslash" unicode="&#xf8;" horiz-adv-x="484" 
d="M174 108c11.333 -32.667 22.167 -55.332 32.5 -67.999s24.166 -19 41.499 -19s31.833 7.66699 43.5 23s20.167 37.666 25.5 66.999c5.33301 30.667 8 68 8 112c0 12.667 -0.166992 23.667 -0.5 33s-0.666016 18 -0.999023 26s-1 16 -2 24s-2.5 17 -4.5 27z
M310.001 392.002c-18.667 53.333 -43.333 79.998 -74 79.998c-15.333 0 -28.833 -8.16699 -40.5 -24.5s-20.167 -38.5 -25.5 -66.5c-2.66699 -13.333 -4.66699 -29.166 -6 -47.499s-2 -38.166 -2 -59.499c0 -22.667 0.333008 -41.5 1 -56.5s2 -31.167 4 -48.5zM397.002 440
c11.333 -18 18.832 -30.168 22.499 -36.501s6.83398 -12.166 9.50098 -17.499c7.33301 -15.333 13.166 -36.166 17.499 -62.499s6.5 -53.5 6.5 -81.5c0 -81.333 -18 -144 -54 -188s-87.333 -66 -154 -66c-28.667 0 -52.667 3.16699 -72 9.5s-38.666 17.166 -57.999 32.499
l-36 -53l-34 23l39 59c-18 24 -31.167 51.167 -39.5 81.5s-12.5 66.5 -12.5 108.5c0 78.667 18.333 142 55 190c32.667 42.667 85 64 157 64c27.333 0 50 -2.83301 68 -8.5s36 -15.5 54 -29.5l37 55l32 -22z" />
    <glyph glyph-name="ugrave" unicode="&#xf9;" horiz-adv-x="519" 
d="M157 680h122l83 -126h-36zM461 0l-120 -0.00292969v92c-12 -19.333 -23.5 -35.5 -34.5 -48.5s-22.833 -23.5 -35.5 -31.5s-26.167 -13.667 -40.5 -17s-30.833 -5 -49.5 -5c-41.333 0 -73 10.333 -95 31c-10 9.33301 -17.333 21.833 -22 37.5s-7 35.834 -7 60.501v373
c14 0.666992 25.5 1.5 34.5 2.5s17.5 1.83301 25.5 2.5s16.5 1.5 25.5 2.5s20.5 2.5 34.5 4.5v-388c0 -28 3.83301 -47.333 11.5 -58s21.5 -16 41.5 -16c16 0 30.833 4.33301 44.5 13s25.5 21 35.5 37s17.667 35 23 57s8 46.333 8 73v270
c14 0.666992 25.5 1.33398 34.5 2.00098s17.5 1.33398 25.5 2.00098s16.5 1.66699 25.5 3l34.5 5v-504z" />
    <glyph glyph-name="uacute" unicode="&#xfa;" horiz-adv-x="519" 
d="M157 554l82 126h123l-169 -126h-36zM461 0l-120 -0.00292969v92c-12 -19.333 -23.5 -35.5 -34.5 -48.5s-22.833 -23.5 -35.5 -31.5s-26.167 -13.667 -40.5 -17s-30.833 -5 -49.5 -5c-41.333 0 -73 10.333 -95 31c-10 9.33301 -17.333 21.833 -22 37.5
s-7 35.834 -7 60.501v373c14 0.666992 25.5 1.5 34.5 2.5s17.5 1.83301 25.5 2.5s16.5 1.5 25.5 2.5s20.5 2.5 34.5 4.5v-388c0 -28 3.83301 -47.333 11.5 -58s21.5 -16 41.5 -16c16 0 30.833 4.33301 44.5 13s25.5 21 35.5 37s17.667 35 23 57s8 46.333 8 73v270
c14 0.666992 25.5 1.33398 34.5 2.00098s17.5 1.33398 25.5 2.00098s16.5 1.66699 25.5 3l34.5 5v-504z" />
    <glyph glyph-name="ucircumflex" unicode="&#xfb;" horiz-adv-x="519" 
d="M227 682h66l120 -126h-100l-74 80l-79 -80h-54zM461 0l-120 -0.00292969v92c-12 -19.333 -23.5 -35.5 -34.5 -48.5s-22.833 -23.5 -35.5 -31.5s-26.167 -13.667 -40.5 -17s-30.833 -5 -49.5 -5c-41.333 0 -73 10.333 -95 31c-10 9.33301 -17.333 21.833 -22 37.5
s-7 35.834 -7 60.501v373c14 0.666992 25.5 1.5 34.5 2.5s17.5 1.83301 25.5 2.5s16.5 1.5 25.5 2.5s20.5 2.5 34.5 4.5v-388c0 -28 3.83301 -47.333 11.5 -58s21.5 -16 41.5 -16c16 0 30.833 4.33301 44.5 13s25.5 21 35.5 37s17.667 35 23 57s8 46.333 8 73v270
c14 0.666992 25.5 1.33398 34.5 2.00098s17.5 1.33398 25.5 2.00098s16.5 1.66699 25.5 3l34.5 5v-504z" />
    <glyph glyph-name="udieresis" unicode="&#xfc;" horiz-adv-x="519" 
d="M363 666c18 0 32.5 -4.83301 43.5 -14.5s16.5 -22.167 16.5 -37.5c0 -16 -5.5 -28.667 -16.5 -38s-25.833 -14 -44.5 -14s-33.5 4.66699 -44.5 14s-16.5 22 -16.5 38s5.5 28.667 16.5 38s26.167 14 45.5 14zM158 666c18 0 32.5 -4.83301 43.5 -14.5
s16.5 -22.167 16.5 -37.5c0 -16 -5.5 -28.667 -16.5 -38s-25.833 -14 -44.5 -14s-33.5 4.66699 -44.5 14s-16.5 22 -16.5 38s5.5 28.667 16.5 38s26.167 14 45.5 14zM461 0l-120 -0.00292969v92c-12 -19.333 -23.5 -35.5 -34.5 -48.5s-22.833 -23.5 -35.5 -31.5
s-26.167 -13.667 -40.5 -17s-30.833 -5 -49.5 -5c-41.333 0 -73 10.333 -95 31c-10 9.33301 -17.333 21.833 -22 37.5s-7 35.834 -7 60.501v373c14 0.666992 25.5 1.5 34.5 2.5s17.5 1.83301 25.5 2.5s16.5 1.5 25.5 2.5s20.5 2.5 34.5 4.5v-388
c0 -28 3.83301 -47.333 11.5 -58s21.5 -16 41.5 -16c16 0 30.833 4.33301 44.5 13s25.5 21 35.5 37s17.667 35 23 57s8 46.333 8 73v270c14 0.666992 25.5 1.33398 34.5 2.00098s17.5 1.33398 25.5 2.00098s16.5 1.66699 25.5 3l34.5 5v-504z" />
    <glyph glyph-name="yacute" unicode="&#xfd;" horiz-adv-x="419" 
d="M108 554l82 126h123l-169 -126h-36zM204 -75c-14 -38 -29.5 -64.666 -46.5 -79.999s-38.167 -23 -63.5 -23c-23.333 0 -41.166 4.33301 -53.499 13s-22.5 23.667 -30.5 45l46 33c5.33301 -35.333 19.666 -53 42.999 -53c11.333 0 22.5 5.66699 33.5 17
s20.167 26.666 27.5 45.999l20 58l-183 511h130l119 -353l133 353h45z" />
    <glyph glyph-name="thorn" unicode="&#xfe;" horiz-adv-x="575" 
d="M299 394c-37.333 0 -67 -14.833 -89 -44.5s-33 -69.5 -33 -119.5c0 -47.333 11.333 -85 34 -113s53 -42 91 -42s68.167 14.167 90.5 42.5s33.5 66.833 33.5 115.5c0 50 -11.333 89.333 -34 118s-53.667 43 -93 43zM174 391c23.333 36 47.334 61.832 72.001 77.499
s54.667 23.5 90 23.5c32 0 61 -6 87 -18s48 -29 66 -51s32 -48.833 42 -80.5s15 -66.834 15 -105.501c0 -38 -5 -72.667 -15 -104s-24 -58 -42 -80s-39.833 -39 -65.5 -51s-54.5 -18 -86.5 -18c-19.333 0 -37.833 3 -55.5 9s-35.834 15.333 -54.501 28
c-11.333 8.66699 -20.333 16.834 -27 24.501s-13.667 18.834 -21 33.501v-240h-120v828h115v-276z" />
    <glyph glyph-name="ydieresis" unicode="&#xff;" horiz-adv-x="419" 
d="M314 666c18 0 32.5 -4.83301 43.5 -14.5s16.5 -22.167 16.5 -37.5c0 -16 -5.5 -28.667 -16.5 -38s-25.833 -14 -44.5 -14s-33.5 4.66699 -44.5 14s-16.5 22 -16.5 38s5.5 28.667 16.5 38s26.167 14 45.5 14zM109 666c18 0 32.5 -4.83301 43.5 -14.5
s16.5 -22.167 16.5 -37.5c0 -16 -5.5 -28.667 -16.5 -38s-25.833 -14 -44.5 -14s-33.5 4.66699 -44.5 14s-16.5 22 -16.5 38s5.5 28.667 16.5 38s26.167 14 45.5 14zM204 -75c-14 -38 -29.5 -64.666 -46.5 -79.999s-38.167 -23 -63.5 -23
c-23.333 0 -41.166 4.33301 -53.499 13s-22.5 23.667 -30.5 45l46 33c5.33301 -35.333 19.666 -53 42.999 -53c11.333 0 22.5 5.66699 33.5 17s20.167 26.666 27.5 45.999l20 58l-183 511h130l119 -353l133 353h45z" />
    <glyph glyph-name="dotlessi" unicode="&#x131;" horiz-adv-x="236" 
d="M57 491c14 0 25.5 0.166992 34.5 0.5s17.667 1 26 2s17 2.33301 26 4l34.5 6.5v-504h-121v491z" />
    <glyph glyph-name="Lslash" unicode="&#x141;" horiz-adv-x="468" 
d="M196 420l106 84v-60l-106 -84v-310h285v-50h-417v273l-64 -49v61l64 48v334h132v-247z" />
    <glyph glyph-name="lslash" unicode="&#x142;" horiz-adv-x="238" 
d="M179 418l55 41v-52l-55 -41v-366h-119v294l-55 -41v52l55 41v321c14 0.666992 25.333 1.16699 34 1.5s17 0.833008 25 1.5s16.5 1.5 25.5 2.5s20.5 2.5 34.5 4.5v-259z" />
    <glyph glyph-name="OE" unicode="&#x152;" horiz-adv-x="810" 
d="M384 532c0 34 -7.66699 60.3311 -23 78.998s-36.666 28 -63.999 28c-25.333 0 -45.666 -7.16699 -60.999 -21.5s-28 -38.166 -38 -71.499c-3.33301 -10.667 -6.16602 -24.167 -8.49902 -40.5s-4.5 -34.666 -6.5 -54.999s-3.5 -42 -4.5 -65s-1.5 -46.167 -1.5 -69.5
c0 -52 2.16699 -96.333 6.5 -133s11.166 -66.5 20.499 -89.5s21.666 -39.833 36.999 -50.5s33.666 -16 54.999 -16c31.333 0 53.833 9.5 67.5 28.5s20.5 49.5 20.5 91.5v385zM390 -0.00195312c-5.33301 0 -12.9961 -1 -22.9961 -3
c-16.667 -2.66699 -31.834 -4.66699 -45.501 -6s-26.167 -2 -37.5 -2c-30 0 -60.5 7.16699 -91.5 21.5s-57.5 33.5 -79.5 57.5c-24.667 26 -43.834 61 -57.501 105s-20.5 92 -20.5 144s6.5 100 19.5 144s31.167 82 54.5 114s51 57 83 75s66.667 27 104 27
c13.333 0 26.166 -0.666992 38.499 -2s29.166 -4 50.499 -8h381v-51h-249v-223h210v-48h-210v-296h283v-49h-410z" />
    <glyph glyph-name="oe" unicode="&#x153;" horiz-adv-x="751" 
d="M240 475c-28 0 -48.335 -18.333 -61.002 -55s-19 -95 -19 -175c0 -78.667 6.66699 -136 20 -172s34.333 -54 63 -54s49.334 18.667 62.001 56s19 98.666 19 183.999c0 74.667 -6.66699 129.334 -20 164.001s-34.666 52 -63.999 52zM607.998 276
c0 15.333 -0.333984 28.502 -1.00098 39.502s-1.33398 21 -2.00098 30s-1.5 17.333 -2.5 25s-2.16699 15.834 -3.5 24.501c-3.33301 23.333 -10.666 41.833 -21.999 55.5s-25 20.5 -41 20.5c-17.333 0 -32.666 -7.33301 -45.999 -22s-22.666 -34.334 -27.999 -59.001
c-2 -8 -3.5 -15.667 -4.5 -23s-2 -15.333 -3 -24s-1.83301 -18.334 -2.5 -29.001s-1.33398 -23.334 -2.00098 -38.001h158zM720.997 157.002c-1.33301 -26 -3.66797 -46.3379 -7.00098 -61.0049s-8.66602 -28.667 -15.999 -42c-12.667 -21.333 -31.5 -37.666 -56.5 -48.999
s-55.5 -17 -91.5 -17c-37.333 0 -68.166 5.16699 -92.499 15.5s-47.833 28.166 -70.5 53.499c-12 -14 -23.167 -25.5 -33.5 -34.5s-21 -16 -32 -21s-23.333 -8.33301 -37 -10s-29.834 -2.5 -48.501 -2.5c-34.667 0 -66.167 7.16699 -94.5 21.5s-51.166 34.5 -68.499 60.5
c-12.667 19.333 -22.667 44.333 -30 75s-11 63.334 -11 98.001c0 46 5.83301 86.5 17.5 121.5s28.5 63.167 50.5 84.5c17.333 17.333 38.166 30.666 62.499 39.999s49.833 14 76.5 14c18 0 33.833 -1 47.5 -3s26.167 -5.83301 37.5 -11.5s22.166 -13.167 32.499 -22.5
s21.5 -21.333 33.5 -36c12.667 14 24.167 25.667 34.5 35s20.833 16.833 31.5 22.5s21.667 9.66699 33 12s24 3.5 38 3.5c46.667 0 84 -10.5 112 -31.5s48.667 -53.833 62 -98.5c4.66699 -15.333 8.33398 -33.666 11.001 -54.999s4.66699 -48.666 6 -81.999h-268
c0 -16 0.166992 -29.833 0.5 -41.5s0.833008 -22.167 1.5 -31.5s1.66699 -18.166 3 -26.499s3 -17.166 5 -26.499c6.66699 -30 19 -52.833 37 -68.5s41 -23.5 69 -23.5c14.667 0 28.334 2.83301 41.001 8.5s23.667 13.334 33 23.001s16.666 21 21.999 34s8 27.167 8 42.5
c0 5.33301 -0.333008 12 -1 20s-1.66699 16.667 -3 26z" />
    <glyph glyph-name="Scaron" unicode="&#x160;" horiz-adv-x="512" 
d="M289 722h-66l-120 126h100l73 -80l80 80h54zM387 472c1.33301 10.667 2.49414 20.6689 3.49414 30.002s1.5 17.666 1.5 24.999c0 16 -3.66699 30.667 -11 44s-17.333 25 -30 35s-27.667 17.833 -45 23.5s-36 8.5 -56 8.5c-53.333 0 -90 -16.333 -110 -49
c-10 -18 -15 -36.333 -15 -55c0 -28 8.83301 -50.833 26.5 -68.5s49.167 -34.834 94.5 -51.501c30 -11.333 57.5 -23 82.5 -35s47.167 -24 66.5 -36c29.333 -18 50.833 -39.833 64.5 -65.5s20.5 -56.5 20.5 -92.5c0 -29.333 -5.5 -56 -16.5 -80s-26.5 -44.667 -46.5 -62
s-43.833 -30.833 -71.5 -40.5s-58.5 -14.5 -92.5 -14.5c-33.333 0 -63.666 4 -90.999 12s-50.666 19.5 -69.999 34.5s-34.166 33.167 -44.499 54.5s-15.5 45 -15.5 71c0 5.33301 0.166992 12.166 0.5 20.499s0.833008 17.166 1.5 26.499l71 20
c-7.33301 -29.333 -11 -53.666 -11 -72.999c0 -18 3.83301 -34.833 11.5 -50.5s18 -29.334 31 -41.001s28.5 -20.667 46.5 -27s37.333 -9.5 58 -9.5c18.667 0 36 2.83301 52 8.5s30 13.5 42 23.5s21.333 21.833 28 35.5s10 28.5 10 44.5c0 22.667 -6 42.334 -18 59.001
s-31.667 32 -59 46c-3.33301 2 -6.33301 3.66699 -9 5l-12.5 6c-5.66699 2.66699 -13.834 6 -24.501 10s-25.667 10 -45 18c-31.333 12.667 -57.666 25.667 -78.999 39s-38.666 28.333 -51.999 45s-23 35.167 -29 55.5s-9 43.5 -9 69.5c0 28 5.33301 53.333 16 76
s25.834 42.334 45.501 59.001s43 29.5 70 38.5s56.833 13.5 89.5 13.5c36 0 68.833 -6.5 98.5 -19.5s52.834 -31.167 69.501 -54.5c10 -14 17 -29.5 21 -46.5s6 -39.833 6 -68.5z" />
    <glyph glyph-name="scaron" unicode="&#x161;" horiz-adv-x="426" 
d="M246 556h-66l-120 126h100l73 -80l80 80h54zM319 349c0.666992 5.33301 1 9.66992 1 13.0029v9c0 30 -9.16699 54.5 -27.5 73.5s-42.166 28.5 -71.499 28.5c-23.333 0 -43.333 -7.16699 -60 -21.5s-25 -31.5 -25 -51.5c0 -20.667 9 -38.667 27 -54s50 -32.333 96 -51
l42.5 -19c11.667 -5.33301 21.667 -10.5 30 -15.5s15.5 -10.167 21.5 -15.5s11.667 -11 17 -17c20 -26 30 -54.667 30 -86c0 -28 -7.16699 -54 -21.5 -78s-34.166 -42.333 -59.499 -55c-12.667 -6.66699 -27.667 -11.667 -45 -15s-35.666 -5 -54.999 -5
c-68 0 -119 18.667 -153 56c-14 14.667 -23.667 30.167 -29 46.5s-8.33301 38.166 -9 65.499l66 14l-3.5 -21.5c-1 -6.33301 -1.5 -12.166 -1.5 -17.499c0 -15.333 3.16699 -29.666 9.5 -42.999s15 -25 26 -35s23.833 -17.833 38.5 -23.5s30 -8.5 46 -8.5
c25.333 0 46 7 62 21s24 32 24 54c0 10 -1.5 19 -4.5 27s-8.5 15.5 -16.5 22.5s-19 14.167 -33 21.5s-31.667 15.333 -53 24c-52 21.333 -90.167 45.166 -114.5 71.499s-36.5 56.833 -36.5 91.5c0 21.333 4.66699 41.166 14 59.499s22.166 34.166 38.499 47.499
s35.833 23.666 58.5 30.999s47.667 11 75 11c55.333 0 97.333 -16.667 126 -50c11.333 -12.667 19.166 -25.667 23.499 -39s7.16602 -31 8.49902 -53z" />
    <glyph glyph-name="Ydieresis" unicode="&#x178;" horiz-adv-x="466" 
d="M337 835c18 0 32.5 -4.83301 43.5 -14.5s16.5 -22.167 16.5 -37.5c0 -16 -5.5 -28.667 -16.5 -38s-25.833 -14 -44.5 -14s-33.5 4.66699 -44.5 14s-16.5 22 -16.5 38s5.5 28.667 16.5 38s26.167 14 45.5 14zM132 835c18 0 32.5 -4.83301 43.5 -14.5
s16.5 -22.167 16.5 -37.5c0 -16 -5.5 -28.667 -16.5 -38s-25.833 -14 -44.5 -14s-33.5 4.66699 -44.5 14s-16.5 22 -16.5 38s5.5 28.667 16.5 38s26.167 14 45.5 14zM316 247v-247h-134v247l-188 420h142l155 -348l130 348h54z" />
    <glyph glyph-name="Zcaron" unicode="&#x17d;" 
d="M283 722h-66l-120 126h100l73 -80l80 80h54zM491 619l-334 -567h315v-52h-464v52l332 563h-297v52h448v-48z" />
    <glyph glyph-name="zcaron" unicode="&#x17e;" horiz-adv-x="397" 
d="M231 556h-66l-120 126h100l73 -80l80 80h54zM382 451l-238 -408h238v-43h-368v49l238 402h-216v41h346v-41z" />
    <glyph glyph-name="florin" unicode="&#x192;" horiz-adv-x="312" 
d="M105 618c5.33301 38.667 20.4971 69.998 45.4971 93.998s55.167 36 90.5 36c28.667 0 51.667 -7 69 -21s26 -32.667 26 -56c0 -7.33301 -0.333008 -14.166 -1 -20.499s-2.66699 -15.5 -6 -27.5l-66 -22l9.5 29.5c2.33301 7 4 12.833 5 17.5s1.66699 8.33398 2 11.001
s0.5 6 0.5 10c0 15.333 -4.33301 28.5 -13 39.5s-19 16.5 -31 16.5c-16 0 -29.833 -9.5 -41.5 -28.5s-17.5 -41.5 -17.5 -67.5v-13.5c0 -4.33301 0.333008 -8.83301 1 -13.5c2.66699 -30 4.66699 -55 6 -75s2 -30.667 2 -32c0 -0.666992 -0.166992 -3.16699 -0.5 -7.5
s-1.16602 -9.83301 -2.49902 -16.5c-1.33301 -9.33301 -2.16602 -18.5 -2.49902 -27.5s-1.16602 -18.167 -2.49902 -27.5h125v-40h-130l-68 -480h-102l67 480h-70v40h76z" />
    <glyph glyph-name="circumflex" unicode="&#x2c6;" 
d="M218 682h66l120 -126h-100l-74 80l-79 -80h-54z" />
    <glyph glyph-name="caron" unicode="&#x2c7;" 
d="M283 556h-66l-120 126h100l73 -80l80 80h54z" />
    <glyph glyph-name="breve" unicode="&#x2d8;" 
d="M125 689c8 -20.667 21.832 -35.5 41.499 -44.5s47.834 -13.5 84.501 -13.5c36 0 63.833 4.5 83.5 13.5s33.5 23.833 41.5 44.5h20c-1.33301 -18.667 -6 -35.834 -14 -51.501s-18.5 -29.334 -31.5 -41.001s-28 -20.667 -45 -27s-35.167 -9.5 -54.5 -9.5
c-20 0 -38.5 3.16699 -55.5 9.5s-32 15.333 -45 27s-23.5 25.334 -31.5 41.001s-12.667 32.834 -14 51.501h20z" />
    <glyph glyph-name="dotaccent" unicode="&#x2d9;" 
d="M251 666c18 0 32.5 -4.83301 43.5 -14.5s16.5 -22.167 16.5 -37.5c0 -16 -5.5 -28.667 -16.5 -38s-25.833 -14 -44.5 -14s-33.5 4.66699 -44.5 14s-16.5 22 -16.5 38s5.5 28.667 16.5 38s26.167 14 45.5 14z" />
    <glyph glyph-name="ring" unicode="&#x2da;" 
d="M248 670c-11.333 0 -20.833 -4.00098 -28.5 -12.001s-11.5 -17.667 -11.5 -29s4 -21.166 12 -29.499s17.667 -12.5 29 -12.5s21 4 29 12s12 18 12 30c0 11.333 -4 21 -12 29s-18 12 -30 12zM251 714.999c11.333 0 22.165 -2.33301 32.498 -7s19.333 -10.834 27 -18.501
s13.667 -16.667 18 -27s6.5 -21.5 6.5 -33.5c0 -24 -8.33301 -44.333 -25 -61s-36.667 -25 -60 -25c-24 0 -44.333 8.33301 -61 25s-25 37.334 -25 62.001c0 12 2.33301 23.167 7 33.5s10.834 19.333 18.501 27s16.834 13.667 27.501 18s22 6.5 34 6.5z" />
    <glyph glyph-name="ogonek" unicode="&#x2db;" 
d="M309 0c-24.667 -13.333 -41.166 -24.332 -49.499 -32.999s-12.5 -19 -12.5 -31c0 -11.333 4.16699 -20.5 12.5 -27.5s19.5 -10.5 33.5 -10.5c4 0 7.66699 0.333008 11 1s7.66602 1.66699 12.999 3v-25c-13.333 -4.66699 -24 -7.83398 -32 -9.50098s-17 -2.5 -27 -2.5
c-22.667 0 -41 5.5 -55 16.5s-21 25.167 -21 42.5c0 32.667 31.667 58 95 76h32z" />
    <glyph glyph-name="tilde" unicode="&#x2dc;" 
d="M99 558c4.66699 19.333 9.16016 34 13.4932 44s10.5 20 18.5 30c18.667 22.667 38.667 34 60 34c4.66699 0 8.66699 -0.166992 12 -0.5s7.66602 -1.33301 12.999 -3l21.5 -7c9 -3 21.167 -7.5 36.5 -13.5c26.667 -10 47 -15 61 -15c24.667 0 39.334 14.667 44.001 44h22
c-5.33301 -21.333 -10.166 -37.5 -14.499 -48.5s-10.166 -20.833 -17.499 -29.5c-7.33301 -9.33301 -16.666 -16.833 -27.999 -22.5s-22.666 -8.5 -33.999 -8.5c-16 0 -44 7.33301 -84 22c-17.333 6 -30.666 10.333 -39.999 13s-16.666 4 -21.999 4
c-11.333 0 -19.666 -3.16699 -24.999 -9.5s-10.333 -17.5 -15 -33.5h-22z" />
    <glyph glyph-name="hungarumlaut" unicode="&#x2dd;" 
d="M232 554l61 126h109l-134 -126h-36zM98 554l61 126h109l-134 -126h-36z" />
    <glyph glyph-name="endash" unicode="&#x2013;" horiz-adv-x="518" 
d="M460 211h-403v92h403v-92z" />
    <glyph glyph-name="emdash" unicode="&#x2014;" horiz-adv-x="644" 
d="M641 211h-638v92h638v-92z" />
    <glyph glyph-name="quoteleft" unicode="&#x2018;" horiz-adv-x="236" 
d="M173 635c-15.333 -8.66699 -27.833 -20.666 -37.5 -35.999s-15.5 -32.666 -17.5 -51.999c11.333 -0.666992 20 -1.83398 26 -3.50098s11.667 -4.83398 17 -9.50098c6.66699 -6 12 -13.833 16 -23.5s6 -19.5 6 -29.5c0 -19.333 -6.16699 -35.333 -18.5 -48
s-27.833 -19 -46.5 -19c-20 0 -36.167 7.33301 -48.5 22s-18.5 33.667 -18.5 57c0 20.667 3 40.667 9 60s14.333 37 25 53s23.5 30.167 38.5 42.5s31.5 21.833 49.5 28.5v-42z" />
    <glyph glyph-name="quoteright" unicode="&#x2019;" horiz-adv-x="236" 
d="M64 456c15.333 8.66699 27.833 20.6641 37.5 35.9971s15.5 33 17.5 53c-11.333 0.666992 -20 1.83398 -26 3.50098s-11.667 4.83398 -17 9.50098c-6.66699 5.33301 -12 12.833 -16 22.5s-6 19.5 -6 29.5c0 19.333 6.16699 35.333 18.5 48s27.833 19 46.5 19
c20 0 36.167 -7.33301 48.5 -22s18.5 -33.667 18.5 -57c0 -20.667 -3 -40.5 -9 -59.5s-14.333 -36.667 -25 -53s-23.5 -30.666 -38.5 -42.999s-31.5 -21.833 -49.5 -28.5v42z" />
    <glyph glyph-name="quotesinglbase" unicode="&#x201a;" horiz-adv-x="253" 
d="M72 -90c32.667 18.667 51 48.3301 55 88.9971c-11.333 0.666992 -20 1.83398 -26 3.50098s-11.667 4.83398 -17 9.50098c-6.66699 5.33301 -12 13 -16 23s-6 20 -6 30c0 18.667 6.16699 34.334 18.5 47.001s27.833 19 46.5 19c20 0 36.167 -7.33301 48.5 -22
s18.5 -33.667 18.5 -57c0 -41.333 -11.333 -78.833 -34 -112.5s-52 -57.167 -88 -70.5v41z" />
    <glyph glyph-name="quotedblleft" unicode="&#x201c;" horiz-adv-x="411" 
d="M348 635c-15.333 -8.66699 -27.833 -20.666 -37.5 -35.999s-15.5 -32.666 -17.5 -51.999c11.333 -0.666992 20 -1.83398 26 -3.50098s11.667 -4.83398 17 -9.50098c6.66699 -6 12 -13.833 16 -23.5s6 -19.5 6 -29.5c0 -19.333 -6.16699 -35.333 -18.5 -48
s-27.833 -19 -46.5 -19c-20 0 -36.167 7.33301 -48.5 22s-18.5 33.667 -18.5 57c0 20.667 3 40.667 9 60s14.333 37 25 53s23.5 30.167 38.5 42.5s31.5 21.833 49.5 28.5v-42zM173 635.001c-15.333 -8.66699 -27.833 -20.666 -37.5 -35.999s-15.5 -32.666 -17.5 -51.999
c11.333 -0.666992 20 -1.83398 26 -3.50098s11.667 -4.83398 17 -9.50098c6.66699 -6 12 -13.833 16 -23.5s6 -19.5 6 -29.5c0 -19.333 -6.16699 -35.333 -18.5 -48s-27.833 -19 -46.5 -19c-20 0 -36.167 7.33301 -48.5 22s-18.5 33.667 -18.5 57c0 20.667 3 40.667 9 60
s14.333 37 25 53s23.5 30.167 38.5 42.5s31.5 21.833 49.5 28.5v-42z" />
    <glyph glyph-name="quotedblright" unicode="&#x201d;" horiz-adv-x="411" 
d="M239 456c15.333 8.66699 27.833 20.6641 37.5 35.9971s15.5 33 17.5 53c-11.333 0.666992 -20 1.83398 -26 3.50098s-11.667 4.83398 -17 9.50098c-6.66699 5.33301 -12 12.833 -16 22.5s-6 19.5 -6 29.5c0 19.333 6.16699 35.333 18.5 48s27.833 19 46.5 19
c20 0 36.167 -7.33301 48.5 -22s18.5 -33.667 18.5 -57c0 -20.667 -3 -40.5 -9 -59.5s-14.333 -36.667 -25 -53s-23.5 -30.666 -38.5 -42.999s-31.5 -21.833 -49.5 -28.5v42zM64 455.997c15.333 8.66699 27.833 20.6641 37.5 35.9971s15.5 33 17.5 53
c-11.333 0.666992 -20 1.83398 -26 3.50098s-11.667 4.83398 -17 9.50098c-6.66699 5.33301 -12 12.833 -16 22.5s-6 19.5 -6 29.5c0 19.333 6.16699 35.333 18.5 48s27.833 19 46.5 19c20 0 36.167 -7.33301 48.5 -22s18.5 -33.667 18.5 -57c0 -20.667 -3 -40.5 -9 -59.5
s-14.333 -36.667 -25 -53s-23.5 -30.666 -38.5 -42.999s-31.5 -21.833 -49.5 -28.5v42z" />
    <glyph glyph-name="quotedblbase" unicode="&#x201e;" horiz-adv-x="411" 
d="M239 -90c32.667 18.667 51 48.3301 55 88.9971c-11.333 0.666992 -20 1.83398 -26 3.50098s-11.667 4.83398 -17 9.50098c-6.66699 5.33301 -12 13 -16 23s-6 20 -6 30c0 18.667 6.16699 34.334 18.5 47.001s27.833 19 46.5 19c20 0 36.167 -7.33301 48.5 -22
s18.5 -33.667 18.5 -57c0 -41.333 -11.333 -78.833 -34 -112.5s-52 -57.167 -88 -70.5v41zM64 -90.0039c32.667 18.667 51 48.3301 55 88.9971c-11.333 0.666992 -20 1.83398 -26 3.50098s-11.667 4.83398 -17 9.50098c-6.66699 5.33301 -12 13 -16 23s-6 20 -6 30
c0 18.667 6.16699 34.334 18.5 47.001s27.833 19 46.5 19c20 0 36.167 -7.33301 48.5 -22s18.5 -33.667 18.5 -57c0 -41.333 -11.333 -78.833 -34 -112.5s-52 -57.167 -88 -70.5v41z" />
    <glyph glyph-name="dagger" unicode="&#x2020;" horiz-adv-x="554" 
d="M337 470h161v-55h-161v-582h-119v582h-162v55h162v197c14 0.666992 25.333 1.16699 34 1.5s17 0.833008 25 1.5s16.5 1.5 25.5 2.5s20.5 2.5 34.5 4.5v-207z" />
    <glyph glyph-name="daggerdbl" unicode="&#x2021;" horiz-adv-x="603" 
d="M537 388h-176v-269h176v-101h-176v-178h-119v178h-177v101h177v269h-177v102h177v177h119v-177h176v-102z" />
    <glyph glyph-name="bullet" unicode="&#x2022;" horiz-adv-x="667" 
d="M337 477c18.667 0 36.1689 -3.66406 52.502 -10.9971s30.666 -17.333 42.999 -30s22.166 -27.334 29.499 -44.001s11 -34.334 11 -53.001c0 -19.333 -3.66699 -37.5 -11 -54.5s-17.166 -31.667 -29.499 -44s-27 -22.166 -44 -29.499s-34.833 -11 -53.5 -11
c-19.333 0 -37.333 3.66699 -54 11s-31.334 17.166 -44.001 29.499s-22.667 26.833 -30 43.5s-11 34.667 -11 54s3.66699 37.5 11 54.5s17.333 31.667 30 44s27.5 22.166 44.5 29.499s35.5 11 55.5 11z" />
    <glyph glyph-name="ellipsis" unicode="&#x2026;" horiz-adv-x="759" 
d="M634 124c18 0 33.335 -6.5 46.002 -19.5s19 -28.5 19 -46.5s-6.33301 -33.5 -19 -46.5s-28.334 -19.5 -47.001 -19.5s-34.334 6.5 -47.001 19.5s-19 28.833 -19 47.5c0 18 6.5 33.333 19.5 46s28.833 19 47.5 19zM381.002 124c18 0 33.335 -6.5 46.002 -19.5
s19 -28.5 19 -46.5s-6.33301 -33.5 -19 -46.5s-28.334 -19.5 -47.001 -19.5s-34.334 6.5 -47.001 19.5s-19 28.833 -19 47.5c0 18 6.5 33.333 19.5 46s28.833 19 47.5 19zM128.004 124c18 0 33.335 -6.5 46.002 -19.5s19 -28.5 19 -46.5s-6.33301 -33.5 -19 -46.5
s-28.334 -19.5 -47.001 -19.5s-34.334 6.5 -47.001 19.5s-19 28.833 -19 47.5c0 18 6.5 33.333 19.5 46s28.833 19 47.5 19z" />
    <glyph glyph-name="perthousand" unicode="&#x2030;" horiz-adv-x="1164" 
d="M976 271c-25.333 0 -45 -9.66699 -59 -29s-21 -47 -21 -83c0 -74.667 27 -112 81 -112c54.667 0 82 38.333 82 115c0 72.667 -27.667 109 -83 109zM980 328c22.667 0 43.1699 -3.99902 61.5029 -11.999s34.166 -19.5 47.499 -34.5s23.666 -32.833 30.999 -53.5
s11 -43.667 11 -69s-3.66699 -48.333 -11 -69s-17.833 -38.334 -31.5 -53.001s-30 -26 -49 -34s-39.833 -12 -62.5 -12c-23.333 0 -44.333 4 -63 12s-34.834 19.5 -48.501 34.5s-24.167 33 -31.5 54s-11 44.5 -11 70.5c0 24.667 3.83301 47.167 11.5 67.5
s18.334 37.833 32.001 52.5s30.167 26 49.5 34s40.666 12 63.999 12zM607.003 271.001c-25.333 0 -44.834 -9.66699 -58.501 -29s-20.5 -47.333 -20.5 -84c0 -36 6.83301 -63.5 20.5 -82.5s33.834 -28.5 60.501 -28.5c54.667 0 82 38.333 82 115c0 72.667 -28 109 -84 109z
M612.002 328.001c22.667 0 43.1689 -3.99902 61.502 -11.999s34.166 -19.5 47.499 -34.5s23.666 -32.833 30.999 -53.5s11 -43.334 11 -68.001c0 -51.333 -14 -92.333 -42 -123s-65.333 -46 -112 -46s-84 15.667 -112 47s-42 73 -42 125c0 24.667 3.83301 47 11.5 67
s18.334 37.333 32.001 52s30.167 26 49.5 34s40.666 12 63.999 12zM259.004 -9.99805h-65l342 680h65zM185.004 613.002c-25.333 0 -45.001 -10 -59.001 -30s-21 -48 -21 -84s6.83301 -63.333 20.5 -82s33.834 -28 60.501 -28c55.333 0 83 38 83 114
c0 73.333 -28 110 -84 110zM190.003 670.002c22.667 0 43.1699 -4.16797 61.5029 -12.501s34.166 -19.833 47.499 -34.5s23.666 -32.5 30.999 -53.5s11 -43.833 11 -68.5c0 -25.333 -3.83301 -48.166 -11.5 -68.499s-18.167 -38 -31.5 -53s-29.666 -26.5 -48.999 -34.5
s-40.333 -12 -63 -12c-23.333 0 -44.333 4.16699 -63 12.5s-34.834 20 -48.501 35s-24.167 33 -31.5 54s-11 44.5 -11 70.5c0 24.667 3.83301 47 11.5 67s18.5 37.333 32.5 52s30.667 26 50 34s40.666 12 63.999 12z" />
    <glyph glyph-name="guilsinglleft" unicode="&#x2039;" horiz-adv-x="267" 
d="M147 70l-104 172v31l104 172h66l-89 -187l89 -188h-66z" />
    <glyph glyph-name="guilsinglright" unicode="&#x203a;" horiz-adv-x="267" 
d="M120 445l104 -172v-31l-104 -172h-66l89 188l-89 187h66z" />
    <glyph glyph-name="fraction" unicode="&#x2044;" horiz-adv-x="92" 
d="M176 667h53l-313 -667h-53z" />
    <glyph glyph-name="fraction" unicode="&#x2215;" horiz-adv-x="92" 
d="M176 667h53l-313 -667h-53z" />
    <glyph glyph-name="trademark" unicode="&#x2122;" horiz-adv-x="743" 
d="M699 267h-90v285l-87 -285h-57l-86 280v-280h-39v400h93l86 -281l87 281h93v-400zM297 631h-100v-364h-95v364h-100v36h295v-36z" />
    <glyph glyph-name="minus" unicode="&#x2212;" 
d="M486 386v-64h-473v64h473z" />
    <glyph glyph-name="periodcentered" unicode="&#x2219;" horiz-adv-x="253" 
d="M128 324c18 0 33.335 -6.5 46.002 -19.5s19 -28.5 19 -46.5s-6.33301 -33.5 -19 -46.5s-28.334 -19.5 -47.001 -19.5s-34.334 6.5 -47.001 19.5s-19 28.833 -19 47.5c0 18 6.5 33.333 19.5 46s28.833 19 47.5 19z" />
    <glyph glyph-name=".null" horiz-adv-x="0" 
 />
    <glyph glyph-name="nonmarkingreturn" horiz-adv-x="300" 
 />
  </font>
</defs>
</svg>
